<?xml version="1.0" encoding="UTF-8"?>
<svg id="louse" xmlns="http://www.w3.org/2000/svg" viewBox="0 0 1594.14 1489.55">
  <defs>
    <style>
      .cls-1 {
        fill: #cb6645;
        opacity: .42;
      }

      .cls-2 {
        opacity: .55;
      }

      .cls-2, .cls-3 {
        fill: #bc5146;
      }

      .cls-4 {
        fill: #d16b5d;
      }

      .cls-5 {
        fill: #fff;
      }

      .cls-6 {
        fill: #eabb91;
      }

      .cls-7 {
        fill: #e1917d;
      }

      .cls-8 {
        fill: #e1a469;
      }

      .cls-9, .cls-10, .cls-11 {
        fill: #e08869;
      }

      .cls-3 {
        opacity: .75;
      }

      .cls-12 {
        fill: #cc6e52;
      }

      .cls-13 {
        fill: #bc5e45;
      }

      .cls-14 {
        fill: #af4c31;
        opacity: .59;
      }

      .cls-10 {
        opacity: .27;
      }

      .cls-11 {
        opacity: .25;
      }

      .cls-15 {
        fill: none;
        stroke: #e08869;
        stroke-miterlimit: 10;
        stroke-width: 13.94px;
      }

      .cls-16 {
        fill: #def0fb;
      }
    </style>
  </defs>
  <path class="cls-12" d="M158.26,549.68l-.83-1.74c-11.95-26-35.73-42.88-62.11-47.03-15.44-2.49-31.76-.53-47.06,6.44-19.48,9-33.79,24.51-41.52,42.76-.51-.99-.85-2.01-1.21-2.93q-.05-.06.01-.11c-15.61-40.22,2.69-86.1,42.49-104.29,25.42-11.68,53.7-9.39,76.06,3.81,14.12,8.21,25.89,20.67,33.18,36.61,4.97,10.81,7.42,22.09,7.49,33.3.05,11.44-2.14,22.71-6.52,33.16Z"/>
  <path class="cls-13" d="M158.26,549.71l-.81-1.77c-18.96-41.33-67.84-59.53-109.17-40.57-19.5,8.94-33.83,24.5-41.54,42.74-.45-.99-.84-2.01-1.19-2.96q-.1-.04-.03-.07c-.47-31.6,17.42-61.95,48.01-75.98,41.33-18.96,90.25-.86,109.21,40.47.75,1.62,1.42,3.28,2.02,4.97.1,11.41-2.15,22.71-6.51,33.17Z"/>
  <path class="cls-7" d="M7.22,549.12c-.19.34-.3.65-.49.99-.45-.99-.84-2.01-1.19-2.96q-.1-.04-.03-.07c-15.55-40.24,2.75-86.1,42.53-104.34,41.33-18.96,90.25-.86,109.21,40.47.65,1.41,1.26,2.93,1.91,4.34-20.27-38.42-67.34-54.71-107.26-36.4-37.66,17.27-56.08,59.33-44.68,97.97Z"/>
  <path class="cls-12" d="M391.98,319.23l-1.65-.98c-24.79-14.3-39.41-39.52-41.12-66.17-1.06-15.61,2.39-31.67,10.74-46.27,10.75-18.57,27.51-31.39,46.4-37.41-.94-.6-1.93-1.04-2.81-1.47q-.06-.05-.11,0c-38.61-19.24-85.99-5.24-107.76,32.72-13.97,24.24-14.29,52.61-3.2,76.08,6.88,14.81,18.2,27.68,33.41,36.41,10.3,5.95,21.31,9.42,32.47,10.53,11.38,1.11,22.81-.04,33.62-3.44Z"/>
  <path class="cls-13" d="M392.01,319.23l-1.68-.97c-39.41-22.68-53.04-73.03-30.36-112.44,10.7-18.59,27.5-31.43,46.38-37.43-.94-.54-1.93-1.02-2.84-1.46q-.03-.11-.07-.04c-31.42-3.37-63.29,11.65-80.08,40.82-22.68,39.41-9.16,89.79,30.25,112.47,1.55.89,3.14,1.72,4.77,2.47,11.35,1.15,22.81-.06,33.63-3.43Z"/>
  <path class="cls-7" d="M405.32,168.78c.36-.15.68-.24,1.03-.39-.94-.54-1.93-1.02-2.84-1.46q-.03-.11-.07-.04c-38.64-19.19-85.98-5.18-107.81,32.75-22.68,39.41-9.16,89.79,30.25,112.47,1.35.78,2.8,1.52,4.15,2.3-36.39-23.72-48.29-72.09-26.38-110.15,20.66-35.91,64.24-50.38,101.67-35.48Z"/>
  <path class="cls-12" d="M580.17,227.95l-1.2-1.5c-18.22-22.07-23.09-50.81-15.36-76.37,4.47-14.99,13.33-28.83,26.26-39.58,16.57-13.63,36.76-19.78,56.55-18.8-.67-.89-1.44-1.65-2.12-2.36q-.03-.07-.1-.04c-29.44-31.54-78.71-35-112.39-7.06-21.57,17.82-31.79,44.28-29.62,70.15,1.26,16.28,7.36,32.3,18.55,45.8,7.57,9.18,16.67,16.28,26.74,21.22,10.28,5.02,21.38,7.94,32.7,8.54Z"/>
  <path class="cls-13" d="M580.2,227.97l-1.24-1.5c-28.98-35.04-24.13-86.97,10.91-115.96,16.53-13.67,36.77-19.82,56.55-18.83-.69-.84-1.45-1.63-2.15-2.36q.01-.11-.05-.06c-28.25-14.16-63.37-11.24-89.3,10.22-35.04,28.98-40,80.91-11.02,115.95,1.14,1.38,2.34,2.71,3.6,3.98,10.23,5.05,21.39,7.93,32.7,8.56Z"/>
  <path class="cls-7" d="M645.32,91.68c.39-.02.72.01,1.1,0-.69-.84-1.45-1.63-2.15-2.36q.01-.11-.05-.06c-29.48-31.5-78.74-34.94-112.46-7.05-35.04,28.98-40,80.91-11.02,115.95.99,1.2,2.09,2.41,3.08,3.6-25.79-34.96-20.01-84.43,13.83-112.42,31.92-26.41,77.81-24.72,107.66,2.34Z"/>
  <path class="cls-12" d="M798.23,1326.54l1.55,1.14c23.23,16.71,35.25,43.27,34.27,69.96-.52,15.63-5.56,31.27-15.33,44.96-12.56,17.4-30.53,28.47-49.92,32.56.87.69,1.81,1.22,2.65,1.75q.05.06.11.01c36.48,23.02,85.03,13.85,110.5-21.74,16.33-22.72,19.5-50.91,10.82-75.38-5.36-15.43-15.33-29.37-29.58-39.58-9.65-6.95-20.26-11.51-31.25-13.73-11.21-2.24-22.7-2.25-33.8.05Z"/>
  <path class="cls-13" d="M798.2,1326.54l1.58,1.13c36.94,26.52,45.44,77.98,18.92,114.92-12.51,17.43-30.52,28.51-49.9,32.59.88.63,1.81,1.21,2.68,1.73q.02.11.06.05c30.92,6.51,64.14-5.24,83.77-32.58,26.52-36.94,18.13-88.42-18.81-114.94-1.45-1.04-2.95-2.02-4.49-2.94-11.18-2.29-22.7-2.23-33.8.03Z"/>
  <path class="cls-7" d="M769.86,1474.9c-.37.12-.7.17-1.07.29.88.63,1.81,1.21,2.68,1.73q.02.11.06.05c36.52,22.97,85.03,13.78,110.55-21.77,26.52-36.94,18.13-88.42-18.81-114.94-1.26-.91-2.63-1.8-3.9-2.7,33.83,27.25,40.81,76.57,15.19,112.25-24.16,33.65-68.97,43.68-104.72,25.1Z"/>
  <path class="cls-12" d="M1069.16,1141.27l.65,1.81c9.28,27.07,31.24,46.25,57.07,53.02,15.11,4.02,31.54,3.71,47.47-1.68,20.28-7,36.08-21,45.6-38.38.41,1.03.65,2.09.91,3.04q.04.06-.02.11c11.49,41.58-11.32,85.4-52.74,99.5-26.47,9.07-54.37,3.95-75.29-11.43-13.22-9.59-23.68-23.16-29.34-39.76-3.86-11.25-5.16-22.72-4.11-33.89,1.09-11.38,4.41-22.38,9.81-32.34Z"/>
  <path class="cls-13" d="M1069.17,1141.24l.63,1.84c14.71,43.03,61.52,66.04,104.55,51.32,20.3-6.94,36.12-20.98,45.62-38.36.35,1.03.63,2.08.88,3.07q.1.05.03.07c-2.71,31.48-23.55,59.89-55.4,70.78-43.03,14.71-89.88-8.2-104.6-51.23-.58-1.69-1.08-3.41-1.51-5.15,1.04-11.36,4.42-22.38,9.8-32.35Z"/>
  <path class="cls-7" d="M1219.38,1156.99c.22-.32.36-.62.58-.94.35,1.03.63,2.08.88,3.07q.1.05.03.07c11.43,41.6-11.38,85.38-52.79,99.55-43.03,14.71-89.88-8.2-104.6-51.23-.5-1.47-.96-3.04-1.46-4.51,16.32,40.26,61.51,61.2,103.07,46.99,39.2-13.41,61.75-53.4,54.29-92.99Z"/>
  <path class="cls-12" d="M1194.78,974.03l1.24,1.47c18.17,22.11,45.45,32.39,72.02,29.7,15.57-1.52,30.85-7.56,43.88-18.19,16.55-13.65,26.45-32.29,29.28-51.91.75.83,1.34,1.73,1.91,2.53q.06.05.02.11c25.32,34.93,19.29,83.96-14.59,111.67-21.62,17.76-49.55,22.73-74.53,15.64-15.74-4.35-30.29-13.41-41.4-26.98-7.56-9.19-12.79-19.48-15.71-30.3-2.96-11.05-3.7-22.51-2.13-33.73Z"/>
  <path class="cls-13" d="M1194.78,974l1.23,1.5c28.84,35.16,80.74,40.33,115.9,11.49,16.59-13.61,26.49-32.29,29.31-51.9.69.84,1.32,1.73,1.9,2.56q.11.01.05.06c8.48,30.44-1.1,64.35-27.12,85.69-35.16,28.84-87.07,23.77-115.91-11.38-1.13-1.38-2.21-2.81-3.22-4.29-3-11.01-3.69-22.51-2.14-33.74Z"/>
  <path class="cls-7" d="M1341,936.18c.09-.38.12-.71.22-1.08.69.84,1.32,1.73,1.9,2.56q.11.01.05.06c25.27,34.97,19.22,83.97-14.61,111.73-35.16,28.84-87.07,23.77-115.91-11.38-.99-1.2-1.96-2.51-2.95-3.72,29.37,32,79.04,35.8,112.99,7.95,32.03-26.28,39.16-71.64,18.31-106.11Z"/>
  <path class="cls-14" d="M158.26,549.68l-.83-1.74c-11.95-26-35.73-42.88-62.11-47.03-3.71-15.88-1.78-30.16,4.1-39.03,4.73-7.22,13.42-12.56,24.67-15.29,14.12,8.21,25.89,20.67,33.18,36.61,4.97,10.81,7.42,22.09,7.49,33.3.05,11.44-2.14,22.71-6.52,33.16Z"/>
  <path class="cls-8" d="M265.75,603.14c-15.75-6.77-33.76-12.98-54.07-16.49-101.41-17.47-120.43-92.04-103.41-117.95,17.09-25.96,89.66-26.13,139.35,41.41,14.15,19.26,30.56,35.15,46.15,48.69,36.82,32.11,69.23,51.03,57.25,69.25-12.69,19.32-39.79-5.39-85.28-24.92Z"/>
  <path class="cls-9" d="M351.01,628.11c17.06-25.98-55.91-53.4-103.44-118-49.64-67.59-122.29-67.35-139.28-41.41-17.06,25.98,1.97,100.47,103.39,117.94,79.04,13.65,122.29,67.35,139.33,41.47ZM215.19,578.91c-79.71-13.66-94.69-72.31-81.28-92.73,13.41-20.42,70.47-20.53,109.54,32.53,37.37,50.83,94.73,72.38,81.32,92.8-13.41,20.42-47.44-21.87-109.58-32.59Z"/>
  <ellipse class="cls-6" cx="184.93" cy="522.58" rx="12.62" ry="34.4" transform="translate(-360.25 422.24) rotate(-60.08)"/>
  <path class="cls-1" d="M265.75,603.14c-.97-7.66-.04-14.97,2.98-21.69,4.57-10.11,13.31-17.71,25.05-22.65,36.82,32.11,69.23,51.03,57.25,69.25-12.69,19.32-39.79-5.39-85.28-24.92Z"/>
  <path class="cls-8" d="M453.48,723.82c-19.04-9.29-41.93-18.63-69.04-23.29-101.41-17.47-120.43-92.04-103.39-118.05,17.03-25.91,89.66-26.13,139.35,41.41,14.83,20.21,32.23,36.8,48.54,50.85,35.84,30.8,66.52,49.33,54.86,67.2-11.14,17.04-33.76-.39-70.31-18.11Z"/>
  <path class="cls-9" d="M523.79,741.92c17.06-25.98-55.91-53.4-103.44-118-49.64-67.59-122.29-67.35-139.28-41.41-17.06,25.98,1.97,100.47,103.39,117.94,79.04,13.65,122.29,67.35,139.33,41.47ZM387.97,692.73c-79.71-13.66-94.69-72.31-81.28-92.73,13.41-20.42,70.47-20.53,109.54,32.53,37.37,50.83,94.73,72.38,81.32,92.8-13.41,20.42-47.44-21.87-109.58-32.59Z"/>
  <ellipse class="cls-6" cx="357.71" cy="636.4" rx="12.62" ry="34.4" transform="translate(-372.3 629.04) rotate(-60.08)"/>
  <path class="cls-14" d="M391.98,319.23l-1.65-.98c-24.79-14.3-39.41-39.52-41.12-66.17-15.47-5.16-29.86-4.55-39.24.5-7.62,4.04-13.74,12.21-17.49,23.16,6.88,14.81,18.2,27.68,33.41,36.41,10.3,5.95,21.31,9.42,32.47,10.53,11.38,1.11,22.81-.04,33.62-3.44Z"/>
  <path class="cls-8" d="M435.32,431.18c-5.29-16.3-9.82-34.81-11.45-55.36-8.07-102.58-80.57-128.39-107.93-113.81-27.42,14.63-34.26,86.88,28.41,142.57,17.88,15.86,32.19,33.67,44.24,50.43,28.58,39.62,44.45,73.63,63.7,63.38,20.4-10.86-1.71-40.12-16.97-87.21Z"/>
  <path class="cls-9" d="M423.86,375.83c-8.07-102.6-80.49-128.4-107.93-113.8-27.39,14.53-34.31,86.86,28.42,142.5,59.96,53.27,80.55,128.44,107.99,113.85,27.33-14.58-22.16-62.59-28.48-142.55ZM438.22,490.73c-21.56,11.47-37.75-47.63-84.92-89.51-49.24-43.78-43.88-100.59-22.31-112.07,21.56-11.47,78.59,8.84,84.86,89.46,4.96,62.86,43.94,100.64,22.37,112.11Z"/>
  <ellipse class="cls-6" cx="362.54" cy="343.3" rx="12.62" ry="34.4" transform="translate(-110.12 182.41) rotate(-24.64)"/>
  <path class="cls-1" d="M435.32,431.18c-7.54-1.67-14.9-1.42-21.87.97-10.48,3.62-18.86,11.62-24.86,22.86,28.58,39.62,44.45,73.63,63.7,63.38,20.4-10.86-1.71-40.12-16.97-87.21Z"/>
  <path class="cls-8" d="M549.73,700.93c-18.92,10.04-34.59-22.67-62.21-61.34-12.4-17.38-27.12-35.97-45.73-52.46-62.7-55.7-55.82-128.04-28.41-142.56,27.42-14.63,99.92,11.14,108.01,113.75.95,11.91,2.79,23.08,5.26,33.53,14.03,59.94,46.44,96.59,23.09,109.08Z"/>
  <path class="cls-9" d="M521.3,558.35c-8.07-102.6-80.49-128.4-107.93-113.8-27.39,14.53-34.31,86.86,28.42,142.5,59.96,53.27,80.55,128.44,107.99,113.85,27.33-14.58-22.16-62.59-28.48-142.55ZM535.67,673.24c-21.56,11.47-37.75-47.63-84.92-89.51-49.24-43.78-43.88-100.59-22.31-112.07,21.56-11.47,78.59,8.84,84.86,89.46,4.96,62.86,43.94,100.64,22.37,112.11Z"/>
  <ellipse class="cls-6" cx="459.99" cy="525.82" rx="12.62" ry="34.4" transform="translate(-177.34 239.66) rotate(-24.64)"/>
  <path class="cls-14" d="M580.17,227.95l-1.2-1.5c-18.22-22.07-23.09-50.81-15.36-76.37-12.68-10.24-26.39-14.71-36.93-13.27-8.56,1.12-17.15,6.62-24.49,15.57,1.26,16.28,7.36,32.3,18.55,45.8,7.57,9.18,16.67,16.28,26.74,21.22,10.28,5.02,21.38,7.94,32.7,8.54Z"/>
  <path class="cls-8" d="M581.6,347.99c.75-17.12,2.98-36.04,8.65-55.86,28.34-98.92-30.54-148.46-61.28-144.39-30.8,4.11-62.5,69.39-23.28,143.49,11.19,21.12,18.37,42.8,23.79,62.73,12.91,47.12,15.87,84.53,37.49,81.66,22.91-3.03,12.44-38.18,14.63-87.63Z"/>
  <path class="cls-9" d="M590.23,292.13c28.35-98.93-30.47-148.44-61.28-144.38-30.75,4.03-62.54,69.36-23.24,143.44,37.52,70.88,30.51,148.51,61.32,144.44,30.71-4.1,1.14-66.39,23.21-143.5ZM563.48,404.79c-24.22,3.2-18.69-57.83-48.23-113.57-30.81-58.25-5.9-109.59,18.32-112.79,24.21-3.2,70.52,35.78,48.19,113.51-17.36,60.62,5.94,109.66-18.28,112.86Z"/>
  <ellipse class="cls-6" cx="544.18" cy="240.2" rx="12.62" ry="34.4" transform="translate(-15.97 40.06) rotate(-4.16)"/>
  <path class="cls-1" d="M581.6,347.99c-6.48-4.2-13.46-6.55-20.83-6.74-11.09-.28-21.73,4.29-31.29,12.72,12.91,47.12,15.87,84.53,37.49,81.66,22.91-3.03,12.44-38.18,14.63-87.63Z"/>
  <path class="cls-8" d="M594.37,640.69c-20.59,2.76-24.23-31-35.61-74.89-5.69-21.7-13.23-46.01-25.64-69.51-39.28-74.09-7.51-139.44,23.3-143.47,30.71-4.05,89.64,45.49,61.26,144.41-4.15,14.4-6.49,28.31-7.71,41.5-5.44,56.85,9.4,98.7-15.6,101.97Z"/>
  <path class="cls-9" d="M617.64,497.2c28.35-98.93-30.47-148.44-61.28-144.38-30.75,4.03-62.54,69.36-23.24,143.44,37.52,70.88,30.51,148.51,61.32,144.44,30.71-4.1,1.14-66.39,23.21-143.5ZM590.89,609.86c-24.22,3.2-18.69-57.83-48.23-113.57-30.81-58.25-5.9-109.59,18.32-112.79,24.21-3.2,70.52,35.78,48.19,113.51-17.36,60.62,5.94,109.66-18.28,112.86Z"/>
  <ellipse class="cls-6" cx="571.59" cy="445.27" rx="12.62" ry="34.4" transform="translate(-30.76 42.59) rotate(-4.16)"/>
  <path class="cls-2" d="M558.76,565.79c16.27-11.18,33.43-20.18,51.21-27.08-5.44,56.85,9.4,98.7-15.6,101.97-20.59,2.76-24.23-31-35.61-74.89Z"/>
  <path class="cls-2" d="M487.52,639.59c10.83-17.18,23.91-33.2,39.12-47.74,14.03,59.94,46.44,96.59,23.09,109.08-18.92,10.04-34.59-22.67-62.21-61.34Z"/>
  <path class="cls-2" d="M453.48,723.82c3.44-16.73,8.62-33.18,15.46-49.09,35.84,30.8,66.52,49.33,54.86,67.2-11.14,17.04-33.76-.39-70.31-18.11Z"/>
  <path class="cls-14" d="M798.23,1326.54l1.55,1.14c23.23,16.71,35.25,43.27,34.27,69.96,14.87,6.68,29.26,7.52,39.09,3.45,7.99-3.26,14.9-10.76,19.73-21.29-5.36-15.43-15.33-29.37-29.58-39.58-9.65-6.95-20.26-11.51-31.25-13.73-11.21-2.24-22.7-2.25-33.8.05Z"/>
  <path class="cls-8" d="M766.34,1210.82c3.63,16.75,6.28,35.62,5.83,56.22-2.26,102.88,67.28,135.82,95.97,124.07,28.75-11.8,42.81-83-13.96-144.7-16.19-17.58-28.64-36.73-38.95-54.62-24.46-42.29-36.83-77.72-57.01-69.45-21.39,8.76-2.33,40.09,8.13,88.47Z"/>
  <path class="cls-9" d="M772.19,1267.03c-2.27,102.89,67.2,135.83,95.96,124.06,28.71-11.71,42.86-82.97-13.98-144.63-54.31-59.02-67.25-135.88-96.02-124.11-28.66,11.77,15.77,64.5,14.03,144.69ZM769.43,1151.28c22.61-9.25,32.78,51.17,75.51,97.59,44.6,48.5,33.56,104.49,10.95,113.74-22.61,9.25-77.3-16.68-75.46-97.53,1.38-63.04-33.62-104.55-11.01-113.79Z"/>
  <ellipse class="cls-6" cx="829.93" cy="1305.55" rx="12.62" ry="34.4" transform="translate(-377.8 338.79) rotate(-18.88)"/>
  <path class="cls-1" d="M766.34,1210.82c7.33,2.42,14.68,2.91,21.86,1.23,10.79-2.55,19.93-9.67,27.03-20.25-24.46-42.29-36.83-77.72-57.01-69.45-21.39,8.76-2.33,40.09,8.13,88.47Z"/>
  <path class="cls-8" d="M683.83,1003.45c5.48,20.46,10.26,44.73,9.64,72.22-2.26,102.88,67.28,135.82,96.08,124.08,28.69-11.75,42.81-83-13.96-144.7-16.99-18.43-29.95-38.68-40.62-57.38-23.36-41.08-35.68-74.74-55.46-66.71-18.85,7.68-6.08,33.21,4.32,72.48Z"/>
  <path class="cls-9" d="M693.56,1075.66c-2.27,102.89,67.2,135.83,95.96,124.06,28.71-11.71,42.86-82.97-13.98-144.63-54.31-59.02-67.25-135.88-96.02-124.11-28.66,11.77,15.77,64.5,14.03,144.69ZM690.8,959.9c22.61-9.25,32.78,51.17,75.51,97.59,44.6,48.5,33.56,104.49,10.95,113.74-22.61,9.25-77.3-16.68-75.46-97.53,1.38-63.04-33.62-104.55-11.01-113.79Z"/>
  <ellipse class="cls-6" cx="751.3" cy="1114.18" rx="12.62" ry="34.4" transform="translate(-320.11 303.05) rotate(-18.88)"/>
  <path class="cls-14" d="M1069.16,1141.27l.65,1.81c9.28,27.07,31.24,46.25,57.07,53.02,2.1,16.17-1.26,30.18-8,38.42-5.43,6.71-14.61,11.15-26.08,12.73-13.22-9.59-23.68-23.16-29.34-39.76-3.86-11.25-5.16-22.72-4.11-33.89,1.09-11.38,4.41-22.38,9.81-32.34Z"/>
  <path class="cls-8" d="M967.59,1077.3c14.99,8.31,32.28,16.3,52.14,21.83,99.14,27.56,110.59,103.66,91.04,127.73-19.61,24.11-91.83,16.99-134.49-55.18-12.15-20.58-26.88-38.04-41.03-53.08-33.41-35.64-63.76-57.72-50.01-74.65,14.56-17.94,39.05,9.36,82.35,33.35Z"/>
  <path class="cls-9" d="M885.26,1043.9c-19.58,24.14,50.26,58.74,91.07,127.79,42.61,72.23,114.91,79.28,134.42,55.18,19.58-24.14,8.12-100.16-91.03-127.72-77.27-21.51-114.91-79.28-134.46-55.25ZM1015.45,1106.47c77.93,21.6,86.95,81.45,71.56,100.42-15.39,18.97-72.18,13.36-105.72-43.36-32.08-54.32-86.99-81.52-71.6-100.49,15.39-18.97,45.01,26.53,105.76,43.43Z"/>
  <ellipse class="cls-6" cx="1039.9" cy="1165.56" rx="12.62" ry="34.4" transform="translate(-513.39 1330.49) rotate(-54.32)"/>
  <path class="cls-1" d="M967.59,1077.3c.2,7.72-1.46,14.9-5.14,21.28-5.56,9.6-15.02,16.29-27.2,20.02-33.41-35.64-63.76-57.72-50.01-74.65,14.56-17.94,39.05,9.36,82.35,33.35Z"/>
  <path class="cls-8" d="M724.73,913.36c-13.48,16.64,15.63,38.29,48.3,72.81,14.68,15.5,30.12,33.5,42.73,54.93,42.67,72.21,114.98,79.31,134.48,55.18,19.61-24.11,8.19-100.2-90.97-127.79-11.51-3.21-22.11-7.16-31.9-11.59-56.15-25.25-85.91-64.07-102.64-43.55Z"/>
  <path class="cls-9" d="M724.77,913.31c-19.58,24.14,50.26,58.74,91.07,127.79,42.61,72.23,114.91,79.28,134.42,55.18,19.58-24.14,8.12-100.16-91.03-127.72-77.27-21.51-114.91-79.28-134.46-55.25ZM854.97,975.89c77.93,21.6,86.95,81.45,71.56,100.42-15.39,18.97-72.18,13.36-105.72-43.36-32.08-54.32-86.99-81.52-71.6-100.49,15.39-18.97,45.01,26.53,105.76,43.43Z"/>
  <ellipse class="cls-6" cx="879.42" cy="1034.97" rx="12.62" ry="34.4" transform="translate(-474.2 1145.71) rotate(-54.32)"/>
  <path class="cls-14" d="M1194.78,974.03l1.24,1.47c18.17,22.11,45.45,32.39,72.02,29.7,7.62,14.41,9.39,28.71,5.95,38.79-2.74,8.18-9.78,15.56-19.97,21.05-15.74-4.35-30.29-13.41-41.4-26.98-7.56-9.19-12.79-19.48-15.71-30.3-2.96-11.05-3.7-22.51-2.13-33.73Z"/>
  <path class="cls-8" d="M1077.24,949.65c16.95,2.54,35.95,3.97,56.48,2.2,102.52-8.88,139.87,58.4,129.99,87.79-9.93,29.45-80.08,48.06-145.3-4.63-18.58-15.03-38.49-26.22-57.01-35.36-43.77-21.69-79.93-31.76-72.98-52.43,7.36-21.91,39.85-4.9,88.81,2.42Z"/>
  <path class="cls-9" d="M988.43,947.18c-9.89,29.46,67.64,37.44,130.03,87.84,65.19,52.75,135.39,34.05,145.23,4.65,9.89-29.46-27.44-96.67-129.97-87.79-79.91,6.89-135.39-34.05-145.29-4.7ZM1132.29,960.23c80.56-7.04,109.96,45.87,102.18,69.03-7.78,23.15-62.94,37.77-114.21-3.62-49.06-39.66-110.01-45.92-102.24-69.08,7.78-23.15,51.44,9.1,114.27,3.67Z"/>
  <ellipse class="cls-6" cx="1175.88" cy="1007.02" rx="12.62" ry="34.4" transform="translate(-104.11 1877.89) rotate(-74.81)"/>
  <path class="cls-1" d="M1077.24,949.65c2.89,7.16,3.85,14.47,2.63,21.73-1.85,10.93-8.37,20.51-18.47,28.27-43.77-21.69-79.93-31.76-72.98-52.43,7.36-21.91,39.85-4.9,88.81,2.42Z"/>
  <path class="cls-8" d="M792.4,881.08c-6.65,19.68,25.79,29.72,66.69,49.29,20.21,9.74,42.62,21.79,63.32,38.48,65.2,52.74,135.42,34.07,145.28,4.59,9.85-29.36-27.49-96.69-130.01-87.77-14.93,1.32-29.03.95-42.21-.38-56.84-5.55-95.08-28.13-103.07-4.22Z"/>
  <path class="cls-9" d="M792.39,881.01c-9.89,29.46,67.64,37.44,130.03,87.84,65.19,52.75,135.39,34.05,145.23,4.65,9.89-29.46-27.44-96.67-129.97-87.79-79.91,6.89-135.39-34.05-145.29-4.7ZM936.26,894.07c80.56-7.04,109.96,45.87,102.18,69.03-7.78,23.15-62.94,37.77-114.21-3.62-49.06-39.66-110.01-45.92-102.24-69.08,7.78-23.15,51.44,9.1,114.27,3.67Z"/>
  <ellipse class="cls-6" cx="979.84" cy="940.86" rx="12.62" ry="34.4" transform="translate(-184.92 1639.88) rotate(-74.81)"/>
  <path class="cls-2" d="M859.09,930.37c14.09-13.82,26.21-28.94,36.38-45.08-56.84-5.55-95.08-28.13-103.07-4.22-6.65,19.68,25.79,29.72,66.69,49.29Z"/>
  <path class="cls-2" d="M773.03,986.17c18.93-7.34,37.16-17.12,54.35-29.26-56.15-25.25-85.91-64.07-102.64-43.55-13.48,16.64,15.63,38.29,48.3,72.81Z"/>
  <path class="cls-2" d="M683.83,1003.45c17.08-.17,34.22-2.11,51.14-5.77-23.36-41.08-35.68-74.74-55.46-66.71-18.85,7.68-6.08,33.21,4.32,72.48Z"/>
  <path class="cls-8" d="M1313.24,690.82c-15.51,23.96-90.3,128.77-208.86,128.25-4.81.03-9.35,1.86-12.71,5.23-18.57,19.02-88.41,79.48-187.85,35.41-22.66-10.03-46.85-25.45-72.33-48.07l-74.69-101.42-85.25-92.72c-17.27-29.28-27.83-56.03-33.35-80.09-24.2-106.15,48.45-163.08,70.73-177.71,3.96-2.65,6.62-6.76,7.57-11.47,22.19-116.47,139.38-169.81,165.86-180.44,3.56-1.42,6.4-3.96,8.43-7.25,85.82-142.4,209.8-128.82,241.88-122.52,5.15.99,10.31-.44,14.44-3.74,73.5-57.73,150.11-27.68,173.77-15.96,4.85,2.35,10.39,2.22,15.25-.07,71.38-33.52,130.43,2.22,152.84,19.52,5.86,4.54,13.81,4.54,20.1.56,38.97-24.95,85.06-17.9,85.06-17.9,0,0-1.91,46.59-33.85,80.06-5.11,5.42-6.63,13.22-3.3,19.84,12.69,25.3,36.46,90.11-10.11,153.75-3.18,4.33-4.36,9.74-2.99,14.95,6.98,25.47,21.8,106.42-48.93,167.5-4.03,3.42-6.43,8.21-6.44,13.46.04,32.69-10.36,156.98-166.56,213.95-3.61,1.36-6.65,3.66-8.73,6.89Z"/>
  <g>
    <path class="cls-12" d="M359.41,984.44l-1.24-1.5c-28.91-35.1-80.83-40.17-115.92-11.26-16.56,13.64-26.43,32.34-29.21,51.96-.69-.84-1.32-1.73-1.91-2.56q-.11-.01-.05-.06c-25.34-34.92-19.39-83.93,14.39-111.75,35.1-28.91,87.02-23.95,115.93,11.15,7.56,9.18,12.81,19.46,15.79,30.3,3.02,11,3.73,22.5,2.21,33.73Z"/>
    <path class="cls-13" d="M359.41,984.44l-1.24-1.5c-28.91-35.1-80.83-40.17-115.92-11.26-16.56,13.64-26.43,32.34-29.21,51.96-.69-.84-1.32-1.73-1.91-2.56q-.11-.01-.05-.06c-8.55-30.42.97-64.35,26.95-85.75,35.1-28.91,87.02-23.95,115.93,11.15,1.14,1.38,2.21,2.81,3.23,4.29,3.02,11,3.73,22.5,2.21,33.73Z"/>
    <path class="cls-7" d="M213.26,1022.56c-.09.38-.12.71-.21,1.08-.69-.84-1.32-1.73-1.91-2.56q-.11-.01-.05-.06c-25.34-34.92-19.39-83.93,14.39-111.75,35.1-28.91,87.02-23.95,115.93,11.15.99,1.2,1.97,2.51,2.95,3.71-29.44-31.95-79.11-35.64-113.01-7.72-31.98,26.34-39.01,71.72-18.1,106.15Z"/>
  </g>
  <g>
    <path class="cls-12" d="M411.59,1047.79l1.24,1.5c28.91,35.1,23.95,87.02-11.15,115.93-16.56,13.64-36.81,19.75-56.59,18.72.69.84,1.44,1.63,2.15,2.36q-.01.11.05.06c29.42,31.56,78.66,35.1,112.44,7.27,35.1-28.91,40.17-80.83,11.26-115.92-7.56-9.18-16.65-16.3-26.71-21.3-10.22-5.07-21.37-7.97-32.68-8.62Z"/>
    <path class="cls-13" d="M411.59,1047.79l1.24,1.5c28.91,35.1,23.95,87.02-11.15,115.93-16.56,13.64-36.81,19.75-56.59,18.72.69.84,1.44,1.63,2.15,2.36q-.01.11.05.06c28.22,14.21,63.34,11.37,89.32-10.03,35.1-28.91,40.17-80.83,11.26-115.92-1.14-1.38-2.33-2.71-3.59-3.99-10.22-5.07-21.37-7.97-32.68-8.62Z"/>
    <path class="cls-7" d="M346.2,1183.94c-.39.02-.72-.01-1.1,0,.69.84,1.44,1.63,2.15,2.36q-.01.11.05.06c29.42,31.56,78.66,35.1,112.44,7.27,35.1-28.91,40.17-80.83,11.26-115.92-.99-1.2-2.09-2.41-3.07-3.61,25.72,35.01,19.83,84.47-14.06,112.39-31.98,26.34-77.86,24.56-107.65-2.56Z"/>
  </g>
  <path class="cls-15" d="M1267.48,239.67c-.35-.42-.83-1.13-1.45-2.13.48.71.97,1.42,1.45,2.13Z"/>
  <path class="cls-9" d="M720.01,478.29c-12.69,10.45-22.93,18.99-30.13,10.25s-2.75-24.3,9.94-34.76c12.69-10.45,28.81-11.84,36.02-3.1s-3.14,17.15-15.83,27.61Z"/>
  <path class="cls-9" d="M848.57,287.11c-12.69,10.45-22.93,18.99-30.13,10.25-7.2-8.74-2.75-24.3,9.94-34.76s28.81-11.84,36.02-3.1c7.2,8.74-3.14,17.15-15.83,27.61Z"/>
  <path class="cls-9" d="M1032.36,135.71c-12.69,10.45-22.93,18.99-30.13,10.25-7.2-8.74-2.75-24.3,9.94-34.76,12.69-10.45,28.81-11.84,36.02-3.1s-3.14,17.15-15.83,27.61Z"/>
  <path class="cls-9" d="M1256.86,75.39c-11.12,3.98-20.11,7.26-22.85-.4-2.74-7.66,4.05-17.09,15.17-21.07,11.12-3.98,22.35-1,25.09,6.66,2.74,7.66-6.29,10.83-17.41,14.81Z"/>
  <path class="cls-9" d="M1426.42,88.59c-11.12,3.98-20.1,7.27-23.48-2.14-3.37-9.42,2.91-20.27,14.03-24.25,11.12-3.98,22.86.43,26.23,9.84,3.37,9.42-5.67,12.57-16.78,16.55Z"/>
  <path class="cls-4" d="M692.76,491.05c-.99-.59-2.01-1.46-2.9-2.54-7.17-8.7-2.74-24.23,9.98-34.71,12.66-10.43,28.81-11.85,35.98-3.15.89,1.08,1.55,2.25,1.94,3.34-8.09-5.42-21.84-3.16-32.88,5.93-11.1,9.14-15.89,22.15-12.12,31.13Z"/>
  <path class="cls-4" d="M821.29,299.88c-.99-.59-1.96-1.4-2.85-2.48-7.22-8.76-2.73-24.34,9.93-34.77,12.72-10.48,28.81-11.85,36.03-3.09.89,1.08,1.5,2.19,1.89,3.28-8.09-5.42-21.78-3.21-32.88,5.93-11.04,9.09-15.89,22.15-12.12,31.13Z"/>
  <path class="cls-4" d="M1005.11,148.45c-.99-.59-1.96-1.4-2.85-2.48-7.22-8.76-2.79-24.29,9.93-34.77s28.81-11.85,36.03-3.09c.89,1.08,1.5,2.19,1.89,3.27-8.09-5.42-21.84-3.16-32.88,5.93-11.1,9.14-15.89,22.15-12.12,31.13Z"/>
  <path class="cls-4" d="M1254.25,60.04c-10.24,3.7-16.85,12.07-15.62,19.31-2.11-.48-3.69-1.79-4.6-4.37-2.74-7.61,4.03-17.12,15.18-21.06,11.1-4.01,22.35-.99,25.03,6.67.04.17.14.29.13.4-4.84-3.06-12.46-3.63-20.12-.95Z"/>
  <path class="cls-15" d="M1316.41,299.07c.35.42.95,1.03,1.81,1.83-.6-.61-1.21-1.22-1.81-1.83Z"/>
  <path class="cls-4" d="M1321.96,683.93c156.2-56.97,166.61-181.26,166.56-213.95,0-5.24,2.41-10.04,6.44-13.46,70.73-61.09,55.91-142.03,48.93-167.5-1.37-5.21-.19-10.62,2.99-14.95,46.57-63.64,22.79-128.45,10.11-153.75-3.34-6.62-1.81-14.42,3.3-19.84,31.95-33.47,33.85-80.06,33.85-80.06,0,0-46.09-7.05-85.06,17.9-6.29,3.98-14.24,3.98-20.1-.56-22.4-17.29-81.46-53.04-152.84-19.52-4.86,2.29-10.39,2.42-15.25.07-23.66-11.73-100.27-41.77-173.77,15.96-4.13,3.3-9.29,4.73-14.44,3.74-32.08-6.3-156.06-19.88-241.88,122.52-2.03,3.28-4.87,5.82-8.43,7.25-26.48,10.64-143.68,63.98-165.86,180.44-.95,4.71-3.61,8.82-7.57,11.47-27.3,17.96-130.67,99.69-37.39,257.8l85.25,92.72,74.69,101.42c137.32,121.83,237.33,36.02,260.19,12.66,3.36-3.37,7.9-5.2,12.71-5.23,118.56.52,193.35-104.29,208.86-128.25,2.08-3.22,5.12-5.52,8.73-6.89ZM1409.91,587.51c-97.25,80.11-212.1-47.44-236.24-76.5,146.34,181.07,45.8,232.37,45.8,232.37-86.75,71.47-267.77-146.2-267.77-146.2,71.61,86.93,91.1,154.97,95.91,192.71,2.7,21.24-8.85,41.83-28.32,50.83-66.37,30.81-113.09-18.33-113.09-18.33,9.24-47.09-74.44-149.16-74.44-149.16l-12.16-14.76-12.16-14.76s-84.16-101.67-132.15-101.62c0,0-39.28-55.26,3.66-114.5,12.56-17.4,34.97-24.78,55.31-18.07,36.12,11.94,99.17,44.09,170.78,131.03,0,0-178.98-219.34-92.23-290.81,0,0,69.6-88.86,219.3,89.44-23.9-29.26-127.11-166.4-29.85-246.51,0,0,102.56-90.42,263.76,144.87-14.47-22.22-116.23-184.62-9.89-198.81,0,0,36.53-7.74,76.07,59.09,0,0,15.06,28.68,48.06,66.66,0,0-49.22-94.71-6.49-126.58,1.08-.89,51.5-41.52,131.57,55.67,80.06,97.19,30.53,138.9,29.45,139.79-39.47,35.83-123-30.6-123-30.6,30.96,39.66,56.22,59.93,56.22,59.93,58.02,51.6,43.43,85.98,43.43,85.98-34.28,101.66-174.2-29.31-193.24-47.77,200.08,203.27,91.69,286.61,91.69,286.61Z"/>
  <path class="cls-9" d="M977.39,790.73c-12.69,10.45-23.03,18.87-15.83,27.61,7.2,8.74,23.33,7.35,36.02-3.1,12.69-10.45,17.14-26.01,9.94-34.76s-17.44-.21-30.13,10.25Z"/>
  <path class="cls-9" d="M1189.65,701.15c-12.69,10.45-23.03,18.87-15.83,27.61s23.33,7.35,36.02-3.1c12.69-10.45,17.14-26.01,9.94-34.76-7.2-8.74-17.44-.21-30.13,10.25Z"/>
  <path class="cls-9" d="M1373.44,549.75c-12.69,10.45-23.03,18.87-15.83,27.61,7.2,8.74,23.33,7.35,36.02-3.1,12.69-10.45,17.14-26.01,9.94-34.76-7.2-8.74-17.44-.21-30.13,10.25Z"/>
  <path class="cls-9" d="M1475.62,340.94c-6.03,10.15-10.98,18.35-3.98,22.5,6.99,4.16,17.55-.7,23.59-10.85,6.03-10.15,5.26-21.75-1.73-25.9-6.99-4.16-11.83,4.1-17.87,14.25Z"/>
  <path class="cls-4" d="M959.65,815.02c.39,1.09,1.05,2.25,1.94,3.33,7.17,8.7,23.26,7.33,35.98-3.15,12.66-10.43,17.15-26.01,9.98-34.71-.89-1.08-1.91-1.95-2.9-2.54,3.77,8.98-1.08,22.04-12.12,31.13-11.1,9.14-24.79,11.35-32.88,5.93Z"/>
  <path class="cls-4" d="M1171.89,725.48c.39,1.09,1,2.2,1.89,3.28,7.22,8.76,23.37,7.34,36.03-3.09,12.72-10.48,17.15-26.01,9.93-34.77-.89-1.08-1.86-1.89-2.85-2.48,3.77,8.98-1.02,21.99-12.12,31.13-11.04,9.09-24.79,11.35-32.88,5.93Z"/>
  <path class="cls-4" d="M1355.72,574.05c.39,1.09,1,2.2,1.89,3.28,7.22,8.76,23.31,7.39,36.03-3.09,12.66-10.43,17.15-26.01,9.93-34.77-.89-1.08-1.86-1.89-2.85-2.48,3.77,8.98-1.08,22.04-12.12,31.13-11.1,9.14-24.79,11.35-32.88,5.93Z"/>
  <path class="cls-4" d="M1490.19,346.45c-5.6,9.34-15.07,14.23-21.94,11.63.07,2.16,1.05,3.97,3.4,5.35,6.94,4.15,17.57-.68,23.58-10.86,6.06-10.13,5.25-21.75-1.75-25.85-.16-.07-.26-.19-.37-.2,2.08,5.34,1.18,12.93-2.92,19.93Z"/>
  <path class="cls-4" d="M1407.84,91.95c-2.14-.76-3.85-2.47-4.93-5.5-3.34-9.43,2.95-20.26,14.05-24.26,10.63-3.72,21.76,0,25.68,8.56-5.3-3.99-13.09-5.13-20.64-2.44-10.87,3.92-17.07,14.36-14.16,23.65Z"/>
  <path class="cls-9" d="M1495.13,171.99c-6.03,10.15-10.99,18.34-2.39,23.45,8.6,5.11,20.46,1.03,26.49-9.12,6.03-10.15,3.96-22.52-4.64-27.63-8.6-5.11-13.43,3.15-19.46,13.3Z"/>
  <path class="cls-4" d="M1488.27,189.59c.34,2.24,1.69,4.25,4.46,5.9,8.62,5.08,20.45.98,26.51-9.15,5.69-9.72,4.16-21.35-3.48-26.84,2.9,5.97,2.53,13.83-1.56,20.72-5.93,9.92-17.37,14-25.92,9.37Z"/>
  <path class="cls-3" d="M1321.96,683.93c156.2-56.97,166.61-181.26,166.56-213.95,0-5.24,2.41-10.04,6.44-13.46,70.73-61.09,55.91-142.03,48.93-167.5-1.37-5.21-.19-10.62,2.99-14.95,46.57-63.64,22.79-128.45,10.11-153.75-3.34-6.62-1.81-14.42,3.3-19.84,31.95-33.47,33.85-80.06,33.85-80.06,0,0-46.09-7.05-85.06,17.9-6.29,3.98-14.24,3.98-20.1-.56-22.4-17.29-81.46-53.04-152.84-19.52-4.86,2.29-10.39,2.42-15.25.07-23.66-11.73-100.27-41.77-173.77,15.96-4.13,3.3-9.29,4.73-14.44,3.74-32.08-6.3-156.06-19.88-241.88,122.52-2.03,3.28-4.87,5.82-8.43,7.25-26.48,10.64-143.68,63.98-165.86,180.44-.95,4.71-3.61,8.82-7.57,11.47-27.3,17.96-130.67,99.69-37.39,257.8l85.25,92.72,74.69,101.42c137.32,121.83,237.33,36.02,260.19,12.66,3.36-3.37,7.9-5.2,12.71-5.23,118.56.52,193.35-104.29,208.86-128.25,2.08-3.22,5.12-5.52,8.73-6.89ZM1304.07,669.67c-14.48,22.4-84.41,120.4-195.24,119.85-4.48.06-8.73,1.75-11.85,4.93-9.74,9.94-34.52,32.06-70.74,42.37-2.19,1.5-4.46,2.77-6.95,3.91-66.37,30.81-113.09-18.33-113.09-18.33.12-.71.25-1.41.32-2.18-16.85-9.08-34.43-21.38-52.74-37.62l-69.81-94.76-79.65-86.66c-12.43-21.08-21.14-40.7-26.83-58.97-.77-.07-1.48-.09-2.2-.1,0,0-39.28-55.26,3.66-114.5,1.6-2.22,3.28-4.21,5.17-6.07,17.05-33.58,43.51-53.67,55.13-61.32,3.72-2.46,6.19-6.3,7.11-10.69,20.68-108.88,130.25-158.76,155.01-168.68,3.33-1.33,5.93-3.68,7.83-6.75,80.28-133.11,196.12-120.37,226.09-114.55,4.82.96,9.65-.39,13.48-3.45,68.72-53.99,140.33-25.87,162.41-14.95,4.54,2.2,9.74,2.05,14.25-.06,26.19-12.21,50.61-14.6,71.88-11.88,17.6-2.11,44.41,2.69,78.52,33.21,3.87.54,7.87-.34,11.29-2.55,36.38-23.32,79.48-16.73,79.48-16.73,0,0-1.78,43.56-31.63,74.8-2.82,2.93-4.46,6.69-4.67,10.59,23.42,39.32,23,66.55,17.56,83.42-1.41,21.4-8.43,44.91-25.43,68.28-2.93,4.02-4.08,9.1-2.79,13.98,6.48,23.76,20.38,99.43-45.77,156.54-3.73,3.17-5.99,7.65-5.96,12.57-.02,30.53-9.7,146.66-155.71,199.98-3.38,1.27-6.18,3.38-8.13,6.39Z"/>
  <path class="cls-2" d="M903.81,859.71c-22.66-10.03-46.85-25.45-72.33-48.07l-74.69-101.42-85.25-92.72c-17.27-29.28-27.83-56.03-33.35-80.09,65.88,2.22,140.33,41,196.27,108.92,55.95,67.91,79.71,148.35,69.34,213.39Z"/>
  <path class="cls-6" d="M934.7,700.04c-21.33,17.57-38.57-29.24-75.5-74.08-36.94-44.84-79.58-70.72-58.25-88.29,21.33-17.57,68.57,4.53,105.5,49.37s49.59,95.43,28.25,113Z"/>
  <path class="cls-6" d="M1083.28,577.64c-21.33,17.57-38.57-29.24-75.5-74.08-36.94-44.84-79.58-70.72-58.25-88.29,21.33-17.57,68.57,4.53,105.5,49.37,36.94,44.84,49.59,95.43,28.25,113Z"/>
  <path class="cls-6" d="M1247.87,442.06c-21.33,17.57-38.57-29.24-75.5-74.08-36.94-44.84-79.58-70.72-58.25-88.29s68.57,4.53,105.5,49.37c36.94,44.84,49.59,95.43,28.25,113Z"/>
  <path class="cls-6" d="M1289.19,135.47c21.33-17.57,38.57,29.24,75.5,74.08,36.94,44.84,79.58,70.72,58.25,88.29-21.33,17.57-68.57-4.53-105.5-49.37-36.94-44.84-49.59-95.43-28.25-113Z"/>
  <path class="cls-6" d="M1426.39,105.65c8.31-6.84,15.02,11.39,29.41,28.85,14.38,17.46,30.99,27.54,22.69,34.38-8.31,6.84-26.7-1.76-41.09-19.23-14.38-17.46-19.31-37.16-11-44.01Z"/>
  <path class="cls-8" d="M600.38,974.02c-37.96-2.56-74.81-20.15-100.85-51.77-26.1-31.68-36.3-71.21-31.5-108.9,37.91,2.5,74.82,20.04,100.91,51.72,26.1,31.68,36.24,71.26,31.44,108.95Z"/>
  <circle class="cls-8" cx="458.63" cy="955.89" r="142.89"/>
  <path class="cls-9" d="M600.38,974.02c-37.96-2.56-74.81-20.15-100.85-51.77-26.1-31.68-36.3-71.21-31.5-108.9,37.91,2.5,74.82,20.04,100.91,51.72,26.1,31.68,36.24,71.26,31.44,108.95Z"/>
  <g>
    <circle class="cls-9" cx="399.03" cy="916.38" r="47.01"/>
    <circle class="cls-5" cx="398.55" cy="921.32" r="43.5"/>
    <circle cx="396.25" cy="923.21" r="25.3"/>
    <circle class="cls-10" cx="396.25" cy="923.21" r="14.68"/>
    <path class="cls-16" d="M426.21,954.94c-1.56,1.29-3.22,2.45-4.92,3.45,12.31-13.66,13.12-34.68,1.07-49.32-13.25-16.08-37.1-18.38-53.24-5.09-7.74,6.38-12.24,15.22-13.41,24.44-2.49-14.76,2.72-30.44,15.14-40.67,18.54-15.27,46-12.62,61.27,5.92s12.62,46-5.92,61.27Z"/>
    <circle class="cls-5" cx="421.74" cy="920.85" r="10.92"/>
    <path class="cls-12" d="M420.8,837.53c9.45,14.93,16.71,30.77,23.45,46.82,6.52,16.14,12.5,32.5,16.27,49.78-9.47-14.93-16.73-30.77-23.45-46.82-6.5-16.15-12.48-32.51-16.27-49.78Z"/>
  </g>
  <g>
    <circle class="cls-9" cx="485.99" cy="1021.94" r="47.01"/>
    <circle class="cls-5" cx="481.05" cy="1021.46" r="43.5"/>
    <circle cx="478.75" cy="1023.36" r="25.3"/>
    <circle class="cls-10" cx="478.75" cy="1023.36" r="14.68"/>
    <path class="cls-16" d="M453.34,987.87c-1.56,1.29-3.02,2.69-4.32,4.17,15.77-9.47,36.55-6.24,48.61,8.4,13.25,16.08,10.94,39.93-5.2,53.23-7.74,6.38-17.28,9.1-26.55,8.48,14.01,5.27,30.4,3.16,42.82-7.07,18.54-15.27,21.19-42.74,5.92-61.27-15.27-18.54-42.74-21.19-61.27-5.92Z"/>
    <circle class="cls-5" cx="485.94" cy="998.79" r="10.92"/>
    <path class="cls-12" d="M567.55,1015.66c-12.85-12.14-27-22.29-41.46-31.98-14.6-9.49-29.51-18.49-45.74-25.5,12.84,12.15,26.99,22.31,41.47,31.98,14.61,9.47,29.52,18.48,45.74,25.5Z"/>
  </g>
  <path class="cls-11" d="M549.51,1066.18c-60.89,50.16-150.95,41.46-201.11-19.43-50.21-60.95-41.51-151.01,19.38-201.17,24.72-20.36,54.3-31.03,84.08-32.41-21.24,3.8-41.84,13.02-59.66,27.7-55.86,46.01-63.78,128.57-17.76,184.43s128.51,63.83,184.37,17.81c17.94-14.78,30.94-33.34,38.76-53.68-7.06,29.08-23.22,56.29-48.06,76.75Z"/>
  <path class="cls-8" d="M823.65,938.01c-83.47,68.76-213.28,49.07-289.94-43.99-76.66-93.06-71.14-224.24,12.33-293,83.47-68.76,183.12-24.22,259.78,68.84,76.66,93.06,101.3,199.39,17.83,268.15Z"/>
  <path class="cls-9" d="M823.69,938c-41.34,34.05-94,46.41-146,38.9,25.83-3.85,50.52-14.22,71.58-31.57,67.55-55.65,47.65-141.67-14.43-217.03-62.03-75.29-142.7-111.36-210.25-55.71-21.06,17.35-35.96,39.6-44.69,64.21,2.64-52.42,24.85-101.74,66.19-135.79,83.45-68.75,183.07-24.22,259.73,68.83,76.65,93.05,101.33,199.41,17.88,268.16Z"/>
  <path class="cls-4" d="M823.69,938c-6.3,5.19-12.82,9.86-19.63,13.95,62.28-68.53,35.79-165.84-35.03-251.82-70.82-85.97-161.22-130.54-240.4-82.53,5.32-5.89,11.15-11.4,17.45-16.59,83.45-68.75,183.07-24.22,259.73,68.83,76.65,93.05,101.33,199.41,17.88,268.16Z"/>
  <ellipse class="cls-6" cx="634.03" cy="811.38" rx="46.31" ry="74.09" transform="translate(-371.23 588.26) rotate(-39.48)"/>
</svg>