<?xml version="1.0" encoding="UTF-8"?>
<svg id="Calque_1" xmlns="http://www.w3.org/2000/svg" xmlns:xlink="http://www.w3.org/1999/xlink" viewBox="0 0 583.4 389.97">
  <defs>
    <style>
      .cls-1 {
        fill: url(#_3-10);
      }

      .cls-2 {
        fill: url(#_5-19);
      }

      .cls-3 {
        fill: url(#_5-28);
      }

      .cls-4 {
        fill: url(#_3-2);
      }

      .cls-5 {
        fill: url(#_5-32);
      }

      .cls-6 {
        fill: url(#_3-4);
      }

      .cls-7 {
        fill: url(#_5-2);
      }

      .cls-8 {
        fill: url(#_5-27);
      }

      .cls-9 {
        fill: url(#_5-23);
      }

      .cls-10 {
        fill: url(#_3-6);
      }

      .cls-11 {
        fill: url(#_5-24);
      }

      .cls-12 {
        fill: url(#_5);
      }

      .cls-13 {
        fill: url(#_5-8);
      }

      .cls-14 {
        fill: url(#_5-10);
      }

      .cls-15 {
        fill: url(#_3-11);
      }

      .cls-16 {
        fill: url(#_5-13);
      }

      .cls-17 {
        fill: url(#_5-7);
      }

      .cls-18 {
        fill: url(#_5-31);
      }

      .cls-19 {
        fill: url(#_5-26);
      }

      .cls-20 {
        fill: url(#_3-9);
      }

      .cls-21 {
        fill: #720;
      }

      .cls-22 {
        fill: url(#_3);
      }

      .cls-23 {
        fill: url(#_3-5);
      }

      .cls-24 {
        fill: url(#_5-18);
      }

      .cls-25 {
        fill: url(#_44);
      }

      .cls-26 {
        fill: url(#_5-29);
      }

      .cls-27 {
        fill: #5e1800;
      }

      .cls-28 {
        fill: url(#_3-7);
      }

      .cls-29 {
        fill: url(#_5-33);
      }

      .cls-30 {
        fill: #2b0900;
      }

      .cls-31 {
        fill: url(#_3-8);
      }

      .cls-32 {
        fill: url(#_5-3);
      }

      .cls-33 {
        fill: url(#_3-3);
      }

      .cls-34 {
        fill: url(#_5-9);
      }

      .cls-35 {
        fill: url(#_5-21);
      }

      .cls-36 {
        fill: #d39c94;
      }

      .cls-37 {
        fill: url(#_5-30);
      }

      .cls-38 {
        fill: url(#_5-6);
      }

      .cls-39 {
        fill: url(#_5-4);
      }

      .cls-40 {
        fill: url(#_5-17);
      }

      .cls-41 {
        fill: url(#_5-15);
      }

      .cls-42 {
        fill: url(#_5-36);
      }

      .cls-43 {
        fill: url(#_5-20);
      }

      .cls-44 {
        fill: url(#_5-5);
      }

      .cls-45 {
        fill: url(#_5-11);
      }

      .cls-46 {
        fill: url(#_5-25);
      }

      .cls-47 {
        fill: url(#_5-22);
      }

      .cls-48 {
        fill: url(#_5-34);
      }

      .cls-49 {
        fill: url(#_5-14);
      }

      .cls-50 {
        fill: url(#_5-12);
      }

      .cls-51 {
        fill: url(#_5-35);
      }

      .cls-52 {
        fill: url(#_5-16);
      }
    </style>
    <linearGradient id="_5" data-name="  5" x1="11086.12" y1="-1400.86" x2="11080.73" y2="-1297.53" gradientTransform="translate(5165.36 -9910.3) rotate(107.75) scale(1 -1)" gradientUnits="userSpaceOnUse">
      <stop offset="0" stop-color="#720"/>
      <stop offset=".24" stop-color="#732000"/>
      <stop offset=".46" stop-color="#671d00"/>
      <stop offset=".68" stop-color="#541600"/>
      <stop offset=".9" stop-color="#3a0e00"/>
      <stop offset="1" stop-color="#2b0900"/>
    </linearGradient>
    <linearGradient id="_5-2" data-name="  5" x1="11080.1" y1="-1324.32" x2="11084.27" y2="-1292.41" xlink:href="#_5"/>
    <linearGradient id="_5-3" data-name="  5" x1="11078.42" y1="-1300.35" x2="11080.78" y2="-1282.32" xlink:href="#_5"/>
    <linearGradient id="_5-4" data-name="  5" x1="11067.93" y1="-1267.82" x2="11081.49" y2="-1295" xlink:href="#_5"/>
    <linearGradient id="_5-5" data-name="  5" x1="-6983.74" y1="4024.39" x2="-6989.14" y2="4127.72" gradientTransform="translate(4854.92 -6403.04) rotate(-25.61)" xlink:href="#_5"/>
    <linearGradient id="_5-6" data-name="  5" x1="-6989.76" y1="4100.93" x2="-6985.59" y2="4132.83" gradientTransform="translate(4854.92 -6403.04) rotate(-25.61)" xlink:href="#_5"/>
    <linearGradient id="_5-7" data-name="  5" x1="-6991.44" y1="4124.9" x2="-6989.08" y2="4142.93" gradientTransform="translate(4854.92 -6403.04) rotate(-25.61)" xlink:href="#_5"/>
    <linearGradient id="_5-8" data-name="  5" x1="-4327.73" y1="8108.22" x2="-4314.17" y2="8081.04" gradientTransform="translate(4898.6 -7604.4) rotate(1.73)" xlink:href="#_5"/>
    <linearGradient id="_5-9" data-name="  5" x1="11902.35" y1="-2617.11" x2="11898.05" y2="-2534.79" gradientTransform="translate(6449.89 -10366.35) rotate(107.49) scale(1 -1)" xlink:href="#_5"/>
    <linearGradient id="_5-10" data-name="  5" x1="11895.92" y1="-2542.15" x2="11899.24" y2="-2516.73" gradientTransform="translate(6449.89 -10366.35) rotate(107.49) scale(1 -1)" xlink:href="#_5"/>
    <linearGradient id="_5-11" data-name="  5" x1="11880.64" y1="-2531.83" x2="11886.22" y2="-2522.34" gradientTransform="translate(6449.89 -10366.35) rotate(107.49) scale(1 -1)" xlink:href="#_5"/>
    <linearGradient id="_3" data-name="  3" x1="11497.06" y1="6410.78" x2="11496.43" y2="6447.91" gradientTransform="translate(12188.2 -5264.64) rotate(-175.46) scale(1 -1)" gradientUnits="userSpaceOnUse">
      <stop offset="0" stop-color="#5e1800"/>
      <stop offset=".29" stop-color="#5a1600"/>
      <stop offset=".56" stop-color="#4e1300"/>
      <stop offset=".83" stop-color="#3b0d00"/>
      <stop offset="1" stop-color="#2b0900"/>
    </linearGradient>
    <linearGradient id="_5-12" data-name="  5" x1="8778.48" y1="7480.13" x2="8819.31" y2="7398.33" gradientTransform="translate(11616.63 1125.22) rotate(-135.35) scale(1 -1)" xlink:href="#_5"/>
    <linearGradient id="_5-13" data-name="  5" x1="6484.94" y1="8753.76" x2="6457.89" y2="8771.75" gradientTransform="translate(10849.7 1841.74) rotate(-118.19) scale(1 -1)" xlink:href="#_5"/>
    <linearGradient id="_5-14" data-name="  5" x1="11369.91" y1="7028.69" x2="11361.44" y2="7033.71" gradientTransform="translate(12263.85 -5135.94) rotate(-172.17) scale(1 -1)" xlink:href="#_5"/>
    <linearGradient id="_5-15" data-name="  5" x1="11372.55" y1="7036.04" x2="11367.96" y2="7041.63" gradientTransform="translate(12263.85 -5135.94) rotate(-172.17) scale(1 -1)" xlink:href="#_5"/>
    <linearGradient id="_5-16" data-name="  5" x1="12806.87" y1="4254.53" x2="12778.1" y2="4271.56" gradientTransform="translate(9969.88 -8806.33) rotate(155.94) scale(1 -1)" xlink:href="#_5"/>
    <linearGradient id="_5-17" data-name="  5" x1="11515.13" y1="6429.42" x2="11528.76" y2="6453.4" gradientTransform="translate(12188.2 -5264.64) rotate(-175.46) scale(1 -1)" xlink:href="#_5"/>
    <linearGradient id="_3-2" data-name="  3" x1="10623.07" y1="6001.09" x2="10589.08" y2="6048.58" gradientTransform="translate(11427.55 -4350.19) rotate(-172.3) scale(1 -1)" xlink:href="#_3"/>
    <linearGradient id="_3-3" data-name="  3" x1="12988.41" y1="2482.77" x2="12987.75" y2="2521.22" gradientTransform="translate(9576.75 -9193.6) rotate(145.33) scale(1 -1)" xlink:href="#_3"/>
    <linearGradient id="_3-4" data-name="  3" x1="11916.9" y1="2414.61" x2="11964.51" y2="2498.55" gradientTransform="translate(8791.88 -8641.19) rotate(144.95) scale(1 -1)" xlink:href="#_3"/>
    <linearGradient id="_3-5" data-name="  3" x1="11905.62" y1="2363.5" x2="11953.48" y2="2462.53" gradientTransform="translate(8791.88 -8641.19) rotate(144.95) scale(1 -1)" xlink:href="#_3"/>
    <linearGradient id="_3-6" data-name="  3" x1="10566.44" y1="5969.13" x2="10549.87" y2="6039.81" gradientTransform="translate(11427.55 -4350.19) rotate(-172.3) scale(1 -1)" xlink:href="#_3"/>
    <linearGradient id="_44" data-name="  44" x1="10153.19" y1="6989.62" x2="10153.35" y2="6955.41" gradientTransform="translate(11824.78 -4002.76) rotate(-165.51) scale(1 -1)" gradientUnits="userSpaceOnUse">
      <stop offset="0" stop-color="#5e1800"/>
      <stop offset=".9" stop-color="#720"/>
    </linearGradient>
    <linearGradient id="_5-18" data-name="  5" x1="13398.46" y1="1618.74" x2="13461.05" y2="1728.81" gradientTransform="translate(8645.66 -9168.69) rotate(138.71) scale(.93 -.94) skewX(-.24)" xlink:href="#_5"/>
    <linearGradient id="_5-19" data-name="  5" x1="12406.5" y1="197" x2="12469.08" y2="307.07" gradientTransform="translate(7200.57 -10131.56) rotate(124.56) scale(1 -1)" xlink:href="#_5"/>
    <linearGradient id="_5-20" data-name="  5" x1="12592.86" y1="874.36" x2="12627.1" y2="1004.32" gradientTransform="translate(7897.94 -9953.94) rotate(130.68) scale(1 -1)" xlink:href="#_5"/>
    <linearGradient id="_5-21" data-name="  5" x1="12510.32" y1="620.95" x2="12504.92" y2="724.28" gradientTransform="translate(7563.25 -10070) rotate(127.63) scale(1 -1)" xlink:href="#_5"/>
    <linearGradient id="_5-22" data-name="  5" x1="12469.99" y1="1086.64" x2="12465.66" y2="1169.59" gradientTransform="translate(7909.95 -9804.84) rotate(131.49) scale(1 -1)" xlink:href="#_5"/>
    <linearGradient id="_5-23" data-name="  5" x1="12463.98" y1="1147.16" x2="12468.15" y2="1179.06" gradientTransform="translate(7909.95 -9804.84) rotate(131.49) scale(1 -1)" xlink:href="#_5"/>
    <linearGradient id="_5-24" data-name="  5" x1="12462.3" y1="1171.13" x2="12464.66" y2="1189.16" gradientTransform="translate(7909.95 -9804.84) rotate(131.49) scale(1 -1)" xlink:href="#_5"/>
    <linearGradient id="_5-25" data-name="  5" x1="12451.81" y1="1203.66" x2="12465.37" y2="1176.48" gradientTransform="translate(7909.95 -9804.84) rotate(131.49) scale(1 -1)" xlink:href="#_5"/>
    <linearGradient id="_5-26" data-name="  5" x1="12455.6" y1="656.6" x2="12514.93" y2="664.95" gradientTransform="translate(7624.74 -9898.18) rotate(128.82) scale(1 -1)" xlink:href="#_5"/>
    <linearGradient id="_5-27" data-name="  5" x1="11568.2" y1="-986.76" x2="11563.15" y2="-890.04" gradientTransform="translate(5613.56 -10077.4) rotate(112.03) scale(1 -1)" xlink:href="#_5"/>
    <linearGradient id="_5-28" data-name="  5" x1="11563.17" y1="-915.37" x2="11567.34" y2="-883.46" gradientTransform="translate(5613.56 -10077.4) rotate(112.03) scale(1 -1)" xlink:href="#_5"/>
    <linearGradient id="_5-29" data-name="  5" x1="11561.49" y1="-891.4" x2="11563.84" y2="-873.37" gradientTransform="translate(5613.56 -10077.4) rotate(112.03) scale(1 -1)" xlink:href="#_5"/>
    <linearGradient id="_5-30" data-name="  5" x1="11550.99" y1="-858.87" x2="11564.56" y2="-886.05" gradientTransform="translate(5613.56 -10077.4) rotate(112.03) scale(1 -1)" xlink:href="#_5"/>
    <linearGradient id="_3-7" data-name="  3" x1="11951.58" y1="5731.53" x2="11950.91" y2="5771.05" gradientTransform="translate(12167.38 -5542.42) rotate(179.9) scale(1 -1)" xlink:href="#_3"/>
    <linearGradient id="_5-31" data-name="  5" x1="11963.61" y1="5752.42" x2="11975.04" y2="5772.53" gradientTransform="translate(12167.38 -5542.42) rotate(179.9) scale(1 -1)" xlink:href="#_5"/>
    <linearGradient id="_5-32" data-name="  5" x1="13197.1" y1="3077.03" x2="13240.55" y2="2989.96" gradientTransform="translate(11894.79 -6556.08) rotate(162.75) scale(1 -1)" xlink:href="#_5"/>
    <linearGradient id="_5-33" data-name="  5" x1="12011.36" y1="5852.41" x2="11982.57" y2="5871.56" gradientTransform="translate(12167.38 -5542.42) rotate(179.9) scale(1 -1)" xlink:href="#_5"/>
    <linearGradient id="_5-34" data-name="  5" x1="12014.2" y1="5882.96" x2="12005.18" y2="5888.29" gradientTransform="translate(12167.38 -5542.42) rotate(179.9) scale(1 -1)" xlink:href="#_5"/>
    <linearGradient id="_5-35" data-name="  5" x1="12017" y1="5890.78" x2="12012.11" y2="5896.73" gradientTransform="translate(12167.38 -5542.42) rotate(179.9) scale(1 -1)" xlink:href="#_5"/>
    <linearGradient id="_5-36" data-name="  5" x1="12048.07" y1="5894.47" x2="12017.44" y2="5912.6" gradientTransform="translate(12167.38 -5542.42) rotate(179.9) scale(1 -1)" xlink:href="#_5"/>
    <linearGradient id="_3-8" data-name="  3" x1="7056.13" y1="6402.34" x2="7159.67" y2="6346.63" gradientTransform="translate(9617.97 -814.29) rotate(-143.54) scale(1 -1)" xlink:href="#_3"/>
    <linearGradient id="_3-9" data-name="  3" x1="11011.61" y1="5441.25" x2="11117.05" y2="5441.25" gradientTransform="translate(11410.64 -4722.48) rotate(-176.71) scale(1 -1)" xlink:href="#_3"/>
    <linearGradient id="_3-10" data-name="  3" x1="5189.57" y1="6801.38" x2="5282.26" y2="6751.5" gradientTransform="translate(8706.1 58.48) rotate(-127.87) scale(1 -1)" xlink:href="#_3"/>
    <linearGradient id="_3-11" data-name="  3" x1="5242.67" y1="6771.89" x2="5337.06" y2="6771.89" gradientTransform="translate(8706.1 58.48) rotate(-127.87) scale(1 -1)" xlink:href="#_3"/>
  </defs>
  <g>
    <path class="cls-12" d="M467.15,219.63c1.3-2,5.25-.91,5.25-.91,0,0,54.36,20.41,56.37,21.39s1.38,7.58-.82,8.2c-2.2.63-53.19-21.26-57.63-24.01-4.44-2.75-3.16-4.67-3.16-4.67Z"/>
    <path class="cls-7" d="M527.52,242.8c.39-1.08.83-1.33,2.2-1.36,1.38-.03,19.37,2.25,21.99,2.66,2.62.41,3.25,2.41,2.58,4.52-.67,2.1-2.35,3.11-4.12,2.98-1.76-.13-19.54-5.22-21.6-6.05-2.05-.83-1.05-2.74-1.05-2.74Z"/>
    <path class="cls-32" d="M550.12,248c.35-1.63,1.44-1.8,2.11-2.02.67-.22,9.73-.75,11.49-.62s3.07,2.18,2.11,4.54c-.82,2.01-2.66,2.67-4.03,2.4-1.37-.27-9.75-1.75-10.82-2.43s-.86-1.88-.86-1.88Z"/>
    <path class="cls-39" d="M562.51,247.95c1.38-1.51,3.87-1.35,5.48-1.28,1.61.07,6.75-6.27,9.34-7.51,2.59-1.23,6.15,1.71,6.08,1.95-.07.23-.19,2.19-.97,3.04-.79.84-3.51-.09-4.96,1.83-1.45,1.92-2.6,5.1-4.54,6.15-1.95,1.05-7.57-.1-9.38-.68-1.81-.58-2-2.43-1.03-3.49Z"/>
  </g>
  <g>
    <g>
      <path class="cls-44" d="M297.43,259.29c-1.8,1.56-.18,5.32-.18,5.32,0,0,27.66,51.05,28.9,52.92s7.69.33,8.01-1.94c.32-2.26-28.33-49.78-31.67-53.81s-5.06-2.5-5.06-2.5Z"/>
      <path class="cls-38" d="M328.64,315.93c-1.02.53-1.2,1-1.04,2.37.16,1.37,4.88,18.88,5.64,21.42.76,2.54,2.84,2.89,4.83,1.93,1.99-.95,2.76-2.76,2.39-4.48s-7.85-18.65-8.95-20.57-2.86-.67-2.86-.67Z"/>
      <path class="cls-17" d="M336.88,337.61c-1.57.57-1.59,1.67-1.71,2.36s.59,9.74.96,11.47,2.58,2.74,4.79,1.47c1.88-1.08,2.28-3,1.83-4.32s-3.07-9.42-3.89-10.38-1.98-.59-1.98-.59Z"/>
      <path class="cls-13" d="M339.49,349.78c-1.88.8-2.56,3.2-3.03,4.74s-8.17,4.28-10.19,6.3c-2.03,2.03-.44,6.37-.19,6.38.25,0,2.13.56,3.19.1,1.06-.46,1.08-3.34,3.38-4.07,2.29-.73,5.67-.75,7.31-2.24,1.64-1.49,2.43-7.17,2.48-9.07.06-1.9-1.62-2.7-2.94-2.13Z"/>
    </g>
    <g>
      <path class="cls-34" d="M389.21,198.3c1.08-2.57,2.79-1.47,2.79-1.47,0,0,40.65,14.9,42.26,15.67s2.51,7.15.77,7.66c-1.75.51-39.48-16.21-43.03-18.39-3.55-2.18-2.78-3.47-2.78-3.47Z"/>
      <path class="cls-14" d="M434.45,214.41c1.3-.93,21.97-5,23.8-4.95,1.84.05,7.96,3.3,5.77,6.06-2.19,2.75-27.82,2.87-29.23,2.56-1.41-.3-1.37-2.94-.35-3.68Z"/>
      <path class="cls-45" d="M459.76,211.95c.3-.63,9.43-9.98,10.81-10.7,1.38-.72,6.88,1.01,7.03,2.85.19,2.32-13.28,9.14-14.54,9.72-1.25.58-3.74-.94-3.31-1.87Z"/>
    </g>
    <g>
      <path class="cls-22" d="M223.83,220.14c5.76,10.92,9.75,34.52,9.46,36.2-.29,1.67-7.87,2-9.98,1.37-2.11-.63-20.94-38.5-21.22-45.01-.28-6.51,21.74,7.45,21.74,7.45Z"/>
      <path class="cls-50" d="M162.41,219.89c-10.62-2.25-56.46,35.17-74.19,44.21-2.51,1.28-1.5,2.77,1.4,3.12s18.13-4.05,36.43-15.58c18.3-11.53,28.31-23.68,32.75-26.42,4.44-2.74,7.44-3.95,7.44-3.95l-3.83-1.37Z"/>
      <path class="cls-16" d="M90.21,266.46c-1.58.69-7.32-.39-17.24,3.88-9.92,4.27-19.61,9.86-22.73,10.88-3.12,1.02-4.77-4.51-2.64-5.91,2.13-1.4,19.29-10.87,27.34-12.69,8.05-1.83,15.17.23,16.34.46,1.17.23,1.59,2.23-1.06,3.39Z"/>
      <path class="cls-49" d="M51.05,279.43c-.1.91-3.66,7.18-4.83,8.34-1.17,1.16-4.99-1.54-5.29-3.29-.3-1.75,5.44-6.55,6.81-7.21,1.37-.66,3.43.98,3.31,2.16Z"/>
      <path class="cls-41" d="M45.15,287.43c-.29.54-4.62,6.43-5.52,6.22-.9-.2-4.2-2.44-4.59-4.43-.39-1.99,5.69-4.42,6.56-4.53.87-.11,2.08.09,2.93.95s.62,1.79.62,1.79Z"/>
      <path class="cls-52" d="M37.47,290.05c1.08.15,1.91.86,2.25,1.68s-.26,8.71-2.7,11.44c-2.44,2.73-10.11,3.28-12.42,4.05s-4.18,2.89-4.45,4.35c-.27,1.47-.43,2.8-.64,2.9-.21.09-.77,1.1-1.33.6-.56-.51-2.15-4.37-2.82-6.98-.76-2.98,2.9-6.28,5.44-7,2.54-.71,9.4-2.08,10.98-2.7,1.58-.62,3.64-6.93,4.08-7.63.44-.7,1.61-.72,1.61-.72Z"/>
      <path class="cls-40" d="M233.29,256.34c-.35-5.21-40.12-30.7-60.02-36.41-19.9-5.72-20.73,7.63-19.65,8.53,1.09.9,6.52-2.49,21.14,5.65,14.62,8.14,34.57,23.88,45.64,27.3,11.06,3.42,13.02-3.11,12.89-5.07Z"/>
    </g>
    <path class="cls-4" d="M116.15,175.35s-12.87,9.47-21.91,20.74c-7.98,9.96-8.96,16.1-8.6,16.61.36.51,2.84,1.19,3.27,1.24s30.77-5.31,42.63-6.12c12.19-.84,13.49-2.46,13.49-2.46l-28.88-30.01Z"/>
    <path class="cls-30" d="M212.79,180.11c6.18,2.43,3.96,11.25,1.53,15.64-2.43,4.39-7.42,9.9-11.85,8.78-4.43-1.12-5.92-7.92-1.22-17.2,4.7-9.28,9.14-8.16,11.54-7.22Z"/>
    <path class="cls-33" d="M339.42,260.31c-11.14-5.9-25.15-14.14-29.05-10.94-3.9,3.2,1.03,16.59,2.57,18.81,1.54,2.22,26.54,1.52,31.12-1.18,4.58-2.69-4.63-6.7-4.63-6.7Z"/>
    <path class="cls-30" d="M328.43,227.44c7.86-4.97,16,4.83,18.96,11.21,2.96,6.39,5.06,16.58.13,20.67-4.94,4.09-13.86.14-20.47-12.86-6.61-13-1.67-17.09,1.38-19.03Z"/>
    <path class="cls-6" d="M348.75,255.19c-20.56-41.71,19.59-75.31,64.64-81.74,45.05-6.43,91.85,23.86,98.03,47.02,6.18,23.16-44.05,48.71-87.52,55.19-43.47,6.48-65.08-.04-75.15-20.47Z"/>
    <path class="cls-23" d="M450.44,175.66c10.12,14.36,11.01,45.52,3.67,67.76-7.35,22.24-16.43,29.61-16.43,29.61l-20.46,3.55s-21-12.76-36.69-47.22c-15.68-34.46-11.34-39.25-11.34-39.25l6.02-3.17s-3.71,11.59,11.88,43.23c15.59,31.63,35.3,41.94,37.04,42.52,1.74.58,10.67-1.85,10.67-1.85,0,0,15.1-16.82,18.14-49.83,3.04-33.01-7.6-46.47-7.6-46.47l5.09,1.13Z"/>
    <path class="cls-10" d="M111.32,180.41c14.82-23.78,32.32-42.65,68.18-38.12,35.86,4.53,34.23,33.1,24.21,48.06-10.02,14.96-52.98,20.35-70.98,16.31-18.01-4.04-28.76-14.45-21.4-26.25Z"/>
    <path class="cls-21" d="M187.53,170.2c-1.21-24.93-34.54-12.86-52.46,1.5-17.92,14.36-15.09,26.1-13.26,28.49s10.39,8.13,34.38,3.72c23.99-4.41,31.89-22.5,31.34-33.72Z"/>
    <path class="cls-30" d="M185.12,162.24c6.43,9.19-19.66,27.09-28.38,18.23-8.72-8.86,20.4-29.62,28.38-18.23Z"/>
    <path class="cls-27" d="M203.88,197.17c8.56-17.99,26.64-17.62,38.28-11.15,11.65,6.47,27.2,17.75,37.61,42.15,10.41,24.41.87,29.72-2.56,31.53-3.43,1.81-24.06-3.49-48.39-18.91-24.32-15.42-33.14-26.41-24.94-43.63Z"/>
    <path class="cls-25" d="M225.53,182.94c7.95-2.08,29.25,10.93,40.71,25.19,11.46,14.25,11.1,20.38,11.1,20.38,0,0-4.45-.61-7.34-1.19-2.89-.58-32.54-14.02-43.16-26.56-10.62-12.54-4.31-17.03-1.31-17.81Z"/>
    <path class="cls-27" d="M274.07,247.36c1.13-17.47,38.62-28.11,48.38-26.48,12.21,2.05,19.47,29.64,9.6,43.04-8.09,10.99-41.86,6.81-48.88.62-7.02-6.19-9.37-13.07-9.1-17.18Z"/>
    <path class="cls-24" d="M265.48,192.55c4.38,12.21,59.85,70.12,61,79.98,1.14,9.86-10.4,12.03-21.29,2.99-10.88-9.03-49.94-72.69-47.49-80.47,2.45-7.78,5.15-9.82,7.78-2.51Z"/>
    <g>
      <path class="cls-2" d="M314.88,175.2c3.61,13.42,57.79,79.84,58.15,90.49.37,10.65-12.14,12.04-22.97,1.5-10.83-10.54-48.94-77.6-45.65-85.73,3.29-8.13,8.31-14.29,10.47-6.26Z"/>
      <path class="cls-43" d="M312.74,171.49c7.36-.79,122.22,40.65,124.14,42.3s-.63,9.49-8.3,12.09-113.21-43.37-117.05-46.67,1.21-7.72,1.21-7.72Z"/>
      <path class="cls-35" d="M430.19,221.01c2.38-2.57,3.92-.53,3.92-.53,0,0,41.46,35.12,43.03,36.73,1.56,1.61-.13,9.51-2.41,9.35-2.28-.16-39.52-36.16-42.76-40.26-3.24-4.1-1.78-5.29-1.78-5.29Z"/>
      <g>
        <path class="cls-47" d="M473.18,259.07c2-1.31,5.17,1.28,5.17,1.28,0,0,32.18,31.05,33.63,32.76,1.45,1.71-1.79,7.49-4.06,7.18-2.26-.31-30.77-31.36-33.73-35.67s-1.01-5.55-1.01-5.55Z"/>
        <path class="cls-9" d="M509.76,295.08c.79-.83,1.29-.88,2.56-.36,1.27.53,16.82,9.86,19.06,11.29,2.23,1.43,2,3.52.54,5.17-1.46,1.65-3.41,1.9-4.97,1.07-1.56-.83-15.79-12.65-17.33-14.24s.14-2.94.14-2.94Z"/>
        <path class="cls-11" d="M528.35,308.94c.98-1.35,2.04-1.07,2.74-1,.7.07,9.21,3.23,10.77,4.06,1.56.83,1.93,3.23.1,5.01-1.56,1.52-3.51,1.37-4.66.58-1.15-.8-8.22-5.53-8.92-6.58-.7-1.06-.03-2.07-.03-2.07Z"/>
        <path class="cls-46" d="M539.71,313.87c1.87-.82,4.08.32,5.53,1.04s8.71-3.02,11.57-3.11,4.94,4.04,4.78,4.23c-.16.18-1.06,1.93-2.11,2.39s-3.18-1.5-5.28-.33c-2.1,1.17-4.43,3.62-6.64,3.8-2.21.18-6.89-3.14-8.31-4.4s-.86-3.03.46-3.61Z"/>
      </g>
    </g>
    <path class="cls-19" d="M261.33,187.35c5.24,2.65,111.94,79.33,115.03,83.71,3.09,4.38-1.37,14.23-7.19,12.07-5.83-2.16-107-82.18-110.17-84.66-3.17-2.48-.36-12.48,2.32-11.12Z"/>
    <g>
      <path class="cls-8" d="M373.67,275.51c1.45-1.9,3.68-1.52,3.68-1.52,0,0,49.93,25,51.86,26.12,1.94,1.13.81,7.66-1.43,8.12-2.24.46-48.8-23.71-53.1-26.67-2.93-2.02-1.01-6.06-1.01-6.06Z"/>
      <path class="cls-3" d="M427.76,302.7c.47-1.05.93-1.26,2.3-1.19,1.37.07,19.15,3.69,21.73,4.29,2.58.6,3.06,2.65,2.23,4.7-.83,2.05-2.58,2.93-4.33,2.66-1.75-.27-19.1-6.67-21.09-7.65-1.99-.98-.85-2.81-.85-2.81Z"/>
      <path class="cls-26" d="M449.91,309.58c.47-1.6,1.57-1.69,2.25-1.85s9.76-.02,11.51.24c1.75.27,2.9,2.4,1.77,4.69-.96,1.95-2.85,2.46-4.2,2.09-1.35-.37-9.59-2.47-10.61-3.23-1.02-.76-.72-1.94-.72-1.94Z"/>
      <path class="cls-37" d="M462.27,310.44c1.49-1.4,3.96-1.05,5.56-.87,1.6.19,7.2-5.75,9.87-6.79,2.67-1.04,6.01,2.17,5.92,2.39-.09.23-.35,2.17-1.2,2.96s-3.5-.36-5.09,1.45c-1.59,1.81-2.97,4.89-4.99,5.79-2.02.9-7.54-.67-9.3-1.38-1.76-.71-1.82-2.57-.77-3.55Z"/>
    </g>
    <g>
      <path class="cls-28" d="M231.78,214.1c7.05,11.09,13.31,35.78,13.15,37.58-.16,1.8-8.18,2.8-10.47,2.31s-25.54-39.04-26.39-45.92c-.86-6.88,23.71,6.03,23.71,6.03Z"/>
      <path class="cls-18" d="M244.94,251.69c-.67-5.49-37.11-29.12-54.84-33.48-17.73-4.36-17.51,9.88-16.5,10.73,1.01.86,5.5-3.2,18.81,4.18,13.31,7.38,31.79,22.36,41.67,25.04,9.87,2.68,11.12-4.42,10.87-6.48Z"/>
      <path class="cls-5" d="M173.35,222.88c-7.43,8.85,4.72,70.64,4.31,91.82-.06,3,1.85,2.79,3.63.25,1.78-2.54,5.28-19.05,3.63-42.01s-8.04-38.45-8.39-43.99c-.35-5.54.02-8.97.02-8.97l-3.2,2.91Z"/>
      <path class="cls-29" d="M180.88,314.01c-.14,1.83-4.04,6.67-5,18.13s-.57,23.36-1.18,26.79c-.61,3.44-6.62,2.22-6.87-.48-.25-2.7-.53-23.56,1.79-32.03s7.82-14.13,8.62-15.11,2.89-.37,2.65,2.7Z"/>
      <path class="cls-48" d="M172.74,359.92c.03.97-2.81,8.1-3.87,9.5-1.06,1.39-5.48-.89-6.06-2.69-.58-1.8,4.77-7.7,6.12-8.6,1.35-.9,3.76.53,3.81,1.79Z"/>
      <path class="cls-51" d="M167.7,369.22c-.23.61-3.93,7.45-4.91,7.37-.98-.08-4.79-1.96-5.49-4-.7-2.04,5.35-5.49,6.25-5.74.9-.25,2.21-.21,3.23.57,1.02.78.92,1.8.92,1.8Z"/>
      <path class="cls-42" d="M160.25,373.65c.98.61,1.49,1.66,1.46,2.61s-4.02,8.36-7.58,9.96-11.25-1.18-13.83-1.42-5.32,1-6.21,2.31c-.9,1.31-1.63,2.54-1.88,2.54s-1.23.74-1.55,0c-.33-.74-.21-5.18.27-8,.55-3.23,5.53-4.86,8.32-4.45,2.78.4,10.05,2.04,11.85,2.12s6.54-5.17,7.27-5.66,1.88,0,1.88,0Z"/>
    </g>
    <g>
      <path class="cls-31" d="M146.48,158.73c.33-3.51,5.08-23.39-11.4-43.72-15.78-19.46-29.3-31.78-31.23-30.8-1.93.98-3.36,4.72-1.6,7.21,1.77,2.48,18.6,13.07,31.52,29.49,12.91,16.42,9.69,33.59,10.09,35.59.4,2,2.62,2.24,2.62,2.24Z"/>
      <path class="cls-20" d="M104.05,88.72s-3.47.8-7.3-.94c-3.83-1.75-26.73-12.09-46.89-17.62-20.16-5.53-40.69-.11-44.47-.46s-5.9-1.04-5.29-3.05c.61-2.01,23.45-8.25,50.2-1.72,26.76,6.52,47.93,19.43,50.16,20.13,2.23.71,3.46,1.01,3.46,1.01,0,0,.45.2.49,1.56.04,1.36-.37,1.1-.37,1.1Z"/>
    </g>
    <g>
      <path class="cls-1" d="M154.49,153.9c1.13-2.95,10.03-18.93.74-40.44-8.89-20.59-17.57-34.48-19.47-34.1-1.9.38-4.04,3.26-3.12,5.82.92,2.57,12.88,15.76,20.04,33.04,7.16,17.27.23,31.3.09,33.11-.14,1.82,1.72,2.57,1.72,2.57Z"/>
      <path class="cls-15" d="M133.81,83.1s-2.59-1.86-3.66-5.48c-1.08-3.61-7.6-25.14-15.75-41.99-8.15-16.85-23.9-27.49-25.89-30.24s-2.77-4.59-1.06-5.36c1.71-.77,19.37,10.94,30.74,32.82,11.37,21.88,15.15,43.75,15.98,45.67.84,1.92,1.36,2.93,1.36,2.93,0,0,.13.42-.76,1.25-.89.83-.96.4-.96.4Z"/>
    </g>
    <path class="cls-36" d="M179.95,161.69c-1.38-2.42-9.99.05-9.46,3.84.54,3.79,11.37-.47,9.46-3.84Z"/>
  </g>
</svg>