<?xml version="1.0" encoding="UTF-8"?>
<svg id="Layer_1" xmlns="http://www.w3.org/2000/svg" viewBox="0 0 2314.86 1280.54">
  <defs>
    <style>
      .cls-1 {
        fill: #8e775d;
      }

      .cls-2 {
        fill: #6d3e1c;
      }

      .cls-3 {
        fill: #644e48;
      }

      .cls-4 {
        fill: #ebae70;
      }

      .cls-5 {
        fill: #8c5421;
      }

      .cls-6 {
        fill: #c37c4c;
      }

      .cls-7 {
        fill: #fefefe;
      }

      .cls-8 {
        fill: #4f3933;
      }
    </style>
  </defs>
  <path class="cls-2" d="M1168.38,983c17.6-.02,35.45,2.2,52.95,1.57,47.11,1.12,93.52.97,140.62-.5-11.31,19.52-25.56,45.65-48.97,51.64-12.31,3.15-26.3,2.65-38.95,3.82-35.48,3.28-71.71,8.94-103.59,25.62,13.3-20.72,28.69-37.84,49.22-51.69-26.06,6.47-51.8,13.85-77.6,21.28,8.32-17.47,18.34-34.14,26.33-51.73Z"/>
  <path class="cls-2" d="M39,661.37c-15.81-14.43-35.32-30.23-38.6-52.77-1.37-9.41.77-18.19,6.46-25.82,14.76-19.77,39.09-23.79,61.82-26.85,12.33,3,25,1.55,37.47,4.83,20.32,5.35,28.5,14.2,44.97,20.87,11.37,13.08,20.74,26.82,18.72,45.12-14.08,41.73-66.77,59.84-106.37,45.1-8.15-3.13-16.21-8-24.46-10.5Z"/>
  <path class="cls-5" d="M70.38,571.79c13.1-.44,25.36-.17,37.66,5.09,7.93,3.39,18.92,10.65,21.89,19.22,3.77,12.49-14.57,17.71-23.45,20.09-13.38.66-26.38-.53-38.7-6.2-7.61-3.5-18.65-10.48-21.28-19-3.16-12.13,15.29-16.97,23.88-19.2Z"/>
  <path class="cls-2" d="M307.99,1067.5c23.69-65.64,89.94-76.25,150.55-82.39,19.53,3.09,39.46,2.52,58.74,7.28,19.67,4.48,38.57,12.3,55.65,23.03,5.13,3.22,10.09,6.69,14.86,10.41,6.28,4.86,11.78,10.51,17.87,15.5-5.58,9.56-8.53,22.32-16.74,30-23.28,21.76-99.64,22.89-132.12,30.8-16.23,3.95-30.42,10.41-45.12,18.25,12.54-28.08,26.59-42.7,53.65-57.11-46.46,7.1-80.23,18.15-121,41.7,15.86-31.7,37.64-53.7,69.6-68.59-39.95,1.27-71.44,11.49-105.93,31.13Z"/>
  <path class="cls-8" d="M440.02,796.74l9.79-.33c12.31,17.13,31.24,33.2,49.1,44.32,54.74,40.26,112.61,68.32,177.45,88.45-8.67,16.24-20.79,31.78-31.01,47.17-14.01,21.18-27.24,42.84-39.68,64.98-6.09-4.99-11.59-10.65-17.87-15.5-4.78-3.72-9.74-7.19-14.86-10.41-17.08-10.73-35.98-18.55-55.65-23.03-19.28-4.76-39.21-4.19-58.74-7.28,27.22-62.69-1.09-127.12-18.52-188.37Z"/>
  <path class="cls-2" d="M876.6,1111.29c56.23,1.45,121.2,20.34,157.48,65.89-28.26,50.19-45.26,47.17-96.75,59.29-25.81,7.17-47.69,17.62-69,33.83,9.35-26.45,25.9-43.8,46.16-62.08-42.12,7.7-88.48,24.18-123.31,49.54,12.48-34.13,36.95-54.95,67.84-71.93-50.02,10.13-82.35,23.33-122.17,55.43,9.97-31.41,25.48-53.03,53.69-70.58-33.65,3.31-59.75,15.35-88.87,32.03,32.88-69.22,105.21-85.67,174.91-91.41Z"/>
  <path class="cls-4" d="M728.45,804.35c33.85,32.19,69.21,57.44,111.1,78.14,5.3,10.66,32.96,68.3,31.39,78.25-1.66.31-3.28.61-4.97.79-65.01-5.18-126.59-15.33-189.61-32.35-64.85-20.13-122.71-48.19-177.45-88.45,15.28-4.45,34.38-2.73,50.24-3.29,61.05-3.45,120.39-17.46,179.31-33.07Z"/>
  <path class="cls-2" d="M1309.14,1099.78c37.41-68.98,125.46-76.32,195.08-66.17,7.44,3.19,17.63,3.64,25.69,4.79,48.33,6.69,97.14,9.64,145.93,8.82,8,14-.64,41.9-6.58,55.81-3.9,8.5-9.15,15.66-17.51,20.09-29.32,15.51-78.16,19.25-111.56,26.86-30.33,6.91-59.39,16.57-88.4,27.64,14.01-30.05,39.06-44.96,68.5-57.06-49.42,2-87.86,20.04-129.57,45.13,12.53-36.91,32.45-51.92,66.07-68.55-43.24,7.9-76.71,22.15-115.26,43.07,10.8-32.4,35.99-50.61,65-65.38-37.08,7.24-61.87,9.72-97.4,24.94Z"/>
  <path class="cls-3" d="M2047.27,762.24c20.72,4.83,41.23,17.31,59.69,27.63,68.19,38.14,136.57,84.67,178.6,152.22,66.4,103.19,12.11,209.06-84.49,267.09-139.27,86.08-311.12,83.23-465.96,49.06,15.81-3.76,35.39.29,51.62,1.18,116.62,3.23,250.72-17.68,349.24-83.23,93.78-61.46,127.92-161.23,61.2-257.73-28.63-41.82-72.72-72.16-115.22-98.39-11.41-7.04-24.09-16.3-37.41-18.78,3.53-4.46,4.67-12.88,5.44-18.36.99-7.03,1.78-14.78-2.71-20.71Z"/>
  <path class="cls-4" d="M169.83,626.77c159.74-72.82,403.56-82.36,504.17,87.89,9.83,16.44,17.53,33.96,27.06,50.48l1.09.83c5.91,13.3,15.71,27.93,26.32,37.88l-.02.49c-58.91,15.61-118.25,29.62-179.31,33.08-15.86.56-34.96-1.15-50.24,3.29-17.87-11.12-36.8-27.19-49.1-44.32l-9.79.33c-20.75-4.98-44.04-2.46-65.3-4.61-78.86-7.97-174.6-24.24-240.06-70.85-4.25-1.8-8.53-4.74-12.59-7.02-36.08,3.38-67.67-21.88-83.07-52.88,8.25,2.5,16.31,7.37,24.46,10.5,39.61,14.73,92.29-3.37,106.37-45.1Z"/>
  <path class="cls-6" d="M337.62,669.87c-1.94-4.92-3.92-9.82-5.62-14.83,4.53-2.77,11.65-2.04,16.75-.77,3.86.96,7.57,2.83,9.6,6.39,3.01,5.28,1.65,12.38-.16,17.85-6.22,18.76-24.82,32.42-41.83,40.72-40.64,19.83-98.49,25.31-142.27,14.04-11.87-3.05-27.57-11.86-39.44-12-4.25-1.8-8.53-4.74-12.59-7.02,9.92-3.97,55.71,11.5,71.78,13.1,42.44,3.63,131.79-7.55,143.77-57.48Z"/>
  <path class="cls-6" d="M701.06,765.14l1.09.83c5.91,13.3,15.71,27.93,26.32,37.88l-.02.49c-58.91,15.61-118.25,29.62-179.31,33.08-15.86.56-34.96-1.15-50.24,3.29-17.87-11.12-36.8-27.19-49.1-44.32,48.71.31,210.91-13.08,251.26-31.26Z"/>
  <path class="cls-1" d="M2044.54,801.31c13.32,2.48,26,11.74,37.41,18.78,42.51,26.24,86.59,56.58,115.23,98.39,66.7,96.55,32.61,196.22-61.2,257.73-98.54,65.56-232.59,86.45-349.24,83.23-16.24-.89-35.82-4.95-51.63-1.18-12.18-2.37-25.84-3.98-37.09-9.44-4.48-2.18-6.09-4.01-7.75-8.65,10.7-9.85,16.06-27.6,25.47-39.26,45.8-56.34,107.76-96.91,174.44-124.59,43.2-17.69,161.63-40.34,144.45-105.72-5.87-20.22-23.18-37.9-41.32-47.75,5.35-4.57,9.02-9.73,12.67-15.74,9.02-14.96,38.4-70.43,34.24-87.19,5.72-3.85,5.6-12.62,4.34-18.61Z"/>
  <path class="cls-3" d="M1993.29,922.85c5.35-4.57,9.02-9.73,12.67-15.74,9.02-14.96,38.4-70.43,34.24-87.19,10.57,10.7,23.86,17.95,35.52,27.35,61.67,49.31,90.9,127.03,27.33,188.54-61.19,59.73-152.71,67.02-228.63,98.12-19.07,7.45-37.77,15.83-56.01,25.12-30.72,15.5-59.9,33.89-87.24,54.79-10.3,7.83-20.89,18.11-31.98,24.56-2.71,1.58-5.85,1.76-8.91,1.75,10.7-9.85,16.06-27.6,25.47-39.26,45.8-56.34,107.76-96.91,174.44-124.59,43.2-17.69,161.63-40.34,144.45-105.72-5.87-20.22-23.18-37.9-41.32-47.75Z"/>
  <path class="cls-3" d="M503.33,155.43c108.11-14.76,217.89,6.67,325.69-15.68,99.56-20.64,192.56-62.14,288.77-93.75,236.99-77.89,455.36-62.92,658.86,91.79,51.17,38.82,98.9,83.43,136.89,135.4,47.98,64.44,84.17,137.61,106.36,214.82,19.44,68.36,29.05,139.86,25.04,210.93-.73,12.98-1.88,25.93-3.47,38.84-.84,6.22-.95,14.59-3.2,20.39,2.95.54,6.71.57,8.58,3.23.17.26.28.56.43.85,4.5,5.93,3.71,13.68,2.71,20.71-.77,5.48-1.91,13.9-5.44,18.36,1.26,6,1.38,14.75-4.34,18.61,4.17,16.76-25.21,72.23-34.24,87.19-3.64,6.01-7.32,11.16-12.67,15.74-5.36-6.67-15.16-10.42-22.85-13.93-78.29,88.1-181.92,119.14-294.6,138.3-48.79.83-97.6-2.12-145.93-8.82-8.07-1.15-18.25-1.6-25.69-4.79-14.94-19.34-26.29-42.46-33.94-65.61-24.47,5.04-48.63,9.87-73.5,12.47-11.5,1.96-23.11,3.89-34.82,3.59-47.09,1.47-93.51,1.62-140.62.5-17.5.62-35.35-1.59-52.95-1.57-7.98,17.6-18,34.26-26.33,51.73-2.34,1.05-3.7,2.16-5.33,4.1-9.53,11.32-17.31,24.3-26.34,36.06-26.6,33.23-52.94,66.65-76.3,102.29-36.28-45.55-101.25-64.44-157.48-65.89,17.49-39.87,12.08-84.63,2.32-125.77-1.55-6.78-3.21-17.55-7.3-23.24l-5.66-.76c1.69-.18,3.31-.47,4.97-.79,1.57-9.95-26.09-67.58-31.39-78.25-41.88-20.69-77.25-45.95-111.1-78.14l.02-.49c-10.61-9.95-20.41-24.58-26.32-37.88l-1.09-.83c-9.53-16.52-17.22-34.05-27.06-50.48-100.65-170.27-344.37-160.72-504.17-87.9,2.02-18.31-7.34-32.04-18.72-45.12-16.47-6.67-24.64-15.52-44.97-20.87-12.46-3.28-25.14-1.83-37.47-4.83,9.69-7.05,18.51-15.64,27.35-23.73,19.07-17.2,37.03-35.62,53.72-55.14,69.12-78.44,94.5-168.4,176.56-238.51-2.98-48.41,13.93-92.81,46.06-128.99,11.14-12.55,27.01-28.53,44.75-29.31,32.71-.54,66.08,52.3,86.21,75.17Z"/>
  <path class="cls-6" d="M1195.47,918.33c9.66.06,19.62-.32,29.24.48,3.28.35,6.55.78,9.8,1.31-2.3.53-5.28.5-6.56,2.7-2.76,4.75-10.72,50.41-10.37,57.57,1.26,2.43,1.42,2.81,3.76,4.18-17.5.62-35.35-1.59-52.95-1.57,5.82-20.06,17.62-45.93,27.08-64.67Z"/>
  <path class="cls-8" d="M2038.26,758.16c2.95.54,6.71.57,8.58,3.23.17.26.28.56.43.85,4.5,5.93,3.71,13.68,2.71,20.71-.77,5.48-1.91,13.9-5.44,18.36,1.26,6,1.38,14.75-4.34,18.61,4.17,16.76-25.21,72.23-34.24,87.19-3.64,6.01-7.32,11.16-12.67,15.74-5.36-6.67-15.16-10.42-22.85-13.93,29.99-26.82,55.96-111.42,67.81-150.76Z"/>
  <path class="cls-8" d="M1195.47,918.33c24.37-86.72,30.36-176.8,12.84-265.49,42.58,79.09,38.83,174.7,21.22,260.35-.42,1.39-.96,2.75-1.54,4.08-1.03.5-2.18,1.2-3.29,1.54-9.62-.8-19.58-.42-29.24-.48Z"/>
  <path class="cls-6" d="M872.48,237.04c36.78-3.08,46.58,32.22,46.61,62.19.8,52.59-23.11,88.85-58.5,125.23-3.05-12.74-5.47-25.44-9.43-37.97-15.84-44.06-48.07-77.81-89.7-98.27,29.62-30.07,69.08-47.66,111.02-51.18Z"/>
  <path class="cls-4" d="M1459.81,903.18c1.79,22.49,4.01,43.05,10.47,64.82-24.47,5.04-48.63,9.87-73.5,12.47-11.5,1.96-23.11,3.89-34.82,3.59-47.09,1.47-93.51,1.62-140.62.5-2.34-1.37-2.49-1.75-3.76-4.18-.35-7.16,7.61-52.82,10.37-57.57,1.28-2.2,4.26-2.17,6.56-2.7,66.26,2.39,132.94-1.62,198.45-11.95,1.7-.65,4.53-.74,6.38-1.02,6.88-.91,13.69-2.53,20.48-3.96Z"/>
  <path class="cls-6" d="M1459.81,903.18c1.79,22.49,4.01,43.05,10.47,64.82-24.47,5.04-48.63,9.87-73.5,12.47,5.39-13.86,16.43-25.05,24.03-37.81,5.08-8.56,14.64-24.85,12.15-34.5,1.7-.65,4.53-.74,6.38-1.02,6.88-.91,13.69-2.53,20.48-3.96Z"/>
  <path class="cls-8" d="M1439.33,907.14c-1.51-.92-1.76-1.56-2.62-3.05-1.17-13.36,2.27-28.59,3.33-42.06,5.38-77.8,19.15-148.74,65.48-213.55,23.03-32.86,52.2-61.42,85.57-83.71,65.96-43.97,139.97-61.15,218.49-50.34,9.75,1.27,22.28,2.64,30.72,7.8-202.23-3.45-378.85,181.23-380.48,380.95-6.79,1.43-13.6,3.05-20.48,3.96Z"/>
  <path class="cls-8" d="M953.78,312.59c6.6,2.81,9.51,11.91,12.05,18.24,87.12,211.98-27.59,404.42-237.35,473.03-10.61-9.95-20.41-24.58-26.32-37.88,185.86-40.83,297.15-211.8,246.27-397.44-1.51-5.35-2.96-10.43-5.49-15.4,4.49-13.35,8.5-26.64,10.84-40.55Z"/>
  <g>
    <circle class="cls-2" cx="317.92" cy="402.62" r="50.72"/>
    <ellipse cx="317.92" cy="402.62" rx="37.14" ry="36.28"/>
    <circle class="cls-7" cx="317.92" cy="402.62" r="12.96"/>
  </g>
  <g>
    <circle class="cls-2" cx="569.29" cy="473.7" r="50.72"/>
    <ellipse cx="569.29" cy="473.7" rx="37.14" ry="36.28"/>
    <circle class="cls-7" cx="569.29" cy="473.7" r="12.96"/>
  </g>
</svg>