<?xml version="1.0" encoding="UTF-8"?>
<svg xmlns="http://www.w3.org/2000/svg" viewBox="0 0 356.39 445.72">
  <defs>
    <style>
      .cls-1, .cls-2, .cls-3 {
        fill: #ef3737;
      }

      .cls-4, .cls-5, .cls-6, .cls-7, .cls-8 {
        fill: #fff;
      }

      .cls-4, .cls-9 {
        opacity: .2;
      }

      .cls-10 {
        fill: #5dd113;
      }

      .cls-11, .cls-7, .cls-3, .cls-12 {
        opacity: .3;
      }

      .cls-6, .cls-2, .cls-13, .cls-14 {
        opacity: .5;
      }

      .cls-15, .cls-2, .cls-3, .cls-9, .cls-16, .cls-14 {
        mix-blend-mode: multiply;
      }

      .cls-15, .cls-17 {
        fill: #30f4f9;
      }

      .cls-18 {
        isolation: isolate;
      }

      .cls-19 {
        fill: #d8d8d8;
      }

      .cls-20, .cls-16, .cls-21 {
        opacity: .15;
      }

      .cls-9 {
        fill: #90f4f4;
      }

      .cls-8 {
        opacity: .4;
      }

      .cls-16 {
        fill: #19c0db;
      }

      .cls-12, .cls-21, .cls-22 {
        fill: #fefefe;
      }
    </style>
  </defs>
  <g class="cls-18">
    <g id="Calque_1">
      <g>
        <g>
          <path class="cls-22" d="M151.88,268.66c-26.4-2.14-46.37,9.76-48.5,34.25-2.44,28.13.44,57.02,11.84,83.06,3.49,7.99,7.86,15.56,12.91,22.67,3.39,4.77,8.57,9.28,11.32,14.74,2.07,4.12.81,10.16.98,14.63.04,1.22.11,2.5.73,3.55,4.57,7.83,16.68,2.76,22.66-.25,10.73-5.39,12.28-11.38,14.66-22.55,2.45-11.5,3.4-26.89,5.45-42.48,2.73-29.11,9.27-58.89,10.37-68.81,1.55-19.41-15.91-36.68-42.42-38.81Z"/>
          <path class="cls-9" d="M186.18,357.24c-3.89.56-10.05,1.07-15.25-.17,0,0-1.39,13.27,1.8,22.03,3.19,8.76,7.86,22.26,5.72,29.85-.41,1.44.26,1.54,1.6.76,1.42-9.96,2.34-21.63,3.89-33.42.6-6.39,1.38-12.8,2.25-19.04Z"/>
          <path class="cls-22" d="M356.12,172.96c5.73,18.59-82.79,62.39-101.38,68.12-18.59,5.73-38.31-4.69-44.04-23.29-5.73-18.59,4.69-38.31,23.29-44.04,18.59-5.73,116.41-19.38,122.14-.79Z"/>
          <path class="cls-9" d="M264.32,237.06c25.02-10.71,77.23-37.6,89.42-55.43-21.7,25.43-101.08,30.48-101.08,30.48,3.2,8.81,8.53,19.68,11.66,24.95Z"/>
          <path class="cls-1" d="M282.76,235.76c-2.51,0-4.93-1.39-6.13-3.79-12.37-24.82-16.83-61.92-17.02-63.49-.44-3.75,2.24-7.15,6-7.59,3.76-.44,7.15,2.24,7.59,5.99.04.36,4.38,36.32,15.67,58.98,1.68,3.38.31,7.49-3.07,9.17-.98.49-2.02.72-3.05.72Z"/>
          <path class="cls-1" d="M265.65,110.48c-2.67.86-5.41,1.41-8.21,1.63-5.32.33-11.27-4.87-12.69-9.88-2.99-11.17-5.24-22.49-6.73-33.95-.6-5.17,2.91-12.25,7.96-13.97,2.67-.86,5.41-1.41,8.21-1.63,5.32-.33,11.27,4.87,12.69,9.88,2.99,11.17,5.24,22.49,6.73,33.95.61,5.17-2.91,12.25-7.96,13.97Z"/>
          <path class="cls-3" d="M273.61,96.51c-1.5-11.46-3.74-22.78-6.73-33.95-.45-1.58-1.34-3.18-2.53-4.61,1.64,7.44,2.99,14.94,3.98,22.5.61,5.17-2.91,12.25-7.96,13.97-2.67.86-5.41,1.41-8.21,1.63-3.64.23-7.58-2.14-10.16-5.26.84,3.83,1.74,7.65,2.76,11.44,1.41,5.01,7.37,10.21,12.69,9.88,2.8-.22,5.54-.77,8.21-1.63,5.05-1.72,8.56-8.8,7.96-13.97Z"/>
          <path class="cls-2" d="M262.15,93.88c-2.1-14.61-7.52-28.03-15.5-39.77-.22.07-.45.12-.67.2-5.05,1.72-8.56,8.8-7.96,13.97,1.5,11.47,3.74,22.78,6.73,33.95,1.41,5.01,7.37,10.21,12.69,9.88,1.89-.15,3.75-.46,5.58-.9.24-5.72-.03-11.51-.87-17.33Z"/>
          <path class="cls-1" d="M40.54,170.8c-2.49,1.3-5.1,2.3-7.82,3-5.19,1.23-11.94-2.89-14.18-7.59-4.84-10.5-8.97-21.28-12.38-32.32-1.47-4.99.79-12.56,5.48-15.12,2.49-1.3,5.1-2.3,7.82-3,5.19-1.23,11.93,2.89,14.18,7.59,4.84,10.5,8.97,21.28,12.38,32.32,1.47,4.99-.79,12.57-5.48,15.12Z"/>
          <path class="cls-3" d="M46.02,155.68c-1.01-3.25-2.09-6.47-3.22-9.68-.52,4.01-2.59,8.1-5.79,9.85-2.49,1.3-5.1,2.3-7.82,3-5.19,1.23-11.94-2.89-14.18-7.59-3.41-7.41-6.45-14.96-9.16-22.64-.24,1.85-.15,3.69.31,5.27,3.42,11.05,7.55,21.82,12.38,32.32,2.24,4.7,8.99,8.82,14.18,7.59,2.72-.69,5.33-1.69,7.82-3,4.68-2.55,6.95-10.13,5.48-15.12Z"/>
          <path class="cls-2" d="M46.02,155.68c-3.42-11.05-7.55-21.82-12.38-32.32-2.24-4.7-8.99-8.82-14.18-7.59-.71.18-1.41.38-2.11.61-.06,4.84.24,9.72.94,14.63,2.24,15.54,8.23,29.74,17.06,42,1.78-.6,3.51-1.33,5.18-2.2,4.68-2.55,6.95-10.13,5.48-15.12Z"/>
          <path class="cls-22" d="M317.38,366.84c1.37-12.68-26.62-27.8-32.59-44-6.41-16.36-12.35-54.31-22.7-64.94-20.2-20.72-41.85-14.49-61.74-1.63-19.89,12.86-28.74,29.69-17.03,53.23,13.45,27.05,30.57,48.6,57.1,65.25,13.32,8.36,29.27,14.08,45.7,12.76,10.4-.83,30.15-10.4,31.26-20.69Z"/>
          <path class="cls-22" d="M276.94,296.37c.85-4.68.47-9.35-.09-14.16-.67-5.86-1.94-11.65-3.56-17.33-1.78-6.21-3.99-12.31-6.54-18.24-6.33-14.74-10.61-27.43-15.11-42.83-12.25-41.85-89.34-51.71-124.22-4.11-13.91,18.99-20.09,41.36-23.61,64.21-2.11,13.7-3.73,27.56-3.33,41.44.31,10.87,1.07,30.93,4.28,44.31,4.93,20.52,44.1,9.05,63.7,7.41,32.24-2.68,62.07-15.4,88.45-34.79,4.06-2.99,8.16-6.01,11.63-9.69,3.49-3.7,6.16-8.29,7.66-13.2.31-1.01.55-2.01.73-3.01Z"/>
          <path class="cls-22" d="M1.49,182.26c6.52-7.31,32.25,4.15,59.49,13.27,27.1,9.92,55.71,17.49,64.99,20.75,18.01,6.79,29.66,25.75,25.43,44.79-4.19,18.96-26.71,29.91-49.47,21.45-11.15-3.63-43.38-21.8-67-44.53C10.63,215.85-5.05,189.14,1.49,182.26Z"/>
          <path class="cls-9" d="M105.84,255.22s-73.59-15.6-95.41-44.94c6.12,8.89,14.59,18.67,24.49,27.7,22.78,21.93,53.57,39.6,65.73,44.09.91-5.17,4.25-24.08,5.19-26.85Z"/>
          <path class="cls-1" d="M51.01,262.9c-1.33,0-2.66-.38-3.84-1.19-3.12-2.13-3.93-6.38-1.81-9.5.2-.3,20.49-30.31,26.81-54.83.94-3.66,4.67-5.86,8.33-4.92,3.66.94,5.86,4.67,4.92,8.33-6.92,26.85-27.86,57.8-28.75,59.11-1.32,1.94-3.47,2.99-5.66,2.99Z"/>
          <path class="cls-19" d="M265.76,236.81s-.02-.08-.04-.12c-.08-.14-7.7-13.86-11.63-28.61-.18-.66-.86-1.06-1.52-.88-.66.18-1.06.86-.88,1.52,3.82,14.35,11.05,27.71,11.8,29.07.73-.31,1.49-.63,2.28-.97Z"/>
          <g class="cls-11">
            <path class="cls-22" d="M52.13,251.05c-.24,0-.48-.07-.69-.21-.57-.38-.72-1.16-.33-1.73,6.44-9.54,12.04-19.8,16.62-30.52.27-.63,1-.93,1.63-.65.63.27.92,1,.65,1.63-4.65,10.86-10.32,21.27-16.85,30.94-.24.36-.63.55-1.03.55Z"/>
          </g>
          <g class="cls-11">
            <path class="cls-22" d="M73.03,209.63c-.14,0-.28-.02-.41-.07-.65-.23-.99-.94-.76-1.58,2.15-6.13,3.05-9.92,3.06-9.96.16-.67.84-1.08,1.5-.93.67.16,1.08.83.93,1.5-.04.16-.94,3.95-3.14,10.21-.18.51-.66.83-1.17.83Z"/>
          </g>
          <g class="cls-11">
            <path class="cls-22" d="M270.67,178.9c-.61,0-1.14-.45-1.23-1.07-.32-2.28-.6-4.59-.83-6.86-.07-.68.43-1.29,1.11-1.36.69-.06,1.29.43,1.36,1.11.23,2.24.5,4.52.81,6.77.09.68-.38,1.31-1.06,1.4-.06,0-.12.01-.17.01Z"/>
          </g>
          <g class="cls-11">
            <path class="cls-22" d="M284.39,227.01c-.46,0-.9-.25-1.11-.69-.07-.14-6.9-13.92-11.45-35.05-.14-.67.28-1.33.95-1.48.67-.15,1.33.28,1.48.95,4.48,20.8,11.18,34.33,11.25,34.46.31.61.06,1.36-.56,1.67-.18.09-.37.13-.56.13Z"/>
          </g>
          <path class="cls-1" d="M139.73,217.59c-23.11,0-38.93-6.06-39.64-6.34-3.52-1.37-5.26-5.34-3.89-8.86,1.37-3.52,5.34-5.26,8.84-3.89h0c.16.06,16.51,6.23,39.46,5.31,30.5-1.24,57.76-13.8,81.02-37.35,2.66-2.69,6.99-2.71,9.67-.06,2.69,2.66,2.71,6.99.06,9.67-32.33,32.72-67.25,40.59-90.85,41.43-1.59.06-3.15.08-4.68.08Z"/>
          <g>
            <ellipse class="cls-1" cx="255.82" cy="358.47" rx="16.02" ry="21.21" transform="translate(-181.23 412.64) rotate(-61.55)"/>
            <path class="cls-3" d="M263.45,344.38c-1.32-.72-2.67-1.31-4.03-1.79,8.2,5.9,11.79,15.31,8.01,22.29-3.67,6.78-13.08,9-22.26,5.77.95.68,1.94,1.32,3,1.9,10.3,5.58,22.07,3.8,26.28-3.99,4.22-7.78-.72-18.61-11.01-24.19Z"/>
            <path class="cls-12" d="M248.03,361.03c3.61,4.42,8.47,6.41,5.82,8.57s-7.72.34-11.32-4.08c-3.61-4.42-4.38-9.75-1.74-11.91s3.63,3,7.24,7.42Z"/>
            <path class="cls-21" d="M267.92,351.83c3.29,4.02,4.48,8.49,2.66,9.98-1.82,1.48-5.96-.57-9.24-4.6-3.29-4.02-4.48-8.49-2.66-9.98,1.82-1.48,5.96.57,9.24,4.6Z"/>
            <path class="cls-12" d="M243.53,348.35c.55.68.28,1.81-.6,2.53-.88.72-2.05.76-2.6.08-.55-.68-.28-1.81.6-2.53.88-.72,2.05-.76,2.6-.08Z"/>
          </g>
          <path class="cls-1" d="M136.43,425.1c-3.02,0-5.51-2.41-5.59-5.45-.08-3.09,2.36-5.66,5.45-5.74h0c.25,0,25.18-.79,41.05-10.52,2.63-1.62,6.08-.79,7.7,1.84,1.62,2.63.79,6.08-1.84,7.7-18.46,11.32-45.47,12.14-46.61,12.17-.05,0-.1,0-.15,0Z"/>
          <path class="cls-1" d="M280.11,393.12c-1.06,0-2.13-.3-3.08-.93-2.58-1.71-3.29-5.18-1.58-7.76.23-.35,15.24-23.33,17.4-43.16.33-3.07,3.09-5.3,6.17-4.96,3.07.34,5.29,3.1,4.96,6.17-2.46,22.61-18.51,47.09-19.19,48.12-1.08,1.63-2.86,2.51-4.67,2.51Z"/>
          <path class="cls-1" d="M197.17,355.67c-2.7,0-5.27-1.61-6.34-4.28-25.12-62.1-29.98-156.79-30.18-160.79-.18-3.77,2.73-6.98,6.5-7.16,3.74-.2,6.98,2.73,7.16,6.5.05.96,4.95,96.39,29.2,156.32,1.42,3.5-.27,7.49-3.78,8.91-.84.34-1.71.5-2.56.5Z"/>
          <g>
            <g class="cls-11">
              <path class="cls-22" d="M197.84,354.44c-.47,0-.91-.26-1.13-.71-1.59-3.38-3.17-6.96-4.67-10.65-.26-.64.05-1.36.68-1.62.64-.26,1.36.05,1.62.68,1.49,3.65,3.04,7.19,4.62,10.53.29.62.03,1.36-.59,1.66-.17.08-.35.12-.53.12Z"/>
            </g>
            <g class="cls-11">
              <path class="cls-22" d="M191.7,340.1c-.49,0-.96-.3-1.16-.78l-.1-.26c-.25-.64.08-1.36.72-1.61.64-.24,1.36.08,1.61.72l.09.23c.25.64-.06,1.36-.7,1.62-.15.06-.31.09-.46.09Z"/>
            </g>
            <g class="cls-11">
              <path class="cls-22" d="M190.02,335.64c-.51,0-.98-.31-1.17-.82-12.53-34.16-18.67-72.25-21.62-98.18-.08-.68.41-1.3,1.09-1.38.71-.09,1.3.41,1.38,1.09,2.94,25.8,9.05,63.67,21.49,97.61.24.64-.09,1.36-.74,1.59-.14.05-.29.08-.43.08Z"/>
            </g>
            <g class="cls-11">
              <path class="cls-22" d="M167.13,224.6c-.64,0-1.18-.49-1.24-1.14-.47-5.41-.65-8.59-.65-8.62-.04-.69.49-1.27,1.17-1.31.68-.08,1.27.49,1.31,1.17,0,.03.17,3.17.64,8.54.06.68-.45,1.29-1.13,1.35-.04,0-.07,0-.11,0Z"/>
            </g>
            <path class="cls-12" d="M169.13,229.68c0-.69-.56-1.25-1.25-1.25s-1.25.56-1.25,1.25.56,1.25,1.25,1.25,1.25-.56,1.25-1.25Z"/>
          </g>
          <rect class="cls-5" x="135.01" y="248.76" width="88.74" height="63.8" rx="14.38" ry="14.38" transform="translate(-45.02 34.5) rotate(-9.77)"/>
          <g class="cls-13">
            <path class="cls-19" d="M181.36,303.99c-.34,0-.65-.24-.72-.59l-4.13-19.42c-.09-.4.17-.79.57-.88.39-.07.79.17.88.57l4.13,19.42c.09.4-.17.79-.57.87-.05.01-.1.02-.15.02Z"/>
          </g>
          <rect class="cls-17" x="144.23" y="260.71" width="61.03" height="15.44" rx="7.02" ry="7.02" transform="translate(-45.26 35.64) rotate(-10.32)"/>
          <path class="cls-15" d="M204.9,263.66l-.25-1.39c-.18-.99-.57-1.89-1.1-2.67.06,3.37-2.31,6.39-5.74,7.01l-46.24,8.42c-2.82.51-5.55-.74-7.06-2.97,0,.38.02.76.09,1.15l.25,1.38c.69,3.81,4.35,6.34,8.16,5.65l46.24-8.42c3.81-.69,6.34-4.35,5.64-8.16Z"/>
          <circle class="cls-10" cx="161.67" cy="296.23" r="9.26" transform="translate(-173.88 332.23) rotate(-67.5)"/>
          <circle class="cls-1" cx="197.84" cy="291.48" r="9.26" transform="translate(-147.17 362.71) rotate(-67.5)"/>
          <ellipse class="cls-22" cx="138.46" cy="106.06" rx="120.42" ry="105.72" transform="translate(-13.7 20.82) rotate(-8.19)"/>
          <path class="cls-9" d="M257.65,88.89c-3.78-26.28-18.28-48.71-39.16-64.47,1.46,4.68,2.57,9.52,3.28,14.5,8.32,57.79-38.3,112.33-104.12,121.8-35.89,5.17-70.08-4.13-95.1-23.01,15.45,49.68,70.82,81.64,130.97,72.98,65.83-9.48,112.44-64.01,104.12-121.8Z"/>
          <g>
            <g>
              <ellipse class="cls-17" cx="135.54" cy="120.61" rx="87.4" ry="78.48"/>
              <path class="cls-16" d="M181.5,53.86c1.06,4.89,1.64,9.95,1.64,15.12,0,43.34-39.13,78.48-87.4,78.48-16.87,0-32.61-4.3-45.96-11.73,7.85,36.11,43.25,63.36,85.76,63.36,48.27,0,87.4-35.14,87.4-78.48,0-28.2-16.57-52.91-41.44-66.75Z"/>
              <path class="cls-1" d="M135.54,205.93c-51.96,0-94.24-38.28-94.24-85.32s42.27-85.32,94.24-85.32,94.24,38.28,94.24,85.32-42.27,85.32-94.24,85.32ZM135.54,48.97c-44.42,0-80.56,32.14-80.56,71.64s36.14,71.64,80.56,71.64,80.56-32.14,80.56-71.64-36.14-71.64-80.56-71.64Z"/>
              <g class="cls-14">
                <path class="cls-1" d="M135.54,43.91c-44.42,0-80.56,32.14-80.56,71.64,0,.85.04,1.69.07,2.53,1.51-38.33,37.02-69.11,80.49-69.11s78.98,30.78,80.48,69.11c.03-.84.07-1.68.07-2.53,0-39.5-36.14-71.64-80.56-71.64Z"/>
                <path class="cls-1" d="M135.54,200.87c-51.03,0-92.68-36.92-94.17-82.79-.03.84-.07,1.68-.07,2.53,0,47.05,42.27,85.32,94.24,85.32s94.24-38.28,94.24-85.32c0-.85-.04-1.69-.07-2.53-1.49,45.88-43.14,82.79-94.17,82.79Z"/>
              </g>
            </g>
            <ellipse class="cls-6" cx="91.62" cy="100.91" rx="33.36" ry="20.91" transform="translate(-44.55 106.78) rotate(-50.23)"/>
            <path class="cls-6" d="M132.23,126.92c-4.93,6.15-12.42,8.49-16.72,5.22-4.3-3.26-3.78-10.89,1.15-17.04s12.42-8.49,16.72-5.22c4.3,3.26,3.78,10.89-1.15,17.04Z"/>
            <path class="cls-8" d="M183.59,76.55c3,8.46,4.65,17.53,4.65,26.97,0,36.52-24.36,67.49-58.14,78.44,3.93.75,7.99,1.16,12.15,1.16,34.58,0,62.61-27.25,62.61-60.87,0-18.21-8.23-34.54-21.27-45.7Z"/>
          </g>
          <path class="cls-22" d="M290.81,384.14s4.87,11.94,18.07,9.27c7.39-1.5,16.17-23.42,5.79-35.11-10.38-11.69-23.86,25.84-23.86,25.84Z"/>
          <path class="cls-19" d="M227.01,297.43c-.85,0-1.63-.59-1.82-1.46l-9.16-40.83c-1.47-6.54-7.79-10.72-14.37-9.53l-59.94,10.89c-1,.18-1.98-.49-2.17-1.5-.18-1.01.49-1.98,1.5-2.17l59.94-10.89c8.56-1.56,16.78,3.88,18.68,12.38l9.16,40.83c.22,1.01-.41,2-1.41,2.23-.14.03-.27.04-.41.04Z"/>
          <path class="cls-19" d="M154.79,319.9c-7.44,0-14.06-5.12-15.75-12.65l-1.98-8.83c-.22-1.01.41-2,1.41-2.23,1-.23,2,.41,2.23,1.41l1.98,8.83c1.47,6.54,7.78,10.72,14.38,9.53l8.57-1.56c1-.19,1.98.49,2.17,1.5.18,1.01-.49,1.98-1.5,2.17l-8.57,1.56c-.99.18-1.97.27-2.93.27Z"/>
          <g class="cls-11">
            <path class="cls-5" d="M151.88,270.53c-.89,0-1.68-.64-1.84-1.55-.17-1.02.51-1.98,1.53-2.15l41.68-7.07c1.03-.18,1.98.51,2.15,1.53.17,1.02-.51,1.98-1.53,2.15l-41.68,7.07c-.11.02-.21.03-.31.03Z"/>
          </g>
          <path class="cls-4" d="M163.04,294.16c-.32-2.23-2.39-3.78-4.63-3.46-2.23.32-3.78,2.39-3.46,4.63.32,2.23,2.39,3.78,4.63,3.46,2.23-.32,3.78-2.39,3.46-4.63Z"/>
          <path class="cls-4" d="M199.77,288.88c-.32-2.23-2.39-3.78-4.63-3.46-2.23.32-3.78,2.39-3.46,4.63.32,2.23,2.39,3.78,4.63,3.46,2.23-.32,3.78-2.39,3.46-4.63Z"/>
          <g>
            <ellipse class="cls-1" cx="136.43" cy="384.37" rx="16.02" ry="21.21" transform="translate(-135.72 80.58) rotate(-22.31)"/>
            <path class="cls-3" d="M151.26,378.29c-.57-1.39-1.24-2.7-1.99-3.93,2.62,9.76-.55,19.32-7.89,22.33-7.14,2.93-15.83-1.3-20.89-9.61.3,1.12.66,2.25,1.12,3.37,4.45,10.84,14.69,16.9,22.88,13.54,8.19-3.36,11.22-14.87,6.77-25.7Z"/>
            <path class="cls-12" d="M128.78,381.43c0,5.7,2.5,10.32-.92,10.32s-6.19-4.62-6.19-10.32,2.77-10.32,6.19-10.32.92,4.62.92,10.32Z"/>
            <ellipse class="cls-21" cx="145.77" cy="386.88" rx="4.25" ry="9.41"/>
            <path class="cls-12" d="M133.32,368.75c0,.87-.93,1.58-2.07,1.58s-2.07-.71-2.07-1.58.93-1.58,2.07-1.58,2.07.71,2.07,1.58Z"/>
          </g>
        </g>
        <path class="cls-19" d="M109.52,248.64c-.64-.25-1.36.07-1.61.71-4.79,12.46-7.26,26.05-8.22,32.35.82.32.96.4,1.63.62.05.02.1.03.15.05.89-5.93,3.92-19.52,8.77-32.12.25-.64-.07-1.36-.71-1.61Z"/>
        <path class="cls-19" d="M169.9,355.62c-.67-.1-1.31.36-1.42,1.04-.1.68.36,1.31,1.04,1.42,2.09.32,4.12.45,6.03.44,4.66,0,8.57-.76,10.63-1.25.12-.89.25-1.78.38-2.67-1.8.49-8.93,2.2-16.65,1.01Z"/>
        <path class="cls-7" d="M262.23,59.87c.52,1.92-1.1,4.02-3.6,4.69-2.5.67-4.95-.34-5.47-2.25-.52-1.92,1.1-4.02,3.6-4.69,2.5-.67,4.95.34,5.47,2.25Z"/>
        <path class="cls-7" d="M16.59,128.61c.52,1.92-1.1,4.02-3.6,4.69-2.5.67-4.95-.34-5.47-2.25-.52-1.92,1.1-4.02,3.6-4.69,2.5-.67,4.95.34,5.47,2.25Z"/>
        <g class="cls-20">
          <path class="cls-22" d="M135.31,196.8c-8.07,0-16.23-1.02-24.31-3.08-10.45-2.66-20.24-6.95-29.11-12.73-.58-.38-.74-1.15-.36-1.72.37-.58,1.15-.74,1.72-.36,8.64,5.63,18.18,9.81,28.37,12.4,22.51,5.74,45.72,3.2,65.35-7.18,19.59-10.35,33.24-27.23,38.42-47.54.17-.67.85-1.07,1.51-.9.67.17,1.07.85.9,1.51-5.36,21-19.44,38.44-39.67,49.12-13.13,6.93-27.8,10.47-42.82,10.47ZM43.97,119.21c-.69,0-1.24-.56-1.24-1.24,0-44.75,40.15-81.16,89.51-81.16,10.78,0,21.33,1.73,31.35,5.14.65.22,1,.93.78,1.58-.22.65-.92,1.01-1.58.78-9.76-3.32-20.04-5-30.55-5-47.98,0-87.02,35.29-87.02,78.67,0,.69-.56,1.24-1.24,1.24ZM196.95,64.92c-.31,0-.63-.12-.87-.35-5.22-5.1-11.17-9.56-17.67-13.25-.6-.34-.81-1.1-.47-1.7.34-.6,1.1-.81,1.7-.47,6.69,3.8,12.8,8.39,18.17,13.64.49.48.5,1.27.02,1.76-.24.25-.57.38-.89.38Z"/>
        </g>
      </g>
    </g>
  </g>
</svg>