<?xml version="1.0" encoding="utf-8"?>
<!-- Generator: Adobe Illustrator 23.1.0, SVG Export Plug-In . SVG Version: 6.00 Build 0)  -->
<svg version="1.1" id="Layer_1" xmlns="http://www.w3.org/2000/svg" xmlns:xlink="http://www.w3.org/1999/xlink" x="0px" y="0px"
	 viewBox="0 0 1000 1078.2" style="enable-background:new 0 0 1000 1078.2;" xml:space="preserve">
<style type="text/css">
	.st0{fill:#6D92BF;}
	.st1{fill:#FFD387;}
	.st2{fill:#FFE8DC;}
	.st3{fill:#9ECFE8;}
	.st4{fill:#FABC6B;}
	.st5{fill:#F7DBCB;}
	.st6{fill:#374552;}
	.st7{fill:#FFE2B0;}
</style>
<title>Asset 2</title>
<g>
	<g id="Layer_8">
		<path class="st0" d="M976.3,324c1.2-0.6,1.6-2,1.1-3.2c-0.1-0.2-0.2-0.4-0.4-0.5h-0.3c-9.3-33.4-22.6-65.5-39.6-95.8
			c-15.6-27.9-34.1-54.1-55.2-78.2C831.8,89.1,767.2,45.8,693.7,26.5s-146.5-15.2-218.6-7.8c-25.4,2.7-60.2,8.5-74.4,32.8
			c-5.8,9.8-0.7,17.3,8.8,21.3s19,6.4,27.4,13.2l4.1,3.7c6.4,6.3,12,13.5,16.6,21.3c10.2,17.3,16.6,36.2,25,53.8l1,2
			c8.3,17.2,19.5,32.9,33.2,46.4c9.7,9.8,20.2,18.7,31.5,26.7c8.3,23.6,13,48.4,13.9,73.4c0.3,27.4-15.6,68.4,11.8,88
			c12.9,9.5,30.1,9.1,45,7.4c21-3,41.6-9.1,62.3-13.9l137.4-31.5l156.3-36.2c1.2-0.4,1.9-1.7,1.5-3
			C976.4,324.2,976.4,324.1,976.3,324z"/>
		<path class="st1" d="M957,746.6c12.3-41.4,22.5-83.4,30.5-125.9c13.5-75.1,4.7-183.8-21.7-256.5c-5.8-14.9-18.3-4.7-27.4-12.9
			c-1.2-1.2-2.2-2.6-3-4.1c-0.6-0.9-1.7-1.3-2.7-1c-114.7,31.1-231.1,56.9-348.2,76.8c9.2-5.8,19.3-10.3,29.8-13.2
			c2.7-0.7,1.4-5.1-1.4-4.1c-13.4,3.6-26,9.7-37.2,17.9c0.7-3,1.3-6.1,1.7-9.1c0.3-2.7-3.7-4.1-4.4-1c-0.7,3-1.4,9.5-2.4,13.9
			c-0.8,0.5-1.1,1.5-0.7,2.3c0.1,0.2,0.2,0.3,0.3,0.4c-30.8,152.6-134,285.3-276.5,349.9c-66.4,30.2-138.6,45.3-211.5,44.3
			c-17.3-0.3-35.2-3.4-52.8-2.7C18.6,822.4,4.7,825.5,1,837c-1.1,3.4-1.3,7-0.7,10.5c3.4,29.1,49.1,68,65.7,83.2
			c34.3,31.5,73.4,57.4,115.7,76.8c169.2,79.2,445.3,113,601.7-12.9C859.9,933.4,928.6,842.1,957,746.6z"/>
		<path class="st2" d="M428.1,83c3.3-11.7,3.8-23.9,1.7-35.9c-2.8-11.5-8.5-22.1-16.6-30.8c-5.5-6.9-12.9-11.9-21.3-14.6
			c-8.5-2-17.3,0-26.1,0.3c-9.7-0.2-19.4-0.8-29.1-2c-13.2-0.7-26.7,1.7-36.2,11.2c-9.5,9.5-16.6,26.4-23.3,40.3
			S265.7,72.2,263.6,84c-2,11.8,0.7,25,10.2,31.8s21,5.1,29.1,11.8c8.1,6.8,9.1,14.9,15.6,20.6c6.4,5.8,19,7.1,29.1,7.4
			c8.6,0.5,17.2-0.5,25.4-3c5.8-2.7,11.3-6.1,16.2-10.2c8-5.8,15.3-12.5,21.7-20c7.5-10.5,12.9-22.3,15.9-34.9
			C427.3,86.2,427.8,84.6,428.1,83z"/>
		<path class="st3" d="M513.7,113.8c-5.8-8.1-17.3-6.4-24.7-11.2c-6.1-3.9-10.4-9.9-12.2-16.9c-1.7-5.4,0.3-10.5,0.3-15.6
			c0-5.1-1.7-8.1-6.4-8.5s-13.9,9.8-17.9,13.9c-4.1,4.1-8.1,9.5-11.8,14.2c6.4,6.3,12,13.5,16.6,21.3c10.2,17.3,16.6,36.2,25,53.8
			c1.4-6.8,0.3-14.2,2-21.7C487.3,130.1,516.7,118.2,513.7,113.8z"/>
		<path class="st3" d="M721.5,184.5l-1.7-2.7c-7.8-13.9,2-20.3,11.5-28.4c9.5-8.1,8.8-9.8,7.4-15.6c-1.5-4.6-5.4-8.1-10.2-9.1
			c-4.5-0.8-9-1.2-13.5-1c-9.5,0-19.3-1.4-25.7-8.1c-6.4-6.8-8.5-21.7-17.3-28.1c-1.2-1.2-2.8-1.8-4.4-1.7c-3.4,0-5.8,3.4-6.8,6.8
			c-1,3.4-1.7,15.2-3.4,22.3c-3.9,14.8-15.8,26.2-30.8,29.4c-5.8,1-13.2,2-14.9,7.8c-1.7,5.8,3.4,9.1,7.8,11.2
			c4.4,2,10.2,3.7,14.9,6.1c5.1,1.8,9.1,6,10.8,11.2c1,5.8-2,11.2-4.1,16.6c-2,5.4-4.1,12.2-0.3,16.6c3.9,3.9,9.8,4.7,14.6,2
			c4.6-3,8.4-7.2,10.8-12.2c2.4-4.1,5.1-9.1,9.8-9.8c2.4-0.3,4.9,0,7.1,1l28.4,10.2c3.2,1.7,7,2,10.5,1c5.1-1.7,6.8-8.5,5.4-13.9
			C726,192,724,188.1,721.5,184.5z"/>
		<path class="st4" d="M957,746.6c12.3-41.4,22.5-83.4,30.5-125.9c13.5-75.1,4.7-183.8-21.7-256.5c-5.8-14.9-18.3-4.7-27.4-12.9
			c-3.9,0-7.7,0.3-11.5,1c-5.8,0.7-5.8,9.5,0,8.8l7.8-0.7c-7.8,193.6-67,400-231.5,518.8C564.8,979.4,381,993.7,220,948
			C142.3,925.1,68.4,891.3,0.3,847.5c3.4,29.1,49.1,68,65.7,83.2c34.3,31.5,73.4,57.4,115.7,76.8c169.2,79.2,445.3,113,601.7-12.9
			C859.9,933.4,928.6,842.1,957,746.6z"/>
		<path class="st3" d="M936.7,224.8v-0.7c-15.6-27.9-34.1-54.1-55.2-78.2c-7.1-2.4-14.2-3.4-19.3-0.3c-5.1,3-0.7,12.5,3.7,16.9
			c17.9,17.3-11.5,27.7-9.8,44c1,10.5,12.5,8.8,19.3,5.4s20.3-8.8,30.1,0.3c9.8,9.1,6.1,14.2,12.5,19S933.7,232.6,936.7,224.8z"/>
		<path class="st3" d="M664.3,341.6c-0.7-6.4-1-13.5-8.5-15.2s-13.9,6.1-19,11.2c-2.5,2.7-5.2,5.2-8.1,7.4c-8.5,5.4-12.9,3.4-21-1
			c-8.1-4.4-5.4-4.7-9.5-4.7c-21-0.7,1.4,35.5,5.4,42c4.1,6.4,4.7,0.7,4.1-1.4l0,0c12.4,3,25.2,4.1,37.9,3.4
			c6.8-0.7,14.2-2,18.3-8.1C668,369,665.3,351,664.3,341.6z"/>
		<path class="st2" d="M995.9,393.7c8.5-26.1,3-67.3-9.8-91.4c-6.4-11.8-13.9-8.1-24.7-5.1c-10.8,3-28.4-0.7-44.3,0.7
			c-15.9,1.4-25.7,6.8-37.9,12.5c-12.2,5.8-28.1,13.9-43.7,16.2c-15.6,2.4-35.5-2-52.8,2c-17.3,4.1-30.1,12.9-45,19
			c-16.8,7-34.4,11.9-52.5,14.6c-34.9,5.4-70.4,4.7-105.6,5.4c-13.9,0.3-29.1,0.3-41.3,7.4c-12.2,7.1-15.9,18.3-16.6,30.8
			c-1.4,26.4,3.7,61.6,37.2,58.2c42.3-4.1,84.6-10.8,126.6-16.2l127.6-16.6L958,412.6C972.9,410.9,990.5,410.6,995.9,393.7z"/>
		<path class="st5" d="M336,96.6c-18.8,1.9-35.5-11.8-37.4-30.6c-0.1-0.8-0.1-1.7-0.2-2.5c-0.3-5.4-9.1-5.4-8.8,0.3
			c0.5,23.5,19.9,42.2,43.5,41.8c1,0,1.9-0.1,2.9-0.2C341.8,105,341.5,96.2,336,96.6z"/>
		<path class="st5" d="M387.8,106c-7,10.1-19.5,14.9-31.5,11.8c-5.4-1.4-7.8,7.1-2.4,8.5c15.8,4.1,32.5-2.3,41.6-15.9
			C398.6,105.7,391.2,101.3,387.8,106z"/>
		<path class="st5" d="M345.9,67.8C334.5,57,334,39,344.8,27.6c1-1,2-1.9,3.1-2.8c4.4-3.4-1.7-9.8-6.1-6.1
			c-15.8,12.8-18.2,36.1-5.4,51.9c0.9,1.2,1.9,2.2,3,3.3C343.5,77.9,349.9,71.8,345.9,67.8z"/>
		<path class="st5" d="M606.8,431.2c-25.1,1.7-48.8-11.9-59.9-34.5c-2.7-5.1-10.2-0.7-7.8,4.4c12.9,25.4,39.6,40.7,68,38.9
			C612.5,439.7,612.5,430.9,606.8,431.2z"/>
		<path class="st5" d="M976,331.7c1-5.8-7.4-7.8-8.8-2.4c-8.1,39.1-39.9,69-79.5,74.4c-5.8,0.7-3.4,9.1,2,8.5
			C932.4,406.1,966.8,374,976,331.7z"/>
		<path class="st5" d="M905.6,330.1c-30.2,12.9-54.8,36.2-69.4,65.7c-2.4,5.1,5.1,9.5,7.8,4.4c13.6-28.1,37.1-50.3,66-62.3
			C915.4,335.5,911,328,905.6,330.1z"/>
		<path class="st6" d="M622.7,546.3c-17.3,7.6-37.4-0.3-45-17.6c-0.7-1.5-1.2-3.1-1.7-4.7c-1.7-5.4-10.2-3-8.5,2.4
			c7.8,24.7,33.2,37.9,57.5,28.4C630.1,552.7,628.1,544.3,622.7,546.3z"/>
		<path class="st6" d="M888.3,630.9c-23,15.6-51.1,7.8-62.9-16.9c-2.7-5.1-10.2-0.7-7.8,4.4c11.8,25.4,41.9,36.5,67.4,24.8
			c2.7-1.3,5.3-2.7,7.7-4.4C897.5,635.6,893.1,627.8,888.3,630.9z"/>
		<path class="st6" d="M721.1,674.9c-12.6,14-34.2,15.2-48.3,2.6c-6.7-6.1-10.8-14.5-11.3-23.6c-0.3-5.8-9.1-5.8-8.8,0
			c1.2,23.7,21.4,42,45.1,40.8c11.2-0.6,21.8-5.5,29.4-13.7c2-1.3,2.6-4.1,1.3-6.1c-1.3-2-4.1-2.6-6.1-1.3
			C721.9,673.9,721.5,674.4,721.1,674.9z"/>
		<path class="st7" d="M320.5,813c-1.5-0.1-2.8-1-3.4-2.4c-0.8-1.7-0.1-3.7,1.5-4.5c0.2-0.1,0.3-0.1,0.5-0.2
			c0.7-0.3,70.7-30.1,124.9-82.9c1.6-1.3,3.9-1,5.2,0.6c1.1,1.4,1.1,3.5-0.2,4.8c-54.8,53.8-126.6,83.9-127.2,84.3L320.5,813z"/>
		<path class="st7" d="M113,857.6h-10.2c-1.9,0-3.4-1.5-3.4-3.4c0-0.1,0-0.2,0-0.4c0-1.9,1.5-3.5,3.4-3.7h0.3
			c0.7,0,68,1.4,108.6-7.8c40.6-9.1,82.6-26.4,83.2-26.4c1.7-1.1,4-0.7,5.2,1c1.1,1.7,0.7,4-1,5.2c-0.4,0.3-0.9,0.5-1.4,0.6
			c-27.3,11.3-55.5,20.4-84.3,27.1C181.1,856.9,133.7,857.6,113,857.6z"/>
	</g>
</g>
</svg>
