<?xml version="1.0" encoding="UTF-8"?>
<svg xmlns="http://www.w3.org/2000/svg" viewBox="0 0 414.96 584.55">
  <defs>
    <style>
      .cls-1, .cls-2 {
        fill: #ef3737;
      }

      .cls-3 {
        fill: #ffd622;
      }

      .cls-3, .cls-4, .cls-5 {
        mix-blend-mode: screen;
      }

      .cls-6 {
        fill: #fa9f34;
      }

      .cls-4 {
        opacity: .5;
      }

      .cls-7, .cls-8 {
        fill: #fff;
      }

      .cls-9 {
        isolation: isolate;
      }

      .cls-10 {
        fill: #bfbfbf;
      }

      .cls-2, .cls-11 {
        mix-blend-mode: multiply;
        opacity: .3;
      }

      .cls-12 {
        fill: #30f4f9;
      }

      .cls-8 {
        opacity: .4;
      }

      .cls-13 {
        fill: #ffd62c;
      }

      .cls-14 {
        fill: #ccc;
      }

      .cls-15 {
        fill: #fefefe;
      }
    </style>
  </defs>
  <g class="cls-9">
    <g id="Calque_1">
      <g>
        <g>
          <path class="cls-6" d="M219.89,458.42s-40.04-31.2-40.04-31.2c-.24-3.86-.44-5.97-.44-5.97l-4.38,2.21-8.64-6.73s-.78,4.38-1.73,11.42c0,0-55.6-20.55-55.63-20.56-1.55-.57-7.7,3.14-9.25,3.83-3.54,1.6-7.03,3.32-10.44,5.19-7.07,3.88-13.91,8.38-19.82,13.9-8.37,7.82-15.06,19.08-13.84,30.92,1.18,11.42,9.91,21.97,21.8,22.68-10.27,20.28-24.12,55.98-12.55,84.54,15.09,37.26,88.01,2.96,108.43-40.73,3.53,3.97,8,6.42,13.64,6.75,11.41.67,21.71-4.13,27.64-14.11,6.59-11.1,7.79-25.41,7.58-38.04-.1-5.79-.54-11.58-1.28-17.32-.13-1.04-.13-6.09-1.04-6.8Z"/>
          <g class="cls-4">
            <path class="cls-6" d="M179.63,424.08c-.14-1.84-.23-2.83-.23-2.83l-2.07,1.04,2.29,1.79Z"/>
            <path class="cls-6" d="M173.12,527.95c2.82,2.73,4.98,5.54,13.19,6.65-2.88-1.16-9.83-6.66-11.97-9.06-.38.81-.81,1.61-1.22,2.41Z"/>
            <path class="cls-6" d="M170.11,429.44c.52-3.82.97-6.82,1.29-8.8l-5.02-3.91s-.73,4.1-1.63,10.73c3.31,1.22,5.36,1.98,5.36,1.98Z"/>
            <path class="cls-6" d="M76.59,484.02c-8.57-3.32-14.5-12.02-15.46-21.29-1.22-11.83,5.47-23.1,13.84-30.92,5.91-5.52,12.74-10.02,19.82-13.9,3.41-1.87,6.9-3.59,10.44-5.19,1.22-.55,5.29-2.95,7.72-3.67-2.45-.9-3.92-1.45-3.93-1.45-1.55-.57-7.7,3.14-9.25,3.83-3.54,1.6-7.03,3.32-10.44,5.19-7.07,3.88-13.91,8.38-19.82,13.9-8.37,7.82-15.06,19.08-13.84,30.92,1.15,11.13,9.48,21.41,20.92,22.58Z"/>
            <path class="cls-6" d="M70.39,569.94c-11.57-28.56,2.28-64.26,12.55-84.54-1.94-.12-3.79-.52-5.54-1.12-10.26,20.3-24,55.89-12.47,84.37,3.8,9.37,11.26,14.21,20.62,15.51-6.77-2.22-12.14-6.77-15.16-14.23Z"/>
          </g>
          <path class="cls-13" d="M127.88,417.47s-44.18,5.4-46.11,32.05c-1.93,26.65,61.94-1.32,76.09-11.26,14.15-9.94-17.59-29.08-29.98-20.79Z"/>
          <path class="cls-13" d="M143.11,421.58s-50.42,55.55-46.24,99.87c4.17,44.31,63.9-12.98,74.5-53.37,10.6-40.39-8.99-58.38-28.26-46.49Z"/>
          <path class="cls-13" d="M166.23,460.73s8.35,50,25.37,48.78c17.02-1.22,17.33-38.83,11.44-60.63-5.89-21.79-21.21-46.88-28.68-22.16-7.48,24.73-8.12,34-8.12,34Z"/>
          <path class="cls-3" d="M128.71,463.8c4.46,2.13,2.93,14.61-3.4,27.88-6.34,13.27-15.08,22.3-19.54,20.17-4.46-2.13-2.93-14.61,3.4-27.88,6.34-13.27,15.08-22.3,19.54-20.17Z"/>
          <path class="cls-3" d="M107.65,427.4c1.65,2.05-1.28,7.16-6.56,11.41-5.28,4.25-10.89,6.03-12.55,3.97s1.28-7.16,6.56-11.41c5.28-4.25,10.89-6.03,12.55-3.97Z"/>
          <path class="cls-3" d="M192.73,477.75c3.1.24,5.25,5.09,4.81,10.84-.44,5.75-3.31,10.22-6.4,9.98-3.1-.24-5.25-5.09-4.81-10.84.44-5.75,3.31-10.22,6.4-9.98Z"/>
        </g>
        <g>
          <g>
            <path class="cls-1" d="M355.84,348.6s54.73,61.04,45.34,83.42-74.03,118.75-96.15,105.81c-22.12-12.95,22.05-102.51-15.59-116.41-37.64-13.91,44.36-100.29,66.4-72.82Z"/>
            <path class="cls-2" d="M355.84,348.6s4.94,5.52,11.58,13.81c-.02,0-11.46-1.81-13.65,5.22-2.19,7.03-17.67,50.07-33.11,66.28-15.44,16.21-16.67,84.79-9.1,90.75,7.57,5.96,64.22-37.05,90.42-102.08.49,3.58.3,6.79-.81,9.44-9.39,22.38-74.03,118.75-96.15,105.81-22.12-12.95,22.05-102.51-15.59-116.41-37.64-13.91,44.36-100.29,66.4-72.82Z"/>
            <g class="cls-5">
              <path class="cls-1" d="M333.05,509.5c-1.01,0-2.01-.36-2.81-1.1-1.69-1.55-1.79-4.18-.24-5.86.03-.04,3.53-3.84,8.66-9.78,1.5-1.74,4.12-1.92,5.85-.43,1.73,1.5,1.92,4.12.43,5.85-5.23,6.05-8.7,9.82-8.84,9.98-.82.89-1.93,1.34-3.05,1.34Z"/>
            </g>
            <g class="cls-5">
              <path class="cls-1" d="M359.43,478.18c-.89,0-1.79-.29-2.54-.87-1.81-1.41-2.14-4.01-.73-5.82,16.13-20.75,25.66-36.81,27.57-46.44,2.91-14.71-17.22-39.52-25.22-47.84-1.59-1.65-1.54-4.28.11-5.87,1.65-1.59,4.28-1.54,5.86.11,3.25,3.38,31.65,33.62,27.38,55.2-2.18,11.05-11.99,27.85-29.16,49.93-.82,1.05-2.04,1.6-3.28,1.6Z"/>
            </g>
          </g>
          <g>
            <path class="cls-1" d="M128.03,235.13s-81.69-6.91-93.9,14.07c-12.21,20.98-50.18,130.63-26.53,140.48,23.66,9.85,68.53-79.36,102.31-57.69,33.78,21.67,53.32-95.83,18.12-96.86Z"/>
            <path class="cls-2" d="M128.03,235.13s-7.38-.62-18-.92c.01.01,8.35,8.06,4.06,14.03-4.3,5.98-29.32,44.27-32.95,66.36-3.64,22.09-57.63,64.38-66.95,61.94-9.32-2.45-9.12-73.58,27-133.67-3.15,1.76-5.6,3.85-7.05,6.34-12.21,20.98-50.18,130.63-26.53,140.48,23.66,9.85,68.53-79.36,102.31-57.69,33.78,21.67,53.32-95.83,18.12-96.86Z"/>
            <g class="cls-5">
              <path class="cls-1" d="M16.66,351.92c-.25,0-.49-.02-.75-.07-2.25-.41-3.75-2.57-3.34-4.82.04-.21.95-5.24,2.63-13.06.48-2.24,2.68-3.65,4.93-3.18,2.24.48,3.67,2.69,3.18,4.93-1.65,7.68-2.57,12.75-2.58,12.81-.36,2-2.11,3.41-4.08,3.41Z"/>
            </g>
            <g class="cls-5">
              <path class="cls-1" d="M25.76,311.99c-.36,0-.72-.05-1.08-.15-2.21-.6-3.52-2.87-2.93-5.08,7.28-27,14.78-44.95,22.28-53.35,14.66-16.4,55.9-11.96,60.56-11.4,2.28.27,3.9,2.34,3.62,4.61-.27,2.27-2.32,3.89-4.61,3.62-11.46-1.37-43.39-2.49-53.38,8.69-6.54,7.33-13.62,24.61-20.46,49.98-.5,1.85-2.17,3.07-4,3.07Z"/>
            </g>
          </g>
          <path class="cls-1" d="M205.04,464.01l-78.72-39.21c-19.13-9.53-26.91-32.76-17.38-51.89l5.17-10.38c9.53-19.13,32.76-26.91,51.89-17.38l78.72,39.21c19.13,9.53,26.91,32.76,17.38,51.89l-5.17,10.38c-9.53,19.13-32.76,26.91-51.89,17.38Z"/>
          <g class="cls-11">
            <path class="cls-1" d="M205.04,464.01l-78.72-39.21c-19.13-9.53-26.91-32.76-17.38-51.89l5.17-10.38c9.53-19.13,32.76-26.91,51.89-17.38l78.72,39.21c19.13,9.53,26.91,32.76,17.38,51.89l-5.17,10.38c-9.53,19.13-32.76,26.91-51.89,17.38Z"/>
          </g>
          <rect class="cls-1" x="141.02" y="346.8" width="88.98" height="115.56" rx="32.35" ry="32.35" transform="translate(-259.34 390.26) rotate(-63.52)"/>
          <g class="cls-11">
            <rect class="cls-1" x="141.02" y="384.14" width="88.98" height="40.88" rx="19.24" ry="19.24" transform="translate(-259.34 390.27) rotate(-63.52)"/>
          </g>
          <path class="cls-15" d="M327.3,411.72c-15.7,31.52-80.56,31.1-144.88-.93-64.32-32.03-103.73-83.55-88.03-115.07C167.33,149.28,320.83-28.25,385.14,3.79c64.32,32.03,15.1,261.5-57.84,407.93Z"/>
          <path class="cls-10" d="M193.71,388.13c-64.05-31.9-107.53-74.8-97.47-96.06-.61,1.21-1.24,2.43-1.84,3.64-15.7,31.52,23.71,83.04,88.03,115.07,64.32,32.03,129.18,32.45,144.88.93.6-1.21,1.2-2.44,1.8-3.66-10.91,20.83-71.35,11.98-135.39-19.92Z"/>
          <path class="cls-1" d="M314.54,145.53c31.22,15.55,63.13,24.02,92.03,25.78,14.68-82.58,11.59-151.08-21.43-167.53-33.02-16.45-89.55,22.36-146.62,83.83,18.82,22.01,44.8,42.37,76.02,57.92Z"/>
          <path class="cls-2" d="M314.54,145.53c31.22,15.55,63.13,24.02,92.03,25.78,10.72-60.32,11.95-113.1-1.03-143.6.4,2.17,8.56,48.31-14.73,79.01-23.84,31.42-124.27-41.36-116.41-54.72-11.79,10.66-23.82,22.62-35.88,35.6,18.82,22.01,44.8,42.37,76.02,57.92Z"/>
          <path class="cls-7" d="M409.95,152.35c-28.31-3.06-58.02-12.01-85.9-25.9-27.88-13.89-52.92-32.2-72.42-52.95l13.61-12.78c18,19.16,41.22,36.11,67.14,49.02,25.93,12.91,53.44,21.23,79.58,24.06l-2.01,18.56Z"/>
          <circle class="cls-1" cx="262.01" cy="251.01" r="77.63" transform="translate(-100.75 258.79) rotate(-45)"/>
          <g class="cls-5">
            <path class="cls-1" d="M321.93,215.45c-.69,0-1.37-.34-1.76-.97-1.99-3.17-4.24-6.19-6.71-8.98-.76-.86-.68-2.17.18-2.93.86-.76,2.17-.68,2.93.18,2.62,2.96,5.01,6.16,7.11,9.52.61.97.31,2.25-.66,2.86-.34.21-.72.32-1.1.32Z"/>
          </g>
          <g class="cls-5">
            <path class="cls-1" d="M331.93,242.28c-1.01,0-1.89-.73-2.05-1.76-.14-.89-.3-1.78-.47-2.66-.22-1.13.51-2.21,1.64-2.44,1.14-.23,2.21.51,2.43,1.64.18.94.35,1.88.5,2.83.17,1.13-.6,2.19-1.73,2.37-.11.02-.21.02-.32.02Z"/>
          </g>
          <g class="cls-5">
            <path class="cls-1" d="M325.33,284.62c-.31,0-.63-.07-.92-.22-1.03-.51-1.44-1.76-.93-2.78,4.75-9.54,7.18-19.74,7.22-30.32,0-1.14.93-2.07,2.07-2.07h0c1.14,0,2.07.94,2.07,2.08-.04,11.22-2.62,22.04-7.65,32.15-.36.73-1.1,1.15-1.86,1.15Z"/>
          </g>
          <circle class="cls-2" cx="262.01" cy="251.01" r="63.48" transform="translate(-82.82 138.1) rotate(-25.64)"/>
          <circle class="cls-12" cx="262.01" cy="251.01" r="54.89" transform="translate(-63.98 410.33) rotate(-69.82)"/>
          <path class="cls-8" d="M303.16,234.39c-.31,6.05-1.83,12.14-4.7,17.9-11.17,22.44-38.42,31.56-60.86,20.39-8.64-4.3-15.29-10.99-19.59-18.87-.89,17.48,8.42,34.65,25.09,42.95,22.44,11.17,49.68,2.05,60.86-20.39,6.87-13.8,6.06-29.41-.8-41.99Z"/>
          <rect class="cls-14" x="170.57" y="184.3" width="4.15" height="44.4" transform="translate(-89.16 268.98) rotate(-63.52)"/>
          <rect class="cls-14" x="349.29" y="273.31" width="4.15" height="44.4" transform="translate(-69.8 478.28) rotate(-63.52)"/>
          <path class="cls-14" d="M191.09,196.67c1.52-3.05.28-6.75-2.77-8.26-3.05-1.52-6.75-.28-8.26,2.77-1.52,3.05-.28,6.75,2.77,8.26,3.05,1.52,6.75.28,8.26-2.77Z"/>
          <path class="cls-14" d="M177.89,223.16c1.52-3.05.28-6.75-2.77-8.26-3.05-1.52-6.75-.28-8.26,2.77-1.52,3.05-.28,6.75,2.77,8.26,3.05,1.52,6.75.28,8.26-2.77Z"/>
          <path class="cls-14" d="M353.62,277.62c1.52-3.05.28-6.75-2.77-8.26-3.05-1.52-6.75-.28-8.26,2.77-1.52,3.05-.28,6.75,2.77,8.26s6.75.28,8.26-2.77Z"/>
          <path class="cls-14" d="M340.42,304.11c1.52-3.05.28-6.75-2.77-8.26-3.05-1.52-6.75-.28-8.26,2.77s-.28,6.75,2.77,8.26c3.05,1.52,6.75.28,8.26-2.77Z"/>
          <path class="cls-8" d="M271.17,214c1.38,6.63-5.29,13.62-14.89,15.61-9.6,1.99-18.5-1.77-19.87-8.4-1.38-6.63,5.29-13.62,14.89-15.61,9.6-1.99,18.5,1.77,19.87,8.4Z"/>
          <path class="cls-8" d="M286.12,231.3c.73,3.53-2.82,7.25-7.93,8.31s-9.85-.94-10.58-4.47c-.73-3.53,2.82-7.25,7.93-8.31,5.11-1.06,9.85.94,10.58,4.47Z"/>
        </g>
        <g class="cls-5">
          <ellipse class="cls-1" cx="339.17" cy="39.75" rx="43.76" ry="23.32" transform="translate(34.46 193.93) rotate(-33.52)"/>
        </g>
      </g>
    </g>
  </g>
</svg>