<?xml version="1.0" encoding="UTF-8"?>
<svg id="Layer_1" xmlns="http://www.w3.org/2000/svg" viewBox="0 0 1103.38 1722.99">
  <defs>
    <style>
      .cls-1 {
        fill: #1e110e;
      }

      .cls-2 {
        fill: #8e4f3d;
      }

      .cls-3 {
        fill: #3d3d44;
      }

      .cls-4 {
        fill: #aa6750;
      }

      .cls-5 {
        fill: #efefef;
      }

      .cls-6 {
        fill: #423129;
      }

      .cls-7 {
        fill: #252528;
      }

      .cls-8 {
        fill: #2b1c19;
      }

      .cls-9 {
        fill: #d9e2e8;
      }
    </style>
  </defs>
  <path class="cls-4" d="M681.27,1071.75s36.81,60.46,58.28,90.72,39.04,66.37,41.97,72.71c2.93,6.34-8.3,105.41,6.34,147.38,14.64,41.97,29.28,97.6,38.55,132.74,9.27,35.14,16.59,118.59,16.59,118.59,0,0,23.42,16.1,26.84,16.1s33.67-2.44,38.55-6.83c4.88-4.39,31.23-42.46,31.23-42.46,0,0-30.26-61-30.26-109.32s-5.37-132.25-7.32-174.22c-1.95-41.97-3.9-112.73-7.32-128.35-3.42-15.62-43.79-162.71-43.79-162.71,0,0-80.66-6.15-85.54-6.15s-80.52,11.71-81.01,13.18c-.49,1.46-3.13,38.61-3.13,38.61Z"/>
  <path class="cls-4" d="M854.97,499.98l57.34,30.87-7.5,47.03s-69.54-19.22-69.36-19.76,19.52-58.14,19.52-58.14Z"/>
  <path class="cls-4" d="M657.96,1125.86s-49.2,183.5-114.1,172.27c-64.91-11.22-131.28-60.51-207.41-110.29-76.13-49.78-123.96-67.35-184.96-69.3,0,0-17.08-20.01-11.22-40.99,5.86-20.98,71.74-45.39,71.74-45.39,0,0,29.28,24.51,84.43,39.58,55.15,15.07,127.37,30.69,154.21,52.16,26.84,21.47,44.9,33.19,51.73,33.67,6.83.49,22.32-54.4,22.94-125.42l67.83,37.58,65.77,53.91-.95,2.21Z"/>
  <path class="cls-3" d="M586.31,716.41s-34.89,40.63-42.58,80.89c-7.69,40.26.37,86.01-5.12,103.58-5.49,17.57-25.5,155.68-25.5,155.68,0,0,86.12,34.65,109.67,49.77,23.56,15.13,35.17,19.52,35.17,19.52l23.31-54.12s67.34-1.21,99.68-9.84c47.92-12.78,80.85-25.84,80.85-25.84,0,0-55.39-114.2-69.06-157.14-13.66-42.95-14.76-86.38-14.76-86.38,0,0-19.89-55.63-21.84-58.56-1.95-2.93-64.42-36.11-78.08-39.53-13.66-3.42-91.75,21.96-91.75,21.96Z"/>
  <path class="cls-4" d="M713.2,238.76s-32.46,10.49-59.91,21.1c-27.45,10.61-50.1,30.16-76.45,55.05-26.35,24.89-71.17,49.76-96.79,85.26-25.62,35.5-43.79,57.4-48.18,76.79-4.39,19.4,5.35,64.49,31.34,106.58,22.77,36.89,71.37,113.46,71.37,113.46l44.65-28.55s-34.41-74.3-38.07-101.39-10.98-84.92-10.98-84.92c0,0,55.63-25.99,71.37-36.97,0,0,105.29,46.24,114.07,45.26,8.78-.98,66.86-20.01,82.96-34.65,16.1-14.64,33.67-82.48,34.16-102.48.49-20.01-65.39-110.54-119.56-114.56Z"/>
  <path class="cls-9" d="M601.57,445.2l26.72-14.27s67.35,16.59,108.83,0c41.48-16.59,32.7-71.74,15.62-106.88-17.08-35.14-33.33-73.2-74.49-73.2,0,0,13.47-8.83,31.78-11,0,0,22.7,23.2,45.15,52,22.45,28.79,64.91,70.27,71.25,65.88,6.34-4.39-15.02-45.73-15.02-45.73,0,0,30.64,36.45,41.38,62.32,10.74,25.86,14.15,110.29-2.44,163.97-16.59,53.68-42.7,95.41-50.75,136.4-8.05,40.99-21.59,117.86-21.59,117.86,0,0-36.48-37.09-79.43-45.87-42.95-8.78-108.34-17.08-112.24-30.26-3.9-13.18,22.94-93.7,24.89-133.23,1.95-39.53-19.19-132.34-19.19-132.34l9.55-5.65Z"/>
  <path class="cls-2" d="M722.04,435.38c-32.33-14.5-44.34-51.67-44.34-51.67-20.86,30.38-49.41,47.22-49.41,47.22,0,0,52.85,13.02,93.75,4.45Z"/>
  <path class="cls-4" d="M534.58,697.01s13.18,46,20.74,58.93c7.56,12.93,32.94,32.58,38.43,33.67,5.49,1.1,12.81.37,17.32-6.59,0,0,5.12,1.95,10.61-1.34,5.49-3.29,6.59-9.64,6.59-9.64,0,0,5.73,4.39,12.44.61,6.71-3.78,5.98-9.76,5.98-9.76,0,0,8.17-3.17,10.49-7.81,2.32-4.64-7.56-24.28-7.56-24.28,0,0,5.46,1.22,7.92-5.98,2.45-7.2-6.82-17.45-9.75-25.74-2.93-8.3-6.1-10.98-17.69-14.76-11.59-3.78-50.88-15.86-50.88-15.86,0,0-23.24,6.95-27.09,7.5-3.84.55-17.57,21.05-17.57,21.05Z"/>
  <g>
    <path class="cls-2" d="M641.83,716.05l7.81,14.76s3.23.99,5.18-1.56c0,0-11.7-13.75-12.98-13.2Z"/>
    <path class="cls-2" d="M646.71,762.9s-10.74-13.18-9.64-14.27,13.93,12.16,13.93,12.16l-4.29,2.12Z"/>
    <path class="cls-2" d="M628.28,772.05s-10.25-10.61-10.98-10.37,9.35,14.72,9.35,14.72c0,0,1.87-2.16,1.63-4.35Z"/>
    <path class="cls-2" d="M611.08,783.03s-8.91-8.78-9.27-8.78,6.98,11.6,6.98,11.6l2.3-2.81Z"/>
  </g>
  <path class="cls-4" d="M912.31,530.84s7.32-4.27,10.74-9.39c3.42-5.12,9.88-7.81,15.13-5.86,5.25,1.95,26.23,4.27,27.09,4.27s20.5,2.56,22.69,2.56,5.61,5.37,4.39,12.32c-1.22,6.95,5.49,13.05,4.39,18.06-1.1,5-4.15,7.69-4.64,12.69-.49,5-2.81,10.37-5.25,15.25s-3.17,20.62-13.91,21.47c-10.74.85-25.13,1.34-42.34-7.2-17.2-8.54-26.62-17.37-26.62-17.37,0,0-4.98-17.16-4.25-23.5.73-6.34,12.57-23.3,12.57-23.3Z"/>
  <path class="cls-2" d="M928.66,531.58c-.38-.68,8.42,9.52,9.15,15.62.73,6.1,4.15,18.06,12.32,17.69,8.17-.37,8.54-19.76,6.95-26.47-1.59-6.71-8.17-13.18-7.81-14.27.37-1.1,19.64.49,20.62,2.2.98,1.71-10.98,7.32-10.98,7.32,0,0,1.59,3.17,1.71,9.39.12,6.22.24,10.86.24,10.86,0,0,15.01-2.93,21.11-6.95,6.1-4.03,10.25-11.21,10.25-11.21l.48,4.2s-4.52,6.64-10.01,10.18c-5.49,3.54-22.02,7.32-22.02,7.32,0,0-.92,4.51-3.72,6.83,0,0,1.83,3.66,7.2,3.78,5.37.12,18.54-1.71,21.59-2.93,3.05-1.22,9.02-7.14,9.02-7.14l-2.16,4.92s-4.05,5.03-7.1,5.88c-3.05.85-16.59,2.56-21.59,2.44-5-.12-16.84-3.4-19.28,0-2.44,3.41-3.17,9.14,9.15,13.54s32.46-2.52,32.46-2.52l-.75,2.52s-8.77,5.98-23.05,4.39c-14.27-1.59-16.23-3.9-18.54-1.34s.12,11.22,13.3,13.91l-1.09.61s-10.38-.37-15.02-7.81c-4.64-7.44,2.07-10.61,2.07-10.61,0,0-4.76-3.66-4.64-8.78.12-5.12,4.15-8.3,4.15-8.3,0,0-5.98-4.51-7.44-13.42-1.46-8.91-4.51-18.06-6.59-21.84Z"/>
  <path class="cls-7" d="M681.27,1071.75s-96.42-90.83-137.42-218.2c0,0,0,29.77,31.23,90.77,31.23,61,96.76,149.3,96.76,149.3l9.42-21.87Z"/>
  <path class="cls-5" d="M925.71,1567.47c-39.9,29.79-71.52,30.17-86.64,27.83,2.47,21.74,3.95,38.58,3.95,38.58,0,0,23.42,16.1,26.84,16.1s33.67-2.44,38.55-6.83c4.88-4.39,31.23-42.46,31.23-42.46,0,0-6.79-13.69-13.93-33.23Z"/>
  <path class="cls-5" d="M212,1032.16s-65.88,24.4-71.74,45.39c-5.86,20.98,11.22,40.99,11.22,40.99,17.72.57,34.32,2.46,50.83,6.07,7.57-36.15,20.11-64.6,28.39-79.93-12.35-7.2-18.71-12.52-18.71-12.52Z"/>
  <path class="cls-4" d="M834.65,205.92h-85.89c.22,5.03-28.1,27.01-28.09,33.92,13.93,17.21,44.1,69.4,82.59,65.74-.2-5.16,19.14-33.18,31.39-51.55v-48.11Z"/>
  <path class="cls-6" d="M935.42,1591.57s-32.38,51.1-52.39,47.2c-20.01-3.9-38.55-20.98-43.92-16.1-5.37,4.88-10.74,82.48-5.37,88.82,5.37,6.34,75.16,18.06,166.9,6.83,91.75-11.22,110.78-49.78,100.04-68.32-10.74-18.54-92.72-6.83-124.44-26.84-31.72-20.01-28.45-33.4-40.82-31.58Z"/>
  <path class="cls-6" d="M182.6,1118.48s-19.28-54.58-2.33-65.9c16.95-11.32,42.15-12.26,42.52-19.51.37-7.25-50.47-66.11-58.75-66.83-8.28-.72-66.07,40.12-123.28,112.71-57.22,72.59-43.57,113.37-22.89,118.97,20.68,5.6,63.74-50.6,100.35-58.74,36.61-8.14,46.68,0,64.38-20.71Z"/>
  <polygon class="cls-2" points="530.19 482.16 524.84 446.72 538.16 478.4 530.19 482.16"/>
  <g>
    <g>
      <path class="cls-4" d="M720.33,177.07c4.84,8.59,8.89,15.6,8.89,15.6,0,0,3.88,19.42-17.88,46.87,2.29,2.43,75.59-1.8,114.11-4.68l29.98,6.6-32.92-16.45,15.52-31.06-100.94-50.44-16.76,33.55Z"/>
      <g>
        <path class="cls-4" d="M711.66,97.85c1.52-16.67,41.98-47.48,53.82-54.69,11.84-7.21,89.05-.92,89.05-.92,0,0,15.71,40.33,18.73,50.94,3.02,10.61,3.64,29.88,3.64,29.88.66-.19,9.73,11.67,13.4,16.09,4.46,5.36,12.85,15.34,10.57,17.59-4.29,4.23-12.69,4.8-12.69,4.8,0,0,.17,11.46.37,22.26h0l.17,8.67h0c.07,3.13.13,5.82.19,7.62.36,11.32,2.04,11.02,2.43,22.67.4,11.64-13.14,17.66-24.76,18.73-11.62,1.07-24.5-6.37-24.5-6.37-.14,5.02-13.04,7.95-12.12,14.69l-86-20.31c1.05-14.31-14.63-34.04-14.63-34.04,0,0-20.51-34.44-24.98-44.22-4.47-9.78,5.78-36.71,7.3-53.38Z"/>
        <path class="cls-2" d="M775.2,183.83s3.01,16.04,8.69,25.95c5.67,9.92,19.9,17.69,28.46,22,6.45,3.24,40.18-4.03,40.18-4.03l-18.2,26.76s-38.26-12.17-50.61-31.13c-7.42-11.4-8.52-39.56-8.52-39.56Z"/>
        <path class="cls-1" d="M866.4,120.12c1.22,5.05-.94,9.89-4.8,10.82-3.87.93-7.99-2.4-9.2-7.45-1.22-5.05.94-9.89,4.8-10.82,3.87-.93,7.99,2.4,9.2,7.45Z"/>
        <path class="cls-8" d="M873.88,95.72s1.3,5.58.46,7.28c-.84,1.7-18.19-.5-31,1.97l-12.81,2.46s4.67-8.08,14.11-11.74c9.43-3.66,26.73-2.4,29.24.03Z"/>
        <g>
          <path class="cls-8" d="M774.28,153.94s14.67,39.86,20.34,45.36c5.03,4.87,11.41,6.23,12.8,6.48l4.93,26c-12.59-5.2-21.03-12.71-23.14-15.3-7.15-8.8-9.28-12.66-12.84-25.45l-7.21-44.43,5.13,7.35Z"/>
          <path class="cls-8" d="M766.33,38.31l71.49-5.52,20.16,19.18c-7.22.47-13.87,1.32-22.89,3.03-40.38,5.1-59.99,18.85-59.99,18.85l7.14,29.87s-9.44,11.47-10.43,18.6c-.99,7.13.76,12.55,3.3,22.61,2.54,10.06,2.28,21.36,2.28,21.36l-3.3-4.51-6.87-22.94-2.47-3.37s-9.4-25.45-11.22-41.01c-1.68-14.41-2.22-36.05,12.81-56.16Z"/>
        </g>
        <path class="cls-8" d="M855.91,34.58c-12.85-25.54-34.83-40.72-84.65-32.2-49.83,8.52-64.23,35-64.23,35-34.26,24.23-29.02,62.12-16.39,95.52,12.63,33.4,38.69,67.1,38.69,67.1l19.97-35.05s-14.07-20.09-13.37-25.95c1.15-9.63,16.26-12.99,23.77-6.57,7.51,6.42,12.48,23.02,12.48,23.02l-7.69-57.37,6.77-35.96s49.88-16.02,52.69-16.71,34.01,6.57,34.01,6.57h0s1.53-10.26-2.06-17.38Z"/>
        <path class="cls-8" d="M839.55,173.01c3.97-1.45,34.3-8.82,39.12-9.28,2.32-.54,1.41-.54,9.5-1.14l.15,7.81s-2.07-.03-3.32.24c-4.21.91-6.1.97-6.1.97,0,0-1.69.6-5.98.99-4.29.39-13.95,3.33-16.53,3.91-2.59.58-8.92,6.39-8.92,6.39,0,0,3.25,25.27,4.92,27.33,1.67,2.06,3.75,4.51,9.42,4.37,5.67-.14,14.21-7.43,15.72-8.45,1.51-1.02,6.71-2.02,6.71-2.02,0,0,2.69-.35,4.86-.38.56,7.75,1.9,8.77,2.25,18.99.4,11.64-13.14,17.66-24.76,18.73-.94.09-1.99.13-3.08.16-7.32-3.85-16.05-9.43-23.85-14.89l-3.85-23.69c-.06-2.89-.47-28.5,3.74-30.04Z"/>
        <path class="cls-8" d="M807.42,205.78s15.51,3.97,32.99,2.04c9.41-1.04,10.36,12.5,10.36,12.5l13.74,21.28s-31.05,3.52-55.61-11.6l-1.48-24.23Z"/>
        <path class="cls-4" d="M735.14,139.81c-.1-6.77,8.05-17.11,15.69-14.45,2.37.83,8.5,5.3,12.76,11.51l4.18,7.34,5.49,33.82c-.01-.05-.03-.11-.04-.16-.09.1-5.68,6.05-9.41,4.23-3.76-1.83-13.11-9.52-17.45-16.69-4.34-7.17-11.13-18.84-11.23-25.61Z"/>
        <path class="cls-2" d="M747.61,167.29s8.82,13.87,26.18,18.31c0,0-10.89,13.18-30.84-7.88l4.66-10.43Z"/>
      </g>
    </g>
    <path class="cls-2" d="M888.22,179.62s-7.84,2.74-16.96,2.39c-4.95-.19-5.71,2.49-2.77,3.01,10.21,1.82,18.5.58,19.97-.44l-.24-4.96Z"/>
  </g>
</svg>