<?xml version="1.0" encoding="UTF-8"?>
<svg id="Layer_1" xmlns="http://www.w3.org/2000/svg" viewBox="0 0 2395.91 1050">
  <defs>
    <style>
      .cls-1 {
        fill: #b8e9f5;
      }

      .cls-2 {
        fill: #f0fbff;
      }

      .cls-3 {
        fill: #5d8f31;
      }

      .cls-4 {
        fill: #5e6a73;
      }

      .cls-5 {
        fill: #f2f2f2;
      }

      .cls-6 {
        fill: #94b530;
      }

      .cls-7 {
        fill: #6eab3a;
      }

      .cls-8 {
        fill: #9dc772;
      }

      .cls-9 {
        fill: #fff;
      }

      .cls-10 {
        fill: #dec28d;
      }

      .cls-11 {
        fill: #7bad53;
      }

      .cls-12 {
        fill: none;
      }

      .cls-13 {
        fill: #5c914e;
      }

      .cls-14 {
        fill: #71a664;
      }

      .cls-15 {
        fill: #76b343;
      }

      .cls-16 {
        fill: #5a8c2e;
      }

      .cls-17 {
        fill: #d4f4ff;
      }

      .cls-18 {
        fill: #649934;
      }

      .cls-19 {
        fill: #96c95c;
      }

      .cls-20 {
        fill: #80bf0e;
      }

      .cls-21 {
        fill: #82584a;
      }

      .cls-22 {
        fill: #91c230;
      }

      .cls-23 {
        fill: #784636;
      }

      .cls-24 {
        fill: #84bf79;
      }

      .cls-25 {
        fill: #639157;
      }
    </style>
  </defs>
  <rect class="cls-17" width="2395.91" height="541.41"/>
  <path class="cls-1" d="M2372.26,378.29v-29.51c0-3.84-1.94-6.96-4.33-6.96l-19.49-.39h-24.47c-1.99,0-3.61,2.6-3.61,5.81v27.01h-34.44v45.75h-4.94v-43.04h-12.65v-29.94h-38.9v26.24h-4.82v63.65h-24.96v-44.73h-18.83v-13.19h-11.38v-14.34h-18.83v49.89h-30.52v182.94l275.82.02v-219.19h-23.66Z"/>
  <path class="cls-1" d="M1946.7,380.97v10.07h-15.75v22.72h-6.14v-45.75h-42.88v-22.36h-23.76v23.27h-7.09v64.8h-37.61v-15.48h-11.45v-42.44h-27.25v-22.94h-14.17v19.5h-11.99v45.88h-28.15v-49.89h-23.44v14.34h-14.17v13.19h-23.44v44.73h-31.07v-63.65h-6v-26.24h-48.43v29.94h-15.75v43.04h-6.14v-45.75h-42.88v-27.01c0-3.21-2.01-5.81-4.49-5.81h-30.46l-24.27.39c-2.98,0-5.39,3.12-5.39,6.96v29.51h-62.05v-37.47h-13.37v-11h-19.92v11h-36.81v69.92h-48.68v-59.33c0-8.93-4.51-16.33-11.96-16.33h-30.1c-7.45,0-13.48,6.34-13.48,15.27v56.57l-10.55-.45v-23.37h-15.75v-10.73h-50.99v10.73h-15.75v9.37h-6.91v22.43h-22.25c-2.98,0-5.39,1.93-5.39,4.32v17.41h-49.49v-24.1h-6.92v-8.02h-15.75v-9.19h-50.98v9.19h-15.75v8.02h-6.92v19.75h-30.67v-13.93h-25.2v13.93h-10.07v5.3h-20.92v-20.18c0-2.63-2.28-4.76-5.08-4.76h-21.45v-45.59c0-4.33-4.37-7.84-9.76-7.84h-28.56c-5.39,0-9.76,3.51-9.76,7.84v74.04h-24.4v-31.03h-6.91v-22.72h-15.75v-10.07h-50.99v10.07h-15.75v22.72h-6.14v-45.75h-42.88v-22.36h-23.76v23.27h-7.09v64.8h-37.61v-15.48h-11.45v-42.44h-27.25v-22.94h-14.17v19.5h-11.99v42.36h-31.02v-69.92h-36.81v-11h-19.92v11h-13.37v37.47h-62.05v-29.51c0-3.84-2.41-6.96-5.39-6.96l-24.27-.39h-30.46c-2.48,0-4.49,2.6-4.49,5.81v27.01h-42.88v45.75h-6.15v-43.04h-15.75v-29.94h-48.43v26.24h-6v63.65h-31.07v-44.73h-23.44v-13.19h-14.17v-14.34h-23.44v49.89H0v182.93l1956.69.09v-220.57h-9.99Z"/>
  <path class="cls-14" d="M1423.64,574.02c-45.48-39.69-158.68-88.83-354.44-88.83-141.52,0-263.64,20.79-320.46,50.84v75.97c56.82,30.06,178.95,50.85,320.46,50.85,195.75,0,393.21-54.99,354.44-88.83Z"/>
  <path class="cls-13" d="M8.24,448.7c3.47-1.04,7.62-1.55,11.92-1.3,4.28.25,8.03,1.21,10.82,2.62,3.23-2.34,8.91-3.75,14.91-3.4,2.46.14,4.7.57,6.63,1.2,4.05-2.87,11.73-4.73,20.44-4.83,8.38,1.09,14.82,3.78,17.19,7.02,2.2-.39,4.61-.54,7.07-.4,6.01.35,10.75,2.36,12.61,5,3.46-1.04,7.61-1.55,11.9-1.3,4.3.25,8.04,1.22,10.84,2.63,4.02-4.2,15.29-6.84,27.65-6.12,11.08.65,21.78,3.27,22.72,7.71,1.72-.62,2.78-1.07,5.09-1.29,7.58-.7,17.4,1.8,18.37,7,17.63,2.42,13.84,17.78,13.84,17.78l-220.23,1.45v-39.95c4.41,1.64,7.39,3.81,8.24,6.17Z"/>
  <g>
    <path class="cls-19" d="M1093.8,570.12c-21.23-6.56-43.14-12.85-65.69-18.85-146.07-38.85-319.08-65.59-506.72-75.26-16.86-.87-33.84-1.61-50.92-2.2-11.6-.4-458.95-.72-470.46-.99v88.69c52.15-.45,1060.63,7.15,1093.8,8.61Z"/>
    <path class="cls-12" d="M581.84,556.3c.45,2.24.68,4.41.73,6.52,190.61,2.15,489.02,6.27,512.51,7.3-21.23-6.56-43.14-12.85-65.69-18.85-125.89-33.48-271.79-57.95-429.81-70.28-17.12,11.4-26.36,23.74-26.29,37.5-.09,12.38,6.48,25.5,8.55,37.81Z"/>
    <path class="cls-10" d="M581.84,556.3c-2.07-12.31-8.64-25.43-8.55-37.81-.07-13.75,9.17-26.1,26.29-37.5-6.65-.52-13.31-1.02-20-1.49-16.21,9.5-26.13,19.51-30.64,31.06-5.85,14.77-2.68,30.37-6.09,44.35-.82,2.57-1.94,5.04-3.31,7.43,13.54.14,27.95.3,43.03.47-.06-2.12-.29-4.28-.73-6.52Z"/>
  </g>
  <path class="cls-11" d="M15.38,482.18c13.49.95,26.87,2.04,40.15,3.27,26.87,2.48,53.31,5.52,79.25,9.09,48.06,6.61,94.42,15.02,138.69,25.08,42.39,9.63,82.87,20.76,121.11,33.24-3.48,1.43-43.54,3.37-97.1,5.36-26.53.99-56.38,1.99-86.73,2.94-20.79.66-41.81,1.29-62.17,1.89-19.76.58-38.89,1.13-56.58,1.62-16.73.47-32.17.89-45.62,1.25-21.44.58-37.84,1-46.38,1.22v-86c5.14.32,10.27.67,15.38,1.03Z"/>
  <path class="cls-13" d="M1321.51,536.23c-2-6.21-10.84-8.55-17.07-7.19-1.9.42-2.68,1.04-3.99,1.9-1.81-5.28-11.42-7.72-20.9-7.74-10.59-.02-19.47,3.93-21.9,9.27-2.67-1.51-6.05-2.42-9.73-2.42-3.67,0-7.05.89-9.73,2.38-2.17-3.05-6.62-5.16-11.76-5.17-2.1,0-4.09.35-5.86.96-2.74-3.75-8.77-6.54-16.09-7.29-7.32.71-13.36,3.49-16.12,7.22-1.77-.62-3.75-.98-5.86-.99-5.14,0-9.6,2.07-11.79,5.12-2.67-1.51-6.05-2.41-9.72-2.42-3.68,0-7.06.89-9.74,2.38-2.41-5.35-11.27-9.34-21.86-9.36-9.48-.02-19.1,2.38-20.93,7.65-1.3-.86-2.08-1.49-3.98-1.92-6.22-1.39-15.08.92-17.1,7.12-15.41,1.65-15.81,20.42-15.81,20.42l132.82.27,132.82.27s-.31-18.77-15.72-20.48Z"/>
  <path class="cls-13" d="M851.02,543.23c-2-6.21-10.84-8.55-17.07-7.19-1.9.42-2.68,1.04-3.99,1.9-1.81-5.28-11.42-7.72-20.9-7.74-10.59-.02-19.47,3.93-21.9,9.27-2.67-1.51-6.05-2.42-9.73-2.42-3.67,0-7.05.89-9.73,2.38-2.17-3.05-6.62-5.16-11.76-5.17-2.1,0-4.09.35-5.86.96-2.74-3.75-8.77-6.54-16.09-7.29-7.32.71-13.36,3.49-16.12,7.22-1.77-.62-3.75-.98-5.86-.99-5.14,0-9.6,2.07-11.79,5.12-2.67-1.51-6.05-2.41-9.72-2.42-3.68,0-7.06.89-9.74,2.38-2.41-5.35-11.27-9.34-21.86-9.36-9.48-.02-19.1,2.38-20.93,7.65-1.3-.86-2.08-1.49-3.98-1.92-6.22-1.39-15.08.92-17.1,7.12-15.41,1.65-15.81,20.42-15.81,20.42l132.82.27,132.82.27s-.31-18.77-15.72-20.48Z"/>
  <g>
    <path class="cls-21" d="M1032.35,527.15c.48,2.4,1.38,4.87,1.71,7.54.05.05.1.1.16.14.53-3.05,1.32-5.77,2.05-8.24l.98-3.28,1.55,1.76-.98,3.28c-.84,2.87-1.71,5.83-2.13,9.14h0v17.81h-3.18v-16.55c-.07-1.36-.19-2.7-.33-4.03-.02-.21-.05-.45-.06-.68-.28-1.89-1.06-3.72-1.44-5.62-.34-1.73-.7-3.52-.99-5.4l1.71-1.05c.28,1.75.62,3.49.95,5.17Z"/>
    <g>
      <path class="cls-13" d="M1010.53,509.11c0-5.28,2.1-10.21,5.91-13.88,1.79-8.67,9.25-14.96,17.81-14.96,9.93,0,18.05,8.35,18.21,18.65,3.5,2.93,5.5,7.27,5.5,11.95,0,8.46-6.62,15.35-14.75,15.35-1.19,0-2.38-.15-3.53-.45-2.96,1.73-6.33,2.64-9.78,2.64-10.68,0-19.37-8.66-19.37-19.31Z"/>
      <path class="cls-16" d="M1016.44,495.23s-4,7.59-4,12.02c0,10.65,8.69,19.31,19.37,19.31,3.44,0,4.87-.7,7.83-2.43,1.15.29,4.28.23,5.47.23,3.42,0,6.57-1.22,9.07-3.26-2.7,3.13-6.62,5.11-10.98,5.11-1.19,0-2.38-.15-3.53-.45-2.96,1.73-6.33,2.64-9.78,2.64-10.68,0-19.37-8.66-19.37-19.31,0-5.28,2.1-10.2,5.9-13.88Z"/>
    </g>
  </g>
  <g>
    <path class="cls-21" d="M30.09,527.15c.59,2.4,1.72,4.87,2.14,7.54.06.05.13.1.2.14.66-3.05,1.65-5.77,2.55-8.24l1.22-3.28,1.93,1.76-1.22,3.28c-1.05,2.87-2.13,5.83-2.66,9.14h0v17.81h-3.96v-16.55c-.09-1.36-.23-2.7-.41-4.03-.03-.21-.06-.45-.08-.68-.35-1.89-1.32-3.72-1.79-5.62-.43-1.73-.87-3.52-1.24-5.4l2.13-1.05c.35,1.75.77,3.49,1.19,5.17Z"/>
    <g>
      <path class="cls-13" d="M2.87,509.11c0-5.28,2.61-10.21,7.37-13.88,2.24-8.67,11.54-14.96,22.21-14.96,12.39,0,22.52,8.35,22.71,18.65,4.37,2.93,6.87,7.27,6.87,11.95,0,8.46-8.25,15.35-18.4,15.35-1.49,0-2.97-.15-4.4-.45-3.69,1.73-7.9,2.64-12.2,2.64-13.32,0-24.16-8.66-24.16-19.31Z"/>
      <path class="cls-16" d="M10.24,495.23s-4.99,7.59-4.99,12.02c0,10.65,10.84,19.31,24.16,19.31,4.29,0,6.08-.7,9.77-2.43,1.44.29,5.34.23,6.83.23,4.26,0,8.19-1.22,11.32-3.26-3.37,3.13-8.26,5.11-13.7,5.11-1.49,0-2.97-.15-4.4-.45-3.69,1.73-7.9,2.64-12.2,2.64-13.32,0-24.16-8.66-24.16-19.31,0-5.28,2.61-10.2,7.37-13.88Z"/>
    </g>
  </g>
  <path class="cls-24" d="M2259.1,445.74c.83-3.4,9.27-5.04,15.79-4.58,1.99.14,2.9.44,4.38.84.81-2.9,10-4.61,19.53-5.04,10.63-.47,20.32,1.25,23.77,4,2.4-.92,5.62-1.55,9.32-1.72,3.69-.16,7.26.17,10.23.85,1.6-1.73,5.67-3.04,10.84-3.27,2.12-.09,4.18,0,6.08.26,2.04-2.12,7.57-3.88,14.78-4.59,7.49.06,14.09,1.28,17.58,3.15,1.34-.33,2.87-.57,4.53-.7v23.16l-148.72-.75s-3.26-10.03,11.9-11.62Z"/>
  <g>
    <path class="cls-21" d="M2271.96,424.63c.57,2.87,1.66,5.82,2.05,9.02.06.06.13.11.19.17.63-3.65,1.59-6.9,2.45-9.85l1.17-3.92,1.86,2.11-1.17,3.92c-1.01,3.43-2.05,6.97-2.55,10.93h0v21.3h-3.81v-19.79c-.09-1.62-.22-3.23-.39-4.82-.03-.26-.06-.54-.08-.81-.34-2.26-1.27-4.45-1.72-6.72-.41-2.07-.84-4.21-1.19-6.45l2.05-1.26c.33,2.1.74,4.17,1.14,6.18Z"/>
    <g>
      <path class="cls-18" d="M2245.81,403.05c0-6.32,2.51-12.2,7.08-16.59,2.15-10.37,11.09-17.88,21.34-17.88,11.9,0,21.63,9.98,21.82,22.3,4.19,3.51,6.59,8.7,6.59,14.29,0,10.12-7.93,18.35-17.67,18.35-1.43,0-2.85-.18-4.23-.53-3.54,2.06-7.59,3.16-11.72,3.16-12.8,0-23.21-10.36-23.21-23.09Z"/>
      <path class="cls-16" d="M2252.88,386.46s-4.79,9.07-4.79,14.38c0,12.73,10.41,23.09,23.21,23.09,4.13,0,5.84-.84,9.39-2.9,1.38.35,5.13.28,6.56.28,4.1,0,7.87-1.46,10.87-3.9-3.24,3.75-7.93,6.12-13.16,6.12-1.43,0-2.85-.18-4.23-.53-3.54,2.06-7.59,3.16-11.72,3.16-12.8,0-23.21-10.36-23.21-23.09,0-6.31,2.51-12.2,7.08-16.59Z"/>
    </g>
  </g>
  <g>
    <path class="cls-21" d="M2351.05,424.63c.57,2.87,1.66,5.82,2.05,9.02.06.06.13.11.19.17.63-3.65,1.59-6.9,2.45-9.85l1.17-3.92,1.86,2.11-1.17,3.92c-1.01,3.43-2.05,6.97-2.55,10.93h0v21.3h-3.81v-19.79c-.09-1.62-.22-3.23-.39-4.82-.03-.26-.06-.54-.08-.81-.34-2.26-1.27-4.45-1.72-6.72-.41-2.07-.84-4.21-1.19-6.45l2.05-1.26c.33,2.1.74,4.17,1.14,6.18Z"/>
    <g>
      <path class="cls-18" d="M2324.91,403.05c0-6.32,2.51-12.2,7.08-16.59,2.15-10.37,11.09-17.88,21.34-17.88,11.9,0,21.63,9.98,21.82,22.3,4.19,3.51,6.59,8.7,6.59,14.29,0,10.12-7.93,18.35-17.67,18.35-1.43,0-2.85-.18-4.23-.53-3.54,2.06-7.59,3.16-11.72,3.16-12.8,0-23.21-10.36-23.21-23.09Z"/>
      <path class="cls-16" d="M2331.98,386.46s-4.79,9.07-4.79,14.38c0,12.73,10.41,23.09,23.21,23.09,4.13,0,5.84-.84,9.39-2.9,1.38.35,5.13.28,6.56.28,4.1,0,7.87-1.46,10.87-3.9-3.24,3.75-7.93,6.12-13.16,6.12-1.43,0-2.85-.18-4.23-.53-3.54,2.06-7.59,3.16-11.72,3.16-12.8,0-23.21-10.36-23.21-23.09,0-6.31,2.51-12.2,7.08-16.59Z"/>
    </g>
  </g>
  <g>
    <path class="cls-21" d="M2204.6,430.14c.48,2.4,1.39,4.87,1.72,7.54.05.05.1.1.16.14.53-3.05,1.33-5.77,2.05-8.24l.98-3.27,1.55,1.76-.98,3.28c-.84,2.87-1.71,5.83-2.14,9.14h0v17.81h-3.18v-16.55c-.07-1.36-.19-2.7-.33-4.03-.02-.21-.05-.45-.06-.68-.28-1.89-1.06-3.72-1.44-5.62-.34-1.73-.7-3.52-.99-5.4l1.71-1.05c.28,1.75.62,3.49.95,5.17Z"/>
    <g>
      <path class="cls-18" d="M2182.73,412.1c0-5.28,2.1-10.2,5.92-13.88,1.8-8.67,9.27-14.96,17.84-14.96,9.95,0,18.09,8.35,18.25,18.65,3.51,2.93,5.51,7.27,5.51,11.95,0,8.46-6.63,15.35-14.78,15.35-1.19,0-2.38-.15-3.54-.45-2.96,1.73-6.35,2.64-9.8,2.64-10.7,0-19.41-8.66-19.41-19.31Z"/>
      <path class="cls-16" d="M2188.65,398.22s-4.01,7.59-4.01,12.02c0,10.65,8.71,19.31,19.41,19.31,3.45,0,4.88-.7,7.85-2.43,1.15.29,4.29.23,5.49.23,3.43,0,6.58-1.22,9.09-3.26-2.71,3.13-6.63,5.11-11,5.11-1.19,0-2.38-.15-3.54-.45-2.96,1.73-6.35,2.64-9.8,2.64-10.7,0-19.41-8.66-19.41-19.31,0-5.28,2.1-10.2,5.92-13.87Z"/>
    </g>
  </g>
  <g>
    <path class="cls-21" d="M875.87,457.57c.36,1.79,1.03,3.64,1.28,5.64.04.04.08.07.12.11.39-2.28.99-4.32,1.53-6.16l.73-2.45,1.16,1.32-.73,2.46c-.63,2.15-1.28,4.36-1.59,6.84h0v13.32h-2.38v-12.38c-.06-1.02-.14-2.02-.24-3.02-.02-.16-.04-.33-.05-.51-.21-1.41-.79-2.78-1.07-4.2-.26-1.3-.52-2.64-.74-4.04l1.28-.79c.21,1.31.46,2.61.71,3.86Z"/>
    <g>
      <path class="cls-18" d="M859.55,444.08c0-3.95,1.57-7.63,4.42-10.38,1.34-6.49,6.92-11.19,13.32-11.19,7.43,0,13.5,6.24,13.62,13.95,2.62,2.19,4.12,5.44,4.12,8.94,0,6.33-4.95,11.48-11.03,11.48-.89,0-1.78-.11-2.64-.33-2.21,1.29-4.74,1.98-7.31,1.98-7.99,0-14.48-6.48-14.48-14.45Z"/>
      <path class="cls-16" d="M863.97,433.7s-2.99,5.67-2.99,8.99c0,7.96,6.5,14.45,14.49,14.45,2.58,0,3.65-.52,5.86-1.82.86.22,3.2.17,4.09.17,2.56,0,4.91-.91,6.79-2.44-2.02,2.34-4.95,3.82-8.21,3.82-.89,0-1.78-.11-2.64-.33-2.21,1.29-4.74,1.98-7.31,1.98-7.99,0-14.48-6.48-14.48-14.45,0-3.95,1.57-7.63,4.42-10.38Z"/>
    </g>
  </g>
  <path class="cls-24" d="M1923.64,468.94c-50.62,4.76-101.15,10.88-151.07,19.94-23.77,4.32-47.41,9.33-70.68,15.54-23.24,6.2-46.3,13.56-67.9,23.55-20.6,9.51-42.08,22.16-53.55,40.94h46.19c1.99,0,3.31-2.06,4.71-3.23,2.95-2.47,5.98-4.85,9.1-7.15,29.37-21.69,64.64-36.46,99.98-48.31,44.91-15.06,91.65-25.54,138.59-33.95,7.48-1.34,14.98-2.62,22.48-3.85,3.67-.6,7.35-1.19,11.03-1.77,1.85-.29,3.7-.58,5.55-.86,1.77-.27,3.8-.85,5.57-.85-1.82.17,0,0,0,0Z"/>
  <path class="cls-25" d="M2164.58,442.14c-2.92-7.24-12.6-9.07-19.03-6.72-1.96.72-2.71,1.55-3.98,2.73-2.6-6.15-13.1-8-23.15-6.96-11.22,1.16-20.12,6.91-22.01,13.6-3.03-1.51-6.73-2.23-10.63-1.82-3.89.4-7.35,1.86-10,3.95-2.7-3.43-7.69-5.46-13.14-4.89-2.23.23-4.29.88-6.09,1.82-3.39-4.2-10.15-6.88-18-6.96-7.66,1.68-13.71,5.69-16.15,10.49-1.95-.55-4.11-.76-6.34-.53-5.45.56-9.91,3.57-11.83,7.48-3.03-1.51-6.72-2.22-10.61-1.81-3.9.4-7.37,1.85-10.01,3.95-3.24-6.16-13.16-9.96-24.38-8.8-10.05,1.04-19.93,5-21.19,11.54-1.5-.89-2.4-1.56-4.47-1.86-6.78-.98-15.87,2.79-17.21,10.47-16.12,3.71-14.11,26.32-14.11,26.32l140.81-14.57,140.81-14.57s-2.77-22.53-19.32-22.87Z"/>
  <path class="cls-14" d="M2010.59,468.01s.04.04.05.04c-146.86,20.33-270.45,50.83-331.48,100.86h716.77v-119.09c-133.7.82-259.93,7.34-385.33,18.19Z"/>
  <path class="cls-10" d="M1920.97,469.73h0c-131.32,19.47-241.47,50.59-296.04,98.51h56.79c49.28-43.33,153.48-79.04,272.23-101.2-11.14.9-22.1,1.68-32.99,2.69Z"/>
  <g>
    <path class="cls-8" d="M2395.91,480.43c-5.12.32-10.22.66-15.31,1.02-44.3,26.73-88.51,53.53-132.61,80.41,19.67.58,38.71,1.12,56.32,1.61,30.61-22.92,61.15-45.88,91.6-68.87v-14.17Z"/>
    <path class="cls-8" d="M2261.74,493.74c-54.05,20.99-108.04,42.09-161.98,63.31,26.41.98,56.12,1.97,86.34,2.93,51.6-24.99,103.11-50.08,154.53-75.27-26.75,2.47-53.07,5.49-78.89,9.03Z"/>
    <path class="cls-8" d="M2395.91,565.93v-45.39c-15.42,14.72-30.82,29.44-46.17,44.18,21.34.57,37.67,1,46.17,1.22Z"/>
    <path class="cls-6" d="M2123.67,518.67c-42.2,9.57-82.5,20.64-120.57,33.05,3.47,1.43,43.35,3.35,96.67,5.33,53.94-21.22,107.94-42.33,161.98-63.31-47.85,6.57-94,14.93-138.07,24.93Z"/>
    <path class="cls-6" d="M2340.63,484.71c-51.42,25.19-102.94,50.28-154.53,75.27,20.69.65,41.62,1.29,61.89,1.88,44.1-26.88,88.31-53.68,132.61-80.41-13.42.95-26.75,2.03-39.97,3.25Z"/>
    <path class="cls-6" d="M2304.32,563.47c16.66.47,32.03.88,45.42,1.24,15.35-14.74,30.75-29.46,46.17-44.18v-25.94c-30.45,22.99-60.98,45.95-91.6,68.87Z"/>
  </g>
  <path class="cls-13" d="M2096.18,536.19c-2.33-6.21-12.63-8.55-19.89-7.18-2.22.42-3.13,1.04-4.65,1.9-2.11-5.28-13.31-7.71-24.35-7.73-12.34-.02-22.69,3.94-25.53,9.28-3.12-1.51-7.05-2.41-11.34-2.42-4.28,0-8.21.89-11.34,2.38-2.53-3.05-7.72-5.15-13.71-5.16-2.45,0-4.77.35-6.83.96-3.19-3.75-10.22-6.54-18.75-7.28-8.53.71-15.57,3.49-18.79,7.23-2.06-.62-4.38-.98-6.83-.99-6,0-11.19,2.08-13.74,5.12-3.11-1.5-7.05-2.41-11.32-2.41-4.29,0-8.23.89-11.35,2.39-2.8-5.35-13.14-9.34-25.47-9.36-11.05-.02-22.26,2.38-24.39,7.66-1.52-.86-2.43-1.49-4.64-1.92-7.25-1.39-17.58.92-19.94,7.12-17.97,1.66-18.43,20.42-18.43,20.42l154.81.23,154.81.23s-.36-18.77-18.32-20.48Z"/>
  <rect class="cls-20" y="550.51" width="2395.91" height="357.35"/>
  <rect class="cls-22" y="550" width="2395.91" height="10.51"/>
  <path class="cls-2" d="M230.69,103.52c6.7-5.24,19.54-8.79,34.3-8.79,17.58,0,32.46,5.04,37.45,11.98,3.13-.35,6.41-.54,9.79-.54,16.23,0,30.15,4.29,36.12,10.4,14.5.06,20.67,3.55,23.41,8.69,2.09,3.91-1.94,7.58-6.86,7.58h-207.83c-4.92,0-7.68-2.93-5.07-6.88,5.49-8.31,14.71-11.93,31.31-9.6,12.02,1.69,19.37-17.96,38.27-13.32,3.02.74,6.19.16,9.11.47Z"/>
  <path class="cls-2" d="M1166.07,240.59c-5.37-5.24-15.66-8.79-27.49-8.79-14.09,0-26.02,5.04-30.02,11.98-2.51-.35-5.14-.54-7.84-.54-13.01,0-24.16,4.29-28.95,10.4-11.63.06-16.57,3.55-18.76,8.69-1.67,3.91,1.56,7.58,5.5,7.58h166.59c3.95,0,6.15-2.93,4.06-6.88-4.4-8.31-11.79-11.93-25.1-9.6-9.64,1.68-15.53-17.96-30.67-13.32-2.42.74-4.96.17-7.3.47Z"/>
  <path class="cls-2" d="M2104.69,162.06c6.77-8.54,19.71-14.32,34.6-14.32,17.73,0,32.74,8.21,37.78,19.52,3.16-.57,6.47-.87,9.87-.87,16.37,0,30.41,6.99,36.44,16.96,14.63.1,20.85,5.78,23.61,14.16,2.1,6.38-1.96,12.35-6.92,12.35h-209.66c-4.97,0-7.74-4.77-5.11-11.21,5.54-13.55,14.84-19.44,31.59-15.64,12.13,2.75,19.54-29.27,38.61-21.7,3.05,1.21,6.24.27,9.19.76Z"/>
  <path class="cls-2" d="M1773.04,79.34c-2.89-3.59-7.42-5.49-14.91-5.34-.28-1.95-2.29-3.8-5.13-4.48-1.63-.39-3.25-.32-4.59.1-.84-1.51-2.65-2.96-5.04-3.84-2.57-.95-5.18-1.01-7.02-.33-.72-1.65-2.47-3.07-4.82-3.64-2.09-.51-4.18-.23-5.72.61-.64-.67-1.51-1.29-2.6-1.8-3.39-1.59-8.07-1.81-12.23-.83-1.66-3.78-7.78-6.58-15.07-6.58-5.46,0-10.27,1.57-13.03,3.95-1.49-.46-3.17-.72-4.97-.72-5.92,0-10.71,2.81-10.71,6.28,0,.02,0,.05,0,.07-1.36.09-2.7.32-3.96.72-2.96.93-4.85,2.54-5.43,4.33-1.47-.48-3.23-.58-5.01-.19-3.99.87-6.58,3.87-5.79,6.69.01.05.04.09.05.14-8.06.23-11.62,1.98-13.25,4.49-1.32,2.03,1.23,3.94,4.35,3.94h131.7c3.12,0,4.86-1.52,3.21-3.57Z"/>
  <g>
    <path class="cls-15" d="M1557.67,592.82c0,3.14,12.05,5.68,26.92,5.68s26.92-2.55,26.92-5.68-12.05-5.69-26.92-5.69-26.92,2.55-26.92,5.69Z"/>
    <path class="cls-23" d="M1582.75,540.95c.02-1.65,1.06-39.11,1.12-45.36h1.26c.18,17.58,1.12,45.59,1.12,45.59,0,0,.4,15.8.57,30.05.08,7.54.17,15.07.26,22.6h-5.12v-.05c.09-8.15.19-16.31.28-24.46.17-14.51.51-28.36.51-28.36Z"/>
    <g>
      <path class="cls-18" d="M1550.36,534.54c.33-1.41.68-3.01,1.44-4.31,1.77-3.04,5.66-4.72,6.46-8.32.79-3.62-1.72-7.15-2.5-10.59-1.05-4.63-.06-9.05,3.11-12.78,3.25-3.83,7.78-4.76,7.16-10.46-.71-6.53-2.5-12.24,2.85-17.68.39-.4.82-.8,1.28-1.18.68-.56,1.42-1.08,2.2-1.45,7.38-3.56,14.14-3.62,21.63,0,.79.38,1.52.89,2.2,1.45.45.38.88.78,1.28,1.18,5.35,5.44,3.55,11.15,2.84,17.68-.62,5.7,3.91,6.64,7.16,10.46,3.17,3.73,4.16,8.14,3.11,12.78-.78,3.44-3.3,6.97-2.5,10.59.79,3.6,4.69,5.29,6.45,8.32.75,1.29,1.11,2.9,1.44,4.31,2.77,11.96-5.18,23.13-16.94,28.3-4.78,2.1-10.13,2.47-15.41,2.56-.15,0-.3,0-.45,0-.15,0-.3,0-.45,0-5.29-.08-10.64-.45-15.41-2.55-11.76-5.17-19.7-16.34-16.94-28.3Z"/>
      <path class="cls-3" d="M1551.85,530.23c1.22-2.09,3.44-3.54,4.97-5.42.04-.01.08-.02.12-.03-.34.4-.66.82-.92,1.28-.75,1.29-1.11,2.9-1.44,4.31-2.77,11.96,5.18,23.13,16.94,28.3,4.78,2.1,10.13,2.47,15.41,2.55.15,0,.3,0,.45,0,.15,0,.3,0,.45,0,5.29-.09,10.63-.46,15.41-2.56,2.88-1.27,5.53-2.9,7.85-4.81-3.06,3.75-7.22,6.86-12.02,8.97-4.78,2.1-10.13,2.47-15.41,2.56-.15,0-.3,0-.45,0-.15,0-.3,0-.45,0-5.29-.08-10.64-.45-15.41-2.55-11.76-5.17-19.7-16.34-16.94-28.3.33-1.41.68-3.01,1.44-4.31Z"/>
    </g>
  </g>
  <g>
    <path class="cls-15" d="M2287.74,600.63c0,3.51,13.96,6.36,31.18,6.36s31.18-2.85,31.18-6.36-13.96-6.37-31.18-6.37-31.18,2.85-31.18,6.37Z"/>
    <path class="cls-23" d="M2316.79,542.54c.02-1.85,1.22-43.8,1.3-50.8h1.46c.21,19.68,1.3,51.05,1.3,51.05,0,0,.46,17.69.65,33.65.1,8.44.2,16.87.3,25.31h-5.93v-.06c.11-9.13.22-18.26.33-27.39.2-16.25.59-31.76.59-31.76Z"/>
    <g>
      <path class="cls-18" d="M2279.27,535.35c.38-1.58.79-3.38,1.66-4.83,2.05-3.4,6.56-5.29,7.48-9.32.92-4.06-1.99-8.01-2.9-11.86-1.22-5.19-.06-10.14,3.6-14.31,3.76-4.29,9.01-5.33,8.29-11.72-.82-7.31-2.9-13.71,3.29-19.8.46-.45.95-.9,1.48-1.32.79-.63,1.64-1.21,2.55-1.63,8.55-3.99,16.37-4.05,25.05,0,.91.42,1.77,1,2.55,1.63.53.42,1.02.87,1.48,1.32,6.19,6.09,4.11,12.49,3.29,19.8-.72,6.39,4.52,7.43,8.29,11.72,3.67,4.17,4.82,9.12,3.6,14.31-.9,3.85-3.82,7.8-2.89,11.86.92,4.04,5.43,5.92,7.48,9.32.87,1.45,1.28,3.25,1.66,4.83,3.2,13.4-6,25.9-19.61,31.69-5.53,2.35-11.73,2.77-17.85,2.87-.17,0-.35,0-.52,0-.17,0-.35,0-.52,0-6.12-.09-12.32-.5-17.85-2.86-13.62-5.79-22.82-18.3-19.61-31.69Z"/>
      <path class="cls-3" d="M2281.01,530.52c1.41-2.34,3.99-3.96,5.75-6.06.05-.01.09-.02.14-.03-.4.45-.76.92-1.07,1.43-.87,1.45-1.28,3.25-1.66,4.83-3.2,13.4,6,25.9,19.61,31.69,5.53,2.35,11.73,2.77,17.85,2.86.17.01.35,0,.52,0,.17,0,.35,0,.52,0,6.12-.1,12.31-.52,17.85-2.87,3.34-1.42,6.41-3.24,9.09-5.38-3.54,4.2-8.36,7.69-13.92,10.05-5.53,2.35-11.73,2.77-17.85,2.87-.17,0-.35,0-.52,0-.17,0-.35,0-.52,0-6.12-.09-12.32-.5-17.85-2.86-13.62-5.79-22.82-18.3-19.61-31.69.38-1.58.79-3.38,1.66-4.83Z"/>
    </g>
  </g>
  <g>
    <path class="cls-23" d="M2127.51,654.93c.02-1.63,1.08-38.53,1.15-44.68h1.28c.19,17.31,1.14,44.9,1.14,44.9,0,0,.4,15.56.58,29.6.09,7.42.18,14.84.27,22.26h-5.21v-.05c.09-8.03.19-16.06.29-24.09.17-14.29.52-27.94.52-27.94Z"/>
    <g>
      <path class="cls-18" d="M2094.52,648.61c.33-1.39.69-2.97,1.46-4.25,1.8-2.99,5.77-4.65,6.58-8.2.81-3.57-1.75-7.04-2.55-10.43-1.07-4.57-.06-8.92,3.17-12.59,3.31-3.77,7.92-4.69,7.29-10.31-.72-6.43-2.55-12.06,2.9-17.41.4-.4.84-.79,1.3-1.16.69-.56,1.44-1.06,2.25-1.43,7.52-3.51,14.4-3.56,22.03,0,.8.37,1.55.88,2.24,1.43.46.37.9.77,1.3,1.16,5.45,5.36,3.62,10.98,2.9,17.41-.63,5.62,3.98,6.54,7.29,10.31,3.23,3.67,4.24,8.02,3.17,12.59-.79,3.39-3.36,6.86-2.55,10.43.81,3.55,4.77,5.21,6.58,8.2.77,1.28,1.13,2.85,1.46,4.25,2.82,11.78-5.27,22.78-17.25,27.88-4.87,2.07-10.31,2.43-15.7,2.53-.15,0-.3,0-.46,0-.15,0-.31,0-.46,0-5.38-.08-10.83-.44-15.7-2.51-11.98-5.09-20.07-16.09-17.25-27.88Z"/>
      <path class="cls-3" d="M2096.04,644.36c1.24-2.06,3.51-3.49,5.06-5.33.04,0,.08-.02.12-.03-.35.4-.67.81-.94,1.26-.77,1.28-1.13,2.85-1.46,4.24-2.82,11.78,5.27,22.78,17.25,27.88,4.87,2.07,10.31,2.43,15.7,2.51.15,0,.3,0,.45,0,.15,0,.31,0,.46,0,5.38-.09,10.83-.46,15.7-2.53,2.93-1.25,5.63-2.85,8-4.73-3.12,3.7-7.36,6.76-12.24,8.84-4.87,2.07-10.31,2.43-15.7,2.53-.15,0-.3,0-.46,0-.15,0-.31,0-.46,0-5.38-.08-10.83-.44-15.7-2.51-11.98-5.09-20.07-16.09-17.25-27.88.33-1.39.69-2.97,1.46-4.25Z"/>
    </g>
  </g>
  <rect class="cls-15" y="807.86" width="2395.91" height="242.14"/>
  <path class="cls-18" d="M2332.81,736.44c.03-7.36-6.34-11.52-11.61-11.03-1.61.15-2.39.72-3.64,1.47-.06-6.28-7.01-10.67-14.49-12.31-8.35-1.83-16.39,1.13-19.69,6.75-1.72-2.16-4.15-3.76-7.05-4.4-2.9-.63-5.79-.2-8.29,1.03-.92-3.82-3.89-6.96-7.95-7.84-1.66-.36-3.32-.31-4.88.09-1.2-4.7-5.23-8.89-10.81-10.98-5.96-.44-11.45,1.66-14.59,5.41-1.23-1.01-2.71-1.75-4.37-2.11-4.06-.89-8.12.71-10.63,3.78-1.72-2.16-4.15-3.76-7.04-4.39-2.9-.64-5.8-.2-8.3,1.03-.51-6.46-6.48-12.48-14.83-14.31-7.48-1.64-15.69-.57-18.5,5.08-.81-1.2-1.26-2.04-2.65-2.85-4.55-2.63-12.14-1.54-15.34,5.13-12.59-.76-17.77,20.39-17.77,20.39l104.77,22.94,104.77,22.95s4.62-21.27-7.1-25.84Z"/>
  <path class="cls-15" d="M1277.58,625.96s-.03,0-.05,0c429.06,24.61,816.86,70.4,1118.39,145.28v138.75H0v-267.08c434.63-16.54,856.73-23.27,1277.58-16.95Z"/>
  <g>
    <rect class="cls-4" y="818.85" width="2395.91" height="205"/>
    <g>
      <rect class="cls-5" x="2248.17" y="910.71" width="113.14" height="5.08"/>
      <rect class="cls-5" x="2024.68" y="910.71" width="113.14" height="5.08"/>
      <rect class="cls-5" x="1801.2" y="910.71" width="113.14" height="5.08"/>
      <rect class="cls-5" x="1577.71" y="910.71" width="113.14" height="5.08"/>
      <rect class="cls-5" x="1354.22" y="910.71" width="113.14" height="5.08"/>
      <rect class="cls-5" x="1130.74" y="910.71" width="113.14" height="5.08"/>
      <rect class="cls-5" x="907.25" y="910.71" width="113.14" height="5.08"/>
      <rect class="cls-5" x="683.77" y="910.71" width="113.14" height="5.08"/>
      <rect class="cls-5" x="460.28" y="910.71" width="113.14" height="5.08"/>
      <rect class="cls-5" x="236.8" y="910.71" width="113.14" height="5.08"/>
      <rect class="cls-5" x="13.31" y="910.71" width="113.14" height="5.08"/>
    </g>
    <rect class="cls-9" y="823.7" width="2395.91" height="4.9"/>
    <rect class="cls-9" y="1009.94" width="2395.91" height="4.89"/>
  </g>
  <g>
    <path class="cls-7" d="M118.02,748.65c0,4.74,22.96,8.58,51.28,8.58s51.29-3.84,51.29-8.58-22.96-8.58-51.29-8.58-51.28,3.85-51.28,8.58Z"/>
    <path class="cls-23" d="M165.81,670.35c.04-2.49,2.01-59.05,2.14-68.48h2.39c.35,26.53,2.14,68.82,2.14,68.82,0,0,.76,23.85,1.08,45.36.16,11.38.33,22.74.5,34.12h-9.75v-.08c.18-12.3.36-24.62.54-36.93.33-21.9.96-42.82.96-42.82Z"/>
    <g>
      <path class="cls-18" d="M104.1,660.66c.62-2.13,1.3-4.55,2.73-6.51,3.37-4.59,10.79-7.12,12.3-12.56,1.51-5.47-3.27-10.8-4.77-15.99-2.01-7-.11-13.67,5.93-19.29,6.19-5.78,14.82-7.18,13.63-15.79-1.35-9.86-4.77-18.48,5.42-26.69.75-.61,1.57-1.21,2.43-1.78,1.29-.85,2.7-1.62,4.2-2.2,14.06-5.38,26.93-5.46,41.2,0,1.5.57,2.9,1.34,4.2,2.2.86.57,1.68,1.17,2.43,1.78,10.19,8.21,6.77,16.83,5.42,26.69-1.18,8.61,7.44,10.02,13.63,15.79,6.03,5.63,7.93,12.3,5.92,19.29-1.49,5.19-6.28,10.52-4.76,15.99,1.51,5.44,8.93,7.98,12.3,12.56,1.43,1.96,2.11,4.37,2.74,6.51,5.27,18.06-9.86,34.92-32.26,42.72-9.1,3.17-19.29,3.73-29.36,3.87-.28,0-.57,0-.85,0-.28,0-.57,0-.85,0-10.07-.12-20.26-.68-29.36-3.85-22.4-7.8-37.53-24.66-32.26-42.72Z"/>
      <path class="cls-3" d="M106.95,654.15c2.32-3.16,6.56-5.34,9.46-8.17.08-.02.15-.03.23-.04-.65.61-1.25,1.25-1.75,1.93-1.44,1.95-2.11,4.37-2.73,6.5-5.27,18.06,9.86,34.92,32.26,42.72,9.1,3.17,19.29,3.73,29.36,3.85.28.01.57.01.85,0,.29,0,.57,0,.86,0,10.07-.14,20.25-.7,29.36-3.87,5.49-1.91,10.54-4.37,14.96-7.26-5.83,5.67-13.76,10.36-22.9,13.55-9.1,3.17-19.29,3.73-29.36,3.87-.28,0-.57,0-.85,0-.28,0-.57,0-.85,0-10.07-.12-20.26-.68-29.36-3.85-22.4-7.8-37.53-24.66-32.26-42.72.62-2.13,1.3-4.55,2.73-6.51Z"/>
    </g>
  </g>
</svg>