<?xml version="1.0" encoding="UTF-8"?>
<svg id="Layer_1" xmlns="http://www.w3.org/2000/svg" viewBox="0 0 1800 1050">
  <defs>
    <style>
      .cls-1 {
        fill: #b8e9f5;
      }

      .cls-2 {
        fill: #f0fbff;
      }

      .cls-3 {
        fill: #5d8f31;
      }

      .cls-4 {
        fill: #5e6a73;
      }

      .cls-5 {
        fill: #f2f2f2;
      }

      .cls-6 {
        fill: #94b530;
      }

      .cls-7 {
        fill: #6eab3a;
      }

      .cls-8 {
        fill: #9dc772;
      }

      .cls-9 {
        fill: #fff;
      }

      .cls-10 {
        fill: #dec28d;
      }

      .cls-11 {
        fill: #7bad53;
      }

      .cls-12 {
        fill: none;
      }

      .cls-13 {
        fill: #5c914e;
      }

      .cls-14 {
        fill: #71a664;
      }

      .cls-15 {
        fill: #76b343;
      }

      .cls-16 {
        fill: #5a8c2e;
      }

      .cls-17 {
        fill: #d4f4ff;
      }

      .cls-18 {
        fill: #649934;
      }

      .cls-19 {
        fill: #96c95c;
      }

      .cls-20 {
        fill: #80bf0e;
      }

      .cls-21 {
        fill: #82584a;
      }

      .cls-22 {
        fill: #91c230;
      }

      .cls-23 {
        fill: #784636;
      }

      .cls-24 {
        fill: #84bf79;
      }

      .cls-25 {
        fill: #639157;
      }
    </style>
  </defs>
  <rect class="cls-17" width="1800" height="541.41"/>
  <path class="cls-1" d="M1777.12,378.29v-29.51c0-3.84-1.88-6.96-4.19-6.96l-18.85-.39h-23.66c-1.93,0-3.49,2.6-3.49,5.81v27.01h-33.31v45.75h-4.77v-43.04h-12.24v-29.94h-37.62v26.24h-4.66v63.65h-24.14v-44.73h-18.21v-13.19h-11.01v-14.34h-18.21v49.89h-29.52v182.94l266.75.02v-219.19h-22.88Z"/>
  <path class="cls-1" d="M1512.24,380.97v10.07h-12.24v22.72h-4.77v-45.75h-33.31v-22.36h-18.46v23.27h-5.5v64.8h-29.22v-15.48h-8.89v-42.44h-21.17v-22.94h-11.01v19.5h-9.32v45.88h-21.87v-49.89h-18.21v14.34h-11.01v13.19h-18.21v44.73h-24.14v-63.65h-4.66v-26.24h-37.62v29.94h-12.24v43.04h-4.77v-45.75h-33.31v-27.01c0-3.21-1.56-5.81-3.49-5.81h-23.66l-18.85.39c-2.31,0-4.19,3.12-4.19,6.96v29.51h-48.2v-37.47h-10.39v-11h-15.48v11h-28.59v69.92h-37.82v-59.33c0-8.93-3.51-16.33-9.29-16.33h-23.38c-5.79,0-10.47,6.34-10.47,15.27v56.57l-8.2-.45v-23.37h-12.23v-10.73h-39.61v10.73h-12.24v9.37h-5.37v22.43h-17.28c-2.31,0-4.19,1.93-4.19,4.32v17.41h-38.45v-24.1h-5.37v-8.02h-12.24v-9.19h-39.6v9.19h-12.24v8.02h-5.37v19.75h-23.82v-13.93h-19.57v13.93h-7.82v5.3h-16.25v-20.18c0-2.63-1.77-4.76-3.95-4.76h-16.66v-45.59c0-4.33-3.39-7.84-7.58-7.84h-22.18c-4.19,0-7.58,3.51-7.58,7.84v74.04h-18.95v-31.03h-5.37v-22.72h-12.24v-10.07h-39.61v10.07h-12.24v22.72h-4.77v-45.75h-33.31v-22.36h-18.46v23.27h-5.5v64.8h-29.22v-15.48h-8.89v-42.44h-21.17v-22.94h-11.01v19.5h-9.32v42.36h-24.1v-69.92h-28.59v-11h-15.48v11h-10.39v37.47h-48.2v-29.51c0-3.84-1.88-6.96-4.19-6.96l-18.85-.39h-23.66c-1.93,0-3.49,2.6-3.49,5.81v27.01h-33.31v45.75h-4.77v-43.04h-12.24v-29.94h-37.62v26.24h-4.66v63.65h-24.14v-44.73h-18.21v-13.19h-11.01v-14.34h-18.21v49.89H0v182.93l1520,.09v-220.57h-7.76Z"/>
  <path class="cls-14" d="M934.08,574.02c-44.08-39.69-153.79-88.83-343.5-88.83-137.15,0-255.51,20.79-310.58,50.84v75.97c55.07,30.06,173.42,50.85,310.58,50.85,189.71,0,381.08-54.99,343.5-88.83Z"/>
  <path class="cls-13" d="M6.4,448.7c2.69-1.04,5.92-1.55,9.26-1.3,3.33.25,6.24,1.21,8.4,2.62,2.51-2.34,6.92-3.75,11.59-3.4,1.91.14,3.65.57,5.15,1.2,3.15-2.87,9.11-4.73,15.88-4.83,6.51,1.09,11.51,3.78,13.35,7.02,1.71-.39,3.58-.54,5.49-.4,4.67.35,8.35,2.36,9.8,5,2.69-1.04,5.91-1.55,9.24-1.3,3.34.25,6.25,1.22,8.42,2.63,3.12-4.2,11.87-6.84,21.48-6.12,8.61.65,16.92,3.27,17.65,7.71,1.34-.62,2.16-1.07,3.95-1.29,5.89-.7,13.52,1.8,14.27,7,13.7,2.42,10.75,17.78,10.75,17.78l-171.08,1.45v-39.95c3.42,1.64,5.74,3.81,6.4,6.17Z"/>
  <g>
    <path class="cls-19" d="M849.69,570.12c-16.49-6.56-33.51-12.85-51.03-18.85-113.47-38.85-247.87-65.59-393.63-75.26-13.1-.87-26.28-1.61-39.56-2.2-9.01-.4-356.52-.72-365.47-.99v88.69c40.51-.45,823.93,7.15,849.69,8.61Z"/>
    <path class="cls-12" d="M451.99,556.3c.35,2.24.53,4.41.57,6.52,148.07,2.15,379.88,6.27,398.13,7.3-16.49-6.56-33.51-12.85-51.03-18.85-97.79-33.48-211.13-57.95-333.89-70.28-13.3,11.4-20.48,23.74-20.43,37.5-.07,12.38,5.03,25.5,6.64,37.81Z"/>
    <path class="cls-10" d="M451.99,556.3c-1.61-12.31-6.71-25.43-6.64-37.81-.05-13.75,7.12-26.1,20.43-37.5-5.16-.52-10.34-1.02-15.53-1.49-12.59,9.5-20.3,19.51-23.8,31.06-4.54,14.77-2.08,30.37-4.73,44.35-.64,2.57-1.51,5.04-2.57,7.43,10.52.14,21.71.3,33.42.47-.04-2.12-.22-4.28-.57-6.52Z"/>
  </g>
  <path class="cls-11" d="M11.95,482.18c10.48.95,20.88,2.04,31.19,3.27,20.88,2.48,41.41,5.52,61.56,9.09,37.34,6.61,73.35,15.02,107.74,25.08,32.93,9.63,64.38,20.76,94.08,33.24-2.71,1.43-33.82,3.37-75.43,5.36-20.61.99-43.79,1.99-67.38,2.94-16.15.66-32.48,1.29-48.3,1.89-15.35.58-30.21,1.13-43.95,1.62-13,.47-24.99.89-35.44,1.25-16.66.58-29.4,1-36.03,1.22v-86c3.99.32,7.97.67,11.95,1.03Z"/>
  <path class="cls-13" d="M835.1,536.23c-1.94-6.21-10.51-8.55-16.54-7.19-1.84.42-2.6,1.04-3.87,1.9-1.75-5.28-11.07-7.72-20.25-7.74-10.26-.02-18.87,3.93-21.22,9.27-2.59-1.51-5.86-2.42-9.43-2.42-3.56,0-6.83.89-9.43,2.38-2.1-3.05-6.42-5.16-11.4-5.17-2.04,0-3.97.35-5.68.96-2.66-3.75-8.5-6.54-15.59-7.29-7.09.71-12.95,3.49-15.62,7.22-1.71-.62-3.64-.98-5.68-.99-4.98,0-9.3,2.07-11.42,5.12-2.59-1.51-5.86-2.41-9.42-2.42-3.57,0-6.84.89-9.44,2.38-2.33-5.35-10.93-9.34-21.18-9.36-9.19-.02-18.51,2.38-20.28,7.65-1.26-.86-2.02-1.49-3.86-1.92-6.03-1.39-14.61.92-16.58,7.12-14.94,1.65-15.32,20.42-15.32,20.42l128.72.27,128.72.27s-.3-18.77-15.24-20.48Z"/>
  <path class="cls-13" d="M379.13,543.23c-1.94-6.21-10.51-8.55-16.54-7.19-1.84.42-2.6,1.04-3.87,1.9-1.75-5.28-11.07-7.72-20.25-7.74-10.26-.02-18.87,3.93-21.22,9.27-2.59-1.51-5.86-2.42-9.43-2.42-3.56,0-6.83.89-9.43,2.38-2.1-3.05-6.42-5.16-11.4-5.17-2.04,0-3.97.35-5.68.96-2.66-3.75-8.5-6.54-15.59-7.29-7.09.71-12.95,3.49-15.62,7.22-1.71-.62-3.64-.98-5.68-.99-4.98,0-9.3,2.07-11.42,5.12-2.59-1.51-5.86-2.41-9.42-2.42-3.57,0-6.84.89-9.44,2.38-2.33-5.35-10.93-9.34-21.18-9.36-9.19-.02-18.51,2.38-20.28,7.65-1.26-.86-2.02-1.49-3.86-1.92-6.03-1.39-14.61.92-16.58,7.12-14.94,1.65-15.32,20.42-15.32,20.42l128.72.27,128.72.27s-.3-18.77-15.24-20.48Z"/>
  <g>
    <path class="cls-21" d="M554.86,527.15c.46,2.4,1.34,4.87,1.66,7.54.05.05.1.1.15.14.51-3.05,1.28-5.77,1.98-8.24l.95-3.28,1.5,1.76-.95,3.28c-.81,2.87-1.66,5.83-2.07,9.14h0v17.81h-3.08v-16.55c-.07-1.36-.18-2.7-.32-4.03-.02-.21-.04-.45-.06-.68-.27-1.89-1.03-3.72-1.39-5.62-.33-1.73-.67-3.52-.96-5.4l1.66-1.05c.27,1.75.6,3.49.92,5.17Z"/>
    <g>
      <path class="cls-13" d="M533.72,509.11c0-5.28,2.03-10.21,5.72-13.88,1.74-8.67,8.97-14.96,17.26-14.96,9.63,0,17.49,8.35,17.65,18.65,3.39,2.93,5.33,7.27,5.33,11.95,0,8.46-6.41,15.35-14.29,15.35-1.16,0-2.31-.15-3.42-.45-2.87,1.73-6.14,2.64-9.47,2.64-10.35,0-18.77-8.66-18.77-19.31Z"/>
      <path class="cls-16" d="M539.44,495.23s-3.88,7.59-3.88,12.02c0,10.65,8.42,19.31,18.77,19.31,3.34,0,4.72-.7,7.59-2.43,1.12.29,4.15.23,5.3.23,3.31,0,6.37-1.22,8.79-3.26-2.62,3.13-6.42,5.11-10.64,5.11-1.16,0-2.31-.15-3.42-.45-2.87,1.73-6.14,2.64-9.47,2.64-10.35,0-18.77-8.66-18.77-19.31,0-5.28,2.03-10.2,5.72-13.88Z"/>
    </g>
  </g>
  <g>
    <path class="cls-21" d="M23.38,527.15c.46,2.4,1.34,4.87,1.66,7.54.05.05.1.1.15.14.51-3.05,1.28-5.77,1.98-8.24l.95-3.28,1.5,1.76-.95,3.28c-.81,2.87-1.66,5.83-2.07,9.14h0v17.81h-3.08v-16.55c-.07-1.36-.18-2.7-.32-4.03-.02-.21-.04-.45-.06-.68-.27-1.89-1.03-3.72-1.39-5.62-.33-1.73-.67-3.52-.96-5.4l1.66-1.05c.27,1.75.6,3.49.92,5.17Z"/>
    <g>
      <path class="cls-13" d="M2.23,509.11c0-5.28,2.03-10.21,5.72-13.88,1.74-8.67,8.97-14.96,17.26-14.96,9.63,0,17.49,8.35,17.65,18.65,3.39,2.93,5.33,7.27,5.33,11.95,0,8.46-6.41,15.35-14.29,15.35-1.16,0-2.31-.15-3.42-.45-2.87,1.73-6.14,2.64-9.47,2.64-10.35,0-18.77-8.66-18.77-19.31Z"/>
      <path class="cls-16" d="M7.95,495.23s-3.88,7.59-3.88,12.02c0,10.65,8.42,19.31,18.77,19.31,3.34,0,4.72-.7,7.59-2.43,1.12.29,4.15.23,5.3.23,3.31,0,6.37-1.22,8.79-3.26-2.62,3.13-6.42,5.11-10.64,5.11-1.16,0-2.31-.15-3.42-.45-2.87,1.73-6.14,2.64-9.47,2.64-10.35,0-18.77-8.66-18.77-19.31,0-5.28,2.03-10.2,5.72-13.88Z"/>
    </g>
  </g>
  <path class="cls-24" d="M1667.68,445.74c.8-3.4,8.96-5.04,15.27-4.58,1.92.14,2.8.44,4.23.84.78-2.9,9.68-4.61,18.89-5.04,10.28-.47,19.65,1.25,22.99,4,2.32-.92,5.43-1.55,9.01-1.72,3.57-.16,7.02.17,9.89.85,1.55-1.73,5.49-3.04,10.49-3.27,2.05-.09,4.05,0,5.88.26,1.97-2.12,7.32-3.88,14.29-4.59,7.24.06,13.63,1.28,17,3.15,1.3-.33,2.78-.57,4.38-.7v23.16l-143.83-.75s-3.15-10.03,11.51-11.62Z"/>
  <g>
    <path class="cls-21" d="M1680.12,424.63c.55,2.87,1.6,5.82,1.98,9.02.06.06.12.11.18.17.61-3.65,1.53-6.9,2.37-9.85l1.13-3.92,1.8,2.11-1.13,3.92c-.97,3.43-1.98,6.97-2.47,10.93h0v21.3h-3.68v-19.79c-.08-1.62-.22-3.23-.38-4.82-.03-.26-.05-.54-.07-.81-.33-2.26-1.23-4.45-1.66-6.72-.4-2.07-.81-4.21-1.15-6.45l1.98-1.26c.32,2.1.72,4.17,1.1,6.18Z"/>
    <g>
      <path class="cls-18" d="M1654.83,403.05c0-6.32,2.43-12.2,6.84-16.59,2.08-10.37,10.72-17.88,20.63-17.88,11.51,0,20.92,9.98,21.1,22.3,4.06,3.51,6.38,8.7,6.38,14.29,0,10.12-7.67,18.35-17.09,18.35-1.38,0-2.76-.18-4.09-.53-3.43,2.06-7.34,3.16-11.33,3.16-12.38,0-22.44-10.36-22.44-23.09Z"/>
      <path class="cls-16" d="M1661.67,386.46s-4.63,9.07-4.63,14.38c0,12.73,10.07,23.09,22.45,23.09,3.99,0,5.65-.84,9.08-2.9,1.33.35,4.96.28,6.34.28,3.96,0,7.61-1.46,10.51-3.9-3.13,3.75-7.67,6.12-12.72,6.12-1.38,0-2.76-.18-4.09-.53-3.43,2.06-7.34,3.16-11.33,3.16-12.38,0-22.44-10.36-22.44-23.09,0-6.31,2.43-12.2,6.84-16.59Z"/>
    </g>
  </g>
  <g>
    <path class="cls-21" d="M1756.61,424.63c.55,2.87,1.6,5.82,1.98,9.02.06.06.12.11.18.17.61-3.65,1.53-6.9,2.37-9.85l1.13-3.92,1.8,2.11-1.13,3.92c-.97,3.43-1.98,6.97-2.47,10.93h0v21.3h-3.68v-19.79c-.08-1.62-.22-3.23-.38-4.82-.03-.26-.05-.54-.07-.81-.33-2.26-1.23-4.45-1.66-6.72-.4-2.07-.81-4.21-1.15-6.45l1.98-1.26c.32,2.1.72,4.17,1.1,6.18Z"/>
    <g>
      <path class="cls-18" d="M1731.33,403.05c0-6.32,2.43-12.2,6.84-16.59,2.08-10.37,10.72-17.88,20.63-17.88,11.51,0,20.92,9.98,21.1,22.3,4.06,3.51,6.38,8.7,6.38,14.29,0,10.12-7.67,18.35-17.09,18.35-1.38,0-2.76-.18-4.09-.53-3.43,2.06-7.34,3.16-11.33,3.16-12.38,0-22.44-10.36-22.44-23.09Z"/>
      <path class="cls-16" d="M1738.17,386.46s-4.63,9.07-4.63,14.38c0,12.73,10.07,23.09,22.45,23.09,3.99,0,5.65-.84,9.08-2.9,1.33.35,4.96.28,6.34.28,3.96,0,7.61-1.46,10.51-3.9-3.13,3.75-7.67,6.12-12.72,6.12-1.38,0-2.76-.18-4.09-.53-3.43,2.06-7.34,3.16-11.33,3.16-12.38,0-22.44-10.36-22.44-23.09,0-6.31,2.43-12.2,6.84-16.59Z"/>
    </g>
  </g>
  <g>
    <path class="cls-21" d="M1614.98,430.14c.46,2.4,1.34,4.87,1.66,7.54.05.05.1.1.15.14.51-3.05,1.28-5.77,1.98-8.24l.95-3.27,1.5,1.76-.95,3.28c-.81,2.87-1.66,5.83-2.07,9.14h0v17.81h-3.08v-16.55c-.07-1.36-.18-2.7-.32-4.03-.02-.21-.05-.45-.06-.68-.27-1.89-1.03-3.72-1.39-5.62-.33-1.73-.67-3.52-.96-5.4l1.66-1.05c.27,1.75.6,3.49.92,5.17Z"/>
    <g>
      <path class="cls-18" d="M1593.83,412.1c0-5.28,2.03-10.2,5.72-13.88,1.74-8.67,8.97-14.96,17.26-14.96,9.63,0,17.49,8.35,17.65,18.65,3.39,2.93,5.33,7.27,5.33,11.95,0,8.46-6.41,15.35-14.29,15.35-1.16,0-2.31-.15-3.42-.45-2.87,1.73-6.14,2.64-9.47,2.64-10.35,0-18.77-8.66-18.77-19.31Z"/>
      <path class="cls-16" d="M1599.55,398.22s-3.88,7.59-3.88,12.02c0,10.65,8.42,19.31,18.77,19.31,3.34,0,4.72-.7,7.59-2.43,1.12.29,4.15.23,5.3.23,3.31,0,6.37-1.22,8.79-3.26-2.62,3.13-6.42,5.11-10.64,5.11-1.16,0-2.31-.15-3.42-.45-2.87,1.73-6.14,2.64-9.47,2.64-10.35,0-18.77-8.66-18.77-19.31,0-5.28,2.03-10.2,5.72-13.87Z"/>
    </g>
  </g>
  <g>
    <path class="cls-21" d="M403.21,457.57c.34,1.79,1,3.64,1.24,5.64.04.04.08.07.11.11.38-2.28.96-4.32,1.48-6.16l.71-2.45,1.12,1.32-.71,2.46c-.61,2.15-1.24,4.36-1.54,6.84h0v13.32h-2.3v-12.38c-.05-1.02-.14-2.02-.24-3.02-.02-.16-.03-.33-.05-.51-.2-1.41-.77-2.78-1.04-4.2-.25-1.3-.5-2.64-.72-4.04l1.24-.79c.2,1.31.45,2.61.69,3.86Z"/>
    <g>
      <path class="cls-18" d="M387.39,444.08c0-3.95,1.52-7.63,4.28-10.38,1.3-6.49,6.71-11.19,12.91-11.19,7.2,0,13.08,6.24,13.2,13.95,2.54,2.19,3.99,5.44,3.99,8.94,0,6.33-4.8,11.48-10.69,11.48-.86,0-1.72-.11-2.56-.33-2.14,1.29-4.59,1.98-7.09,1.98-7.74,0-14.04-6.48-14.04-14.45Z"/>
      <path class="cls-16" d="M391.67,433.7s-2.9,5.67-2.9,8.99c0,7.96,6.3,14.45,14.04,14.45,2.5,0,3.53-.52,5.68-1.82.83.22,3.1.17,3.97.17,2.48,0,4.76-.91,6.58-2.44-1.96,2.34-4.8,3.82-7.96,3.82-.86,0-1.72-.11-2.56-.33-2.14,1.29-4.59,1.98-7.09,1.98-7.74,0-14.04-6.48-14.04-14.45,0-3.95,1.52-7.63,4.28-10.38Z"/>
    </g>
  </g>
  <path class="cls-24" d="M1406.51,468.94c-50.62,4.76-101.15,10.88-151.07,19.94-23.77,4.32-47.41,9.33-70.68,15.54-23.24,6.2-46.3,13.56-67.9,23.55-20.6,9.51-42.08,22.16-53.55,40.94h46.19c1.99,0,3.31-2.06,4.71-3.23,2.95-2.47,5.98-4.85,9.1-7.15,29.37-21.69,64.64-36.46,99.98-48.31,44.91-15.06,91.65-25.54,138.59-33.95,7.48-1.34,14.98-2.62,22.48-3.85,3.67-.6,7.35-1.19,11.03-1.77,1.85-.29,3.7-.58,5.55-.86,1.77-.27,3.8-.85,5.57-.85-1.82.17,0,0,0,0Z"/>
  <path class="cls-25" d="M1576.27,442.14c-2.83-7.24-12.19-9.07-18.4-6.72-1.9.72-2.62,1.55-3.85,2.73-2.52-6.15-12.67-8-22.39-6.96-10.85,1.16-19.46,6.91-21.28,13.6-2.93-1.51-6.51-2.23-10.28-1.82-3.77.4-7.11,1.86-9.67,3.95-2.61-3.43-7.43-5.46-12.71-4.89-2.16.23-4.15.88-5.89,1.82-3.28-4.2-9.81-6.88-17.41-6.96-7.41,1.68-13.25,5.69-15.62,10.49-1.89-.55-3.97-.76-6.13-.53-5.27.56-9.58,3.57-11.44,7.48-2.93-1.51-6.5-2.22-10.26-1.81-3.77.4-7.13,1.85-9.68,3.95-3.14-6.16-12.73-9.96-23.58-8.8-9.72,1.04-19.28,5-20.49,11.54-1.45-.89-2.32-1.56-4.32-1.86-6.56-.98-15.34,2.79-16.64,10.47-15.59,3.71-13.64,26.32-13.64,26.32l136.18-14.57,136.18-14.57s-2.68-22.53-18.69-22.87Z"/>
  <path class="cls-14" d="M1427.34,468.01s.04.04.04.04c-142.03,20.33-261.56,50.83-320.58,100.86h693.2v-119.09c-129.3.82-251.39,7.34-372.66,18.19Z"/>
  <path class="cls-10" d="M1403.85,469.73h0c-131.32,19.47-241.47,50.59-296.04,98.51h56.79c49.28-43.33,153.48-79.04,272.23-101.2-11.14.9-22.1,1.68-32.99,2.69Z"/>
  <g>
    <path class="cls-8" d="M1800,480.43c-4.95.32-9.88.66-14.81,1.02-42.85,26.73-85.6,53.53-128.25,80.41,19.02.58,37.44,1.12,54.47,1.61,29.61-22.92,59.13-45.88,88.58-68.87v-14.17Z"/>
    <path class="cls-8" d="M1670.24,493.74c-52.27,20.99-104.49,42.09-156.66,63.31,25.54.98,54.28,1.97,83.5,2.93,49.9-24.99,99.72-50.08,149.45-75.27-25.87,2.47-51.33,5.49-76.3,9.03Z"/>
    <path class="cls-8" d="M1800,565.93v-45.39c-14.92,14.72-29.81,29.44-44.66,44.18,20.64.57,36.43,1,44.66,1.22Z"/>
    <path class="cls-6" d="M1536.7,518.67c-40.81,9.57-79.79,20.64-116.61,33.05,3.36,1.43,41.92,3.35,93.49,5.33,52.17-21.22,104.39-42.33,156.66-63.31-46.28,6.57-90.91,14.93-133.53,24.93Z"/>
    <path class="cls-6" d="M1746.54,484.71c-49.73,25.19-99.55,50.28-149.45,75.27,20.01.65,40.25,1.29,59.86,1.88,42.65-26.88,85.4-53.68,128.25-80.41-12.98.95-25.87,2.03-38.66,3.25Z"/>
    <path class="cls-6" d="M1711.42,563.47c16.11.47,30.97.88,43.93,1.24,14.85-14.74,29.74-29.46,44.66-44.18v-25.94c-29.45,22.99-58.98,45.95-88.58,68.87Z"/>
  </g>
  <path class="cls-13" d="M1510.12,536.19c-2.25-6.21-12.22-8.55-19.24-7.18-2.14.42-3.02,1.04-4.5,1.9-2.04-5.28-12.87-7.71-23.55-7.73-11.93-.02-21.95,3.94-24.69,9.28-3.01-1.51-6.82-2.41-10.97-2.42-4.14,0-7.94.89-10.97,2.38-2.45-3.05-7.46-5.15-13.26-5.16-2.37,0-4.62.35-6.61.96-3.09-3.75-9.89-6.54-18.13-7.28-8.25.71-15.06,3.49-18.17,7.23-1.99-.62-4.23-.98-6.6-.99-5.8,0-10.82,2.08-13.29,5.12-3.01-1.5-6.81-2.41-10.95-2.41-4.15,0-7.96.89-10.98,2.39-2.71-5.35-12.71-9.34-24.64-9.36-10.68-.02-21.53,2.38-23.59,7.66-1.47-.86-2.35-1.49-4.49-1.92-7.01-1.39-17,.92-19.28,7.12-17.38,1.66-17.83,20.42-17.83,20.42l149.72.23,149.72.23s-.35-18.77-17.71-20.48Z"/>
  <rect class="cls-20" y="550.51" width="1800" height="357.35"/>
  <rect class="cls-22" y="550" width="1800" height="10.51"/>
  <path class="cls-2" d="M179.21,103.52c5.21-5.24,15.18-8.79,26.65-8.79,13.66,0,25.21,5.04,29.09,11.98,2.43-.35,4.98-.54,7.6-.54,12.6,0,23.42,4.29,28.06,10.4,11.27.06,16.05,3.55,18.18,8.69,1.62,3.91-1.51,7.58-5.33,7.58H122.01c-3.82,0-5.96-2.93-3.94-6.88,4.27-8.31,11.42-11.93,24.33-9.6,9.34,1.69,15.05-17.96,29.73-13.32,2.35.74,4.81.16,7.08.47Z"/>
  <path class="cls-2" d="M684.45,240.59c-5.21-5.24-15.18-8.79-26.64-8.79-13.66,0-25.22,5.04-29.09,11.98-2.43-.35-4.98-.54-7.6-.54-12.6,0-23.42,4.29-28.06,10.4-11.27.06-16.05,3.55-18.18,8.69-1.62,3.91,1.51,7.58,5.33,7.58h161.45c3.82,0,5.96-2.93,3.94-6.88-4.26-8.31-11.42-11.93-24.33-9.6-9.34,1.68-15.05-17.96-29.73-13.32-2.35.74-4.81.17-7.08.47Z"/>
  <path class="cls-2" d="M1518.35,162.06c6.54-8.54,19.07-14.32,33.46-14.32,17.15,0,31.67,8.21,36.54,19.52,3.05-.57,6.26-.87,9.55-.87,15.83,0,29.41,6.99,35.24,16.96,14.15.1,20.16,5.78,22.84,14.16,2.04,6.38-1.89,12.35-6.7,12.35h-202.76c-4.8,0-7.49-4.77-4.94-11.21,5.36-13.55,14.35-19.44,30.55-15.64,11.73,2.75,18.9-29.27,37.34-21.7,2.95,1.21,6.03.27,8.89.76Z"/>
  <path class="cls-2" d="M1255.91,79.34c-2.89-3.59-7.42-5.49-14.91-5.34-.28-1.95-2.29-3.8-5.13-4.48-1.63-.39-3.25-.32-4.59.1-.84-1.51-2.65-2.96-5.04-3.84-2.57-.95-5.18-1.01-7.02-.33-.72-1.65-2.47-3.07-4.82-3.64-2.09-.51-4.18-.23-5.72.61-.64-.67-1.51-1.29-2.6-1.8-3.39-1.59-8.07-1.81-12.23-.83-1.66-3.78-7.78-6.58-15.07-6.58-5.46,0-10.27,1.57-13.03,3.95-1.49-.46-3.17-.72-4.97-.72-5.92,0-10.71,2.81-10.71,6.28,0,.02,0,.05,0,.07-1.36.09-2.7.32-3.96.72-2.96.93-4.85,2.54-5.43,4.33-1.47-.48-3.23-.58-5.01-.19-3.99.87-6.58,3.87-5.79,6.69.01.05.04.09.05.14-8.06.23-11.62,1.98-13.25,4.49-1.32,2.03,1.23,3.94,4.35,3.94h131.7c3.12,0,4.86-1.52,3.21-3.57Z"/>
  <g>
    <path class="cls-15" d="M1040.54,592.82c0,3.14,12.05,5.68,26.92,5.68s26.92-2.55,26.92-5.68-12.05-5.69-26.92-5.69-26.92,2.55-26.92,5.69Z"/>
    <path class="cls-23" d="M1065.62,540.95c.02-1.65,1.06-39.11,1.12-45.36h1.26c.18,17.58,1.12,45.59,1.12,45.59,0,0,.4,15.8.57,30.05.08,7.54.17,15.07.26,22.6h-5.12v-.05c.09-8.15.19-16.31.28-24.46.17-14.51.51-28.36.51-28.36Z"/>
    <g>
      <path class="cls-18" d="M1033.23,534.54c.33-1.41.68-3.01,1.44-4.31,1.77-3.04,5.66-4.72,6.46-8.32.79-3.62-1.72-7.15-2.5-10.59-1.05-4.63-.06-9.05,3.11-12.78,3.25-3.83,7.78-4.76,7.16-10.46-.71-6.53-2.5-12.24,2.85-17.68.39-.4.82-.8,1.28-1.18.68-.56,1.42-1.08,2.2-1.45,7.38-3.56,14.14-3.62,21.63,0,.79.38,1.52.89,2.2,1.45.45.38.88.78,1.28,1.18,5.35,5.44,3.55,11.15,2.84,17.68-.62,5.7,3.91,6.64,7.16,10.46,3.17,3.73,4.16,8.14,3.11,12.78-.78,3.44-3.3,6.97-2.5,10.59.79,3.6,4.69,5.29,6.45,8.32.75,1.29,1.11,2.9,1.44,4.31,2.77,11.96-5.18,23.13-16.94,28.3-4.78,2.1-10.13,2.47-15.41,2.56-.15,0-.3,0-.45,0-.15,0-.3,0-.45,0-5.29-.08-10.64-.45-15.41-2.55-11.76-5.17-19.7-16.34-16.94-28.3Z"/>
      <path class="cls-3" d="M1034.73,530.23c1.22-2.09,3.44-3.54,4.97-5.42.04-.01.08-.02.12-.03-.34.4-.66.82-.92,1.28-.75,1.29-1.11,2.9-1.44,4.31-2.77,11.96,5.18,23.13,16.94,28.3,4.78,2.1,10.13,2.47,15.41,2.55.15,0,.3,0,.45,0,.15,0,.3,0,.45,0,5.29-.09,10.63-.46,15.41-2.56,2.88-1.27,5.53-2.9,7.85-4.81-3.06,3.75-7.22,6.86-12.02,8.97-4.78,2.1-10.13,2.47-15.41,2.56-.15,0-.3,0-.45,0-.15,0-.3,0-.45,0-5.29-.08-10.64-.45-15.41-2.55-11.76-5.17-19.7-16.34-16.94-28.3.33-1.41.68-3.01,1.44-4.31Z"/>
    </g>
  </g>
  <g>
    <path class="cls-15" d="M1695.38,600.63c0,3.51,13.5,6.36,30.15,6.36s30.15-2.85,30.15-6.36-13.5-6.37-30.15-6.37-30.15,2.85-30.15,6.37Z"/>
    <path class="cls-23" d="M1723.47,542.54c.02-1.85,1.18-43.8,1.26-50.8h1.41c.21,19.68,1.26,51.05,1.26,51.05,0,0,.45,17.69.63,33.65.1,8.44.2,16.87.29,25.31h-5.73v-.06c.1-9.13.21-18.26.31-27.39.19-16.25.57-31.76.57-31.76Z"/>
    <g>
      <path class="cls-18" d="M1687.19,535.35c.37-1.58.76-3.38,1.61-4.83,1.98-3.4,6.34-5.29,7.23-9.32.89-4.06-1.92-8.01-2.8-11.86-1.18-5.19-.06-10.14,3.49-14.31,3.64-4.29,8.71-5.33,8.01-11.72-.79-7.31-2.8-13.71,3.19-19.8.44-.45.92-.9,1.43-1.32.76-.63,1.59-1.21,2.47-1.63,8.27-3.99,15.83-4.05,24.22,0,.88.42,1.71,1,2.47,1.63.51.42.99.87,1.43,1.32,5.99,6.09,3.98,12.49,3.18,19.8-.7,6.39,4.37,7.43,8.02,11.72,3.55,4.17,4.66,9.12,3.48,14.31-.87,3.85-3.69,7.8-2.8,11.86.89,4.04,5.25,5.92,7.23,9.32.84,1.45,1.24,3.25,1.61,4.83,3.1,13.4-5.8,25.9-18.97,31.69-5.35,2.35-11.34,2.77-17.26,2.87-.17,0-.33,0-.5,0-.17,0-.34,0-.5,0-5.92-.09-11.91-.5-17.26-2.86-13.17-5.79-22.07-18.3-18.97-31.69Z"/>
      <path class="cls-3" d="M1688.87,530.52c1.37-2.34,3.86-3.96,5.56-6.06.04-.01.09-.02.13-.03-.38.45-.74.92-1.03,1.43-.84,1.45-1.24,3.25-1.61,4.83-3.1,13.4,5.8,25.9,18.97,31.69,5.35,2.35,11.34,2.77,17.26,2.86.17.01.33,0,.5,0,.17,0,.34,0,.5,0,5.92-.1,11.91-.52,17.26-2.87,3.23-1.42,6.2-3.24,8.8-5.38-3.43,4.2-8.09,7.69-13.46,10.05-5.35,2.35-11.34,2.77-17.26,2.87-.17,0-.33,0-.5,0-.17,0-.34,0-.5,0-5.92-.09-11.91-.5-17.26-2.86-13.17-5.79-22.07-18.3-18.97-31.69.37-1.58.76-3.38,1.61-4.83Z"/>
    </g>
  </g>
  <g>
    <path class="cls-23" d="M1540.42,654.93c.02-1.63,1.04-38.53,1.11-44.68h1.24c.18,17.31,1.1,44.9,1.1,44.9,0,0,.39,15.56.56,29.6.08,7.42.17,14.84.26,22.26h-5.04v-.05c.09-8.03.19-16.06.28-24.09.17-14.29.5-27.94.5-27.94Z"/>
    <g>
      <path class="cls-18" d="M1508.52,648.61c.32-1.39.67-2.97,1.41-4.25,1.74-2.99,5.58-4.65,6.36-8.2.78-3.57-1.69-7.04-2.46-10.43-1.04-4.57-.05-8.92,3.07-12.59,3.2-3.77,7.66-4.69,7.05-10.31-.7-6.43-2.47-12.06,2.8-17.41.39-.4.81-.79,1.26-1.16.67-.56,1.4-1.06,2.17-1.43,7.27-3.51,13.93-3.56,21.31,0,.77.37,1.5.88,2.17,1.43.45.37.87.77,1.26,1.16,5.27,5.36,3.5,10.98,2.8,17.41-.61,5.62,3.85,6.54,7.05,10.31,3.12,3.67,4.1,8.02,3.06,12.59-.77,3.39-3.25,6.86-2.46,10.43.78,3.55,4.62,5.21,6.36,8.2.74,1.28,1.09,2.85,1.41,4.25,2.72,11.78-5.1,22.78-16.68,27.88-4.71,2.07-9.97,2.43-15.18,2.53-.14,0-.29,0-.44,0-.15,0-.3,0-.44,0-5.21-.08-10.48-.44-15.18-2.51-11.58-5.09-19.41-16.09-16.68-27.88Z"/>
      <path class="cls-3" d="M1509.99,644.36c1.2-2.06,3.39-3.49,4.89-5.33.04,0,.08-.02.12-.03-.34.4-.65.81-.91,1.26-.74,1.28-1.09,2.85-1.41,4.24-2.72,11.78,5.1,22.78,16.68,27.88,4.71,2.07,9.97,2.43,15.18,2.51.14,0,.29,0,.44,0,.15,0,.3,0,.44,0,5.21-.09,10.47-.46,15.18-2.53,2.84-1.25,5.45-2.85,7.74-4.73-3.01,3.7-7.11,6.76-11.84,8.84-4.71,2.07-9.98,2.43-15.18,2.53-.15,0-.29,0-.44,0-.15,0-.3,0-.44,0-5.21-.08-10.48-.44-15.18-2.51-11.58-5.09-19.41-16.09-16.68-27.88.32-1.39.67-2.97,1.41-4.25Z"/>
    </g>
  </g>
  <rect class="cls-15" y="807.86" width="1800" height="242.14"/>
  <path class="cls-18" d="M1738.97,736.44c.03-7.36-6.13-11.52-11.23-11.03-1.55.15-2.31.72-3.52,1.47-.06-6.28-6.78-10.67-14.01-12.31-8.07-1.83-15.85,1.13-19.04,6.75-1.66-2.16-4.01-3.76-6.82-4.4-2.8-.63-5.6-.2-8.02,1.03-.89-3.82-3.76-6.96-7.69-7.84-1.61-.36-3.21-.31-4.72.09-1.16-4.7-5.06-8.89-10.45-10.98-5.76-.44-11.07,1.66-14.11,5.41-1.19-1.01-2.62-1.75-4.23-2.11-3.92-.89-7.85.71-10.28,3.78-1.66-2.16-4.01-3.76-6.81-4.39-2.81-.64-5.61-.2-8.03,1.03-.5-6.46-6.27-12.48-14.34-14.31-7.23-1.64-15.17-.57-17.89,5.08-.78-1.2-1.22-2.04-2.56-2.85-4.4-2.63-11.74-1.54-14.84,5.13-12.18-.76-17.19,20.39-17.19,20.39l101.33,22.94,101.33,22.95s4.46-21.27-6.87-25.84Z"/>
  <path class="cls-15" d="M959.82,625.96s-.02,0-.04,0c322.34,24.61,613.69,70.4,840.22,145.28v138.75H0v-267.08c326.53-16.54,643.64-23.27,959.82-16.95Z"/>
  <g>
    <rect class="cls-4" y="818.85" width="1800" height="205"/>
    <g>
      <rect class="cls-5" x="1689" y="910.71" width="85" height="5.08"/>
      <rect class="cls-5" x="1521.1" y="910.71" width="85" height="5.08"/>
      <rect class="cls-5" x="1353.2" y="910.71" width="85" height="5.08"/>
      <rect class="cls-5" x="1185.3" y="910.71" width="85" height="5.08"/>
      <rect class="cls-5" x="1017.4" y="910.71" width="85" height="5.08"/>
      <rect class="cls-5" x="849.5" y="910.71" width="85" height="5.08"/>
      <rect class="cls-5" x="681.6" y="910.71" width="85" height="5.08"/>
      <rect class="cls-5" x="513.7" y="910.71" width="85" height="5.08"/>
      <rect class="cls-5" x="345.8" y="910.71" width="85" height="5.08"/>
      <rect class="cls-5" x="177.9" y="910.71" width="85" height="5.08"/>
      <rect class="cls-5" x="10" y="910.71" width="85" height="5.08"/>
    </g>
    <rect class="cls-9" y="823.7" width="1800" height="4.9"/>
    <rect class="cls-9" y="1009.94" width="1800" height="4.89"/>
  </g>
  <g>
    <path class="cls-7" d="M91.68,748.65c0,4.74,17.84,8.58,39.84,8.58s39.84-3.84,39.84-8.58-17.84-8.58-39.84-8.58-39.84,3.85-39.84,8.58Z"/>
    <path class="cls-23" d="M128.8,670.35c.03-2.49,1.56-59.05,1.67-68.48h1.86c.27,26.53,1.66,68.82,1.66,68.82,0,0,.59,23.85.84,45.36.13,11.38.26,22.74.39,34.12h-7.57v-.08c.14-12.3.28-24.62.42-36.93.25-21.9.75-42.82.75-42.82Z"/>
    <g>
      <path class="cls-18" d="M80.87,660.66c.48-2.13,1.01-4.55,2.12-6.51,2.62-4.59,8.38-7.12,9.55-12.56,1.18-5.47-2.54-10.8-3.7-15.99-1.56-7-.08-13.67,4.61-19.29,4.81-5.78,11.51-7.18,10.59-15.79-1.05-9.86-3.71-18.48,4.21-26.69.59-.61,1.22-1.21,1.89-1.78,1-.85,2.1-1.62,3.26-2.2,10.92-5.38,20.92-5.46,32.01,0,1.16.57,2.26,1.34,3.26,2.2.67.57,1.3,1.17,1.89,1.78,7.91,8.21,5.26,16.83,4.21,26.69-.92,8.61,5.78,10.02,10.59,15.79,4.69,5.63,6.16,12.3,4.6,19.29-1.15,5.19-4.88,10.52-3.7,15.99,1.17,5.44,6.93,7.98,9.55,12.56,1.11,1.96,1.64,4.37,2.12,6.51,4.09,18.06-7.66,34.92-25.06,42.72-7.07,3.17-14.99,3.73-22.81,3.87-.22,0-.44,0-.66,0-.22,0-.44,0-.66,0-7.82-.12-15.74-.68-22.81-3.85-17.4-7.8-29.16-24.66-25.06-42.72Z"/>
      <path class="cls-3" d="M83.08,654.15c1.8-3.16,5.09-5.34,7.35-8.17.06-.02.12-.03.18-.04-.51.61-.97,1.25-1.36,1.93-1.12,1.95-1.64,4.37-2.12,6.5-4.09,18.06,7.66,34.92,25.06,42.72,7.07,3.17,14.98,3.73,22.81,3.85.22.01.44.01.66,0,.22,0,.45,0,.66,0,7.82-.14,15.73-.7,22.81-3.87,4.26-1.91,8.19-4.37,11.62-7.26-4.53,5.67-10.69,10.36-17.79,13.55-7.07,3.17-14.99,3.73-22.81,3.87-.22,0-.44,0-.66,0-.22,0-.44,0-.66,0-7.82-.12-15.74-.68-22.81-3.85-17.4-7.8-29.16-24.66-25.06-42.72.48-2.13,1.01-4.55,2.12-6.51Z"/>
    </g>
  </g>
</svg>