<?xml version="1.0" encoding="UTF-8"?>
<svg xmlns="http://www.w3.org/2000/svg" xmlns:xlink="http://www.w3.org/1999/xlink" viewBox="0 0 5009.11 3180.45">
  <defs>
    <style>
      .cls-1 {
        fill: url(#linear-gradient-15);
      }

      .cls-2 {
        fill: url(#linear-gradient-13);
      }

      .cls-3 {
        fill: url(#linear-gradient-2);
      }

      .cls-4 {
        fill: url(#linear-gradient-12);
      }

      .cls-5 {
        opacity: .44;
      }

      .cls-5, .cls-6, .cls-7, .cls-8, .cls-9, .cls-10, .cls-11 {
        fill: #fff;
      }

      .cls-12 {
        fill: url(#linear-gradient-4);
      }

      .cls-7 {
        opacity: .14;
      }

      .cls-13 {
        fill: #b7d8f2;
      }

      .cls-8 {
        opacity: .19;
      }

      .cls-14 {
        fill: url(#linear-gradient-3);
      }

      .cls-15 {
        fill: url(#linear-gradient-5);
      }

      .cls-16 {
        fill: #f5f9fd;
      }

      .cls-17 {
        fill: url(#linear-gradient-8);
      }

      .cls-18 {
        fill: #d1e7f7;
      }

      .cls-19 {
        fill: #e9f0fa;
      }

      .cls-9 {
        opacity: .17;
      }

      .cls-20 {
        fill: url(#linear-gradient-14);
      }

      .cls-21 {
        fill: #c1dcf3;
        opacity: .6;
      }

      .cls-22 {
        fill: url(#linear-gradient-20);
      }

      .cls-23 {
        fill: url(#linear-gradient-17);
      }

      .cls-24 {
        fill: url(#linear-gradient-7);
      }

      .cls-25 {
        fill: url(#linear-gradient-9);
      }

      .cls-26 {
        fill: url(#linear-gradient-11);
      }

      .cls-27 {
        fill: url(#linear-gradient-19);
      }

      .cls-28 {
        fill: url(#linear-gradient-6);
      }

      .cls-10 {
        opacity: .62;
      }

      .cls-11 {
        opacity: .48;
      }

      .cls-29 {
        fill: #b2d4f0;
      }

      .cls-30 {
        fill: url(#linear-gradient-16);
      }

      .cls-31 {
        fill: url(#linear-gradient);
      }

      .cls-32 {
        fill: #dfe9f6;
      }

      .cls-33 {
        fill: url(#linear-gradient-10);
        opacity: .36;
      }

      .cls-34 {
        fill: #bcdaf3;
      }

      .cls-35 {
        fill: url(#linear-gradient-18);
      }
    </style>
    <linearGradient id="linear-gradient" x1="2504.55" y1="0" x2="2504.55" y2="3180.45" gradientUnits="userSpaceOnUse">
      <stop offset="0" stop-color="#0068b4"/>
      <stop offset=".1" stop-color="#1c75bb"/>
      <stop offset=".16" stop-color="#2b7cc0"/>
      <stop offset=".31" stop-color="#488fc8"/>
      <stop offset=".46" stop-color="#64a1d1"/>
      <stop offset=".53" stop-color="#86b5db"/>
      <stop offset=".64" stop-color="#b1cfe7"/>
      <stop offset=".74" stop-color="#d3e4f1"/>
      <stop offset=".84" stop-color="#ebf3f9"/>
      <stop offset=".93" stop-color="#f9fbfd"/>
      <stop offset="1" stop-color="#fff"/>
    </linearGradient>
    <linearGradient id="linear-gradient-2" x1="442.46" y1="1731.95" x2="2255.87" y2="1731.95" gradientUnits="userSpaceOnUse">
      <stop offset="0" stop-color="#e9e9f5"/>
      <stop offset=".42" stop-color="#d2e1f3"/>
      <stop offset="1" stop-color="#b7d8f2"/>
    </linearGradient>
    <linearGradient id="linear-gradient-3" x1="2366.68" y1="1783.05" x2="3324.83" y2="1783.05" xlink:href="#linear-gradient-2"/>
    <linearGradient id="linear-gradient-4" x1="3267.55" y1="1820.13" x2="4329.84" y2="1820.13" xlink:href="#linear-gradient-2"/>
    <linearGradient id="linear-gradient-5" x1="2231.83" y1="1757.13" x2="2466.06" y2="1757.13" xlink:href="#linear-gradient-2"/>
    <linearGradient id="linear-gradient-6" x1="4723.54" y1="623.92" x2="4862.75" y2="623.92" gradientUnits="userSpaceOnUse">
      <stop offset=".01" stop-color="#b7d8f2"/>
      <stop offset=".38" stop-color="#bad9f2"/>
      <stop offset=".74" stop-color="#c6ddf3"/>
      <stop offset="1" stop-color="#d4e2f4"/>
    </linearGradient>
    <linearGradient id="linear-gradient-7" x1="3210.53" y1="543.72" x2="3583.05" y2="543.72" gradientUnits="userSpaceOnUse">
      <stop offset=".01" stop-color="#b7d8f2"/>
      <stop offset=".99" stop-color="#d4e2f4"/>
    </linearGradient>
    <linearGradient id="linear-gradient-8" x1="3935.33" y1="694.14" x2="4758.36" y2="694.14" xlink:href="#linear-gradient-6"/>
    <linearGradient id="linear-gradient-9" x1="3166.12" y1="1112.44" x2="3957.18" y2="1112.44" xlink:href="#linear-gradient-6"/>
    <linearGradient id="linear-gradient-10" x1="3693.75" y1="1169.06" x2="3730.65" y2="1169.06" gradientTransform="translate(-9.2 35.87) rotate(-2.45)" xlink:href="#linear-gradient-6"/>
    <linearGradient id="linear-gradient-11" x1="3038.45" y1="1543.23" x2="3978.12" y2="1543.23" xlink:href="#linear-gradient-6"/>
    <linearGradient id="linear-gradient-12" x1="1563.79" y1="321.21" x2="2175.59" y2="321.21" xlink:href="#linear-gradient-2"/>
    <linearGradient id="linear-gradient-13" x1="3128.1" y1="778.02" x2="3167.41" y2="778.02" xlink:href="#linear-gradient-2"/>
    <linearGradient id="linear-gradient-14" x1="4233.11" y1="771.47" x2="4615.98" y2="1434.63" gradientUnits="userSpaceOnUse">
      <stop offset="0" stop-color="#fff"/>
      <stop offset=".29" stop-color="#f8fafd"/>
      <stop offset=".68" stop-color="#e7eff9"/>
      <stop offset="1" stop-color="#d4e2f4"/>
    </linearGradient>
    <linearGradient id="linear-gradient-15" x1="3779.05" y1="1043.03" x2="5009.11" y2="1043.03" xlink:href="#linear-gradient-6"/>
    <linearGradient id="linear-gradient-16" x1="636.34" y1="1260.9" x2="2453.24" y2="1260.9" xlink:href="#linear-gradient-2"/>
    <linearGradient id="linear-gradient-17" x1="402.19" y1="1139.49" x2="402.19" y2="919.43" gradientUnits="userSpaceOnUse">
      <stop offset="0" stop-color="#f4fbfe"/>
      <stop offset=".36" stop-color="#e9e9f5"/>
      <stop offset=".63" stop-color="#d2e1f3"/>
      <stop offset="1" stop-color="#b7d8f2"/>
    </linearGradient>
    <linearGradient id="linear-gradient-18" x1="93.71" y1="946.83" x2="142.55" y2="946.83" xlink:href="#linear-gradient-17"/>
    <linearGradient id="linear-gradient-19" x1="2321.15" y1="1460.43" x2="7.35" y2="124.56" xlink:href="#linear-gradient-2"/>
    <linearGradient id="linear-gradient-20" x1="1528.24" y1="852.28" x2="1662.37" y2="852.28" xlink:href="#linear-gradient-2"/>
  </defs>
  <g id="_Слой_3" data-name="Слой_3">
    <rect class="cls-31" y="0" width="5009.11" height="3180.45"/>
  </g>
  <g id="Layer_2">
    <path class="cls-6" d="M2124.58,1108.82c44.99,25.14,95.95,49.25,149.48,49.25,65.88,0-179.03-75.4-183.51-75.4-1.85,0-2.57,1.85-2.57,4.25,0,3.8,1.79,8.97,3.73,10.37,8.62,6.24,23.55,6.33,32.87,11.53Z"/>
    <path class="cls-7" d="M3050.59,1328.85c47.89-8.31,488.68-26.3,485.93-96.39-.19-4.92-43.8-10.83-44.3-23.54-.23-5.84,29.84-53.55,142.1-57.95,72.06-2.83,69.8-.15,70.08,7.2,1.19,30.2-70.69,51.39-69.64,78.22.24,6.15,4.22,11.27,11.21,11,121.72-4.78,897.65-283.28,897.65-283.28,90.71-3.56-292.13,146.95-316.79,161.59,34.57,5.51,63.25,25.19,64.38,54.07,1.44,36.71-79.98,166.52-217.01,171.9-41.48,1.63-52.38-22.96-52.89-35.86-.6-15.28,9.12-32.09,8.84-39.42-.3-7.58-106.83-3.37-111.93-3.17-296.53,11.64-626.97,102.28-781.86,108.36-70.75,2.78-141.18-4.3-210.47-29.89,39.78-15.02,84.71-15.9,124.7-22.84Z"/>
    <path class="cls-7" d="M102.03,818.74c94.03,29.01,238.23,254.62,621.78,287.37,88.52,7.56-154.78-138.23-146.97-229.74.72-8.48,9.23-7.64,14.78-7.17,29.65,2.53,55.82,18.32,81.99,34.32,438.94,268.39,948.5,341.88,1442.66,420.06-19.53-42.13-135.81-39.01,101.53-18.75,366.04,31.25-613.13-44.45-1344.89-417.28,19.3-2.92,38.53-2.76,57.72-1.12,34.88,2.98,69.65,10.81,104.57,13.79,228.02,19.47-599.08-249.39-654.28-186.63-57.9,81.03,139.18,145.96-339.49,7.01-.23-.07-.49-.11-.77-.14-10.77-.92-14.38,12.51-15.29,23.2-3.41,39.97,40.63,63.96,76.67,75.08Z"/>
    <path class="cls-6" d="M2839.36,1284.07c14.02-24.22-259.84-76.11-254.61-57.02-5.23,13.4,237.37,86.8,254.61,57.02Z"/>
    <path class="cls-6" d="M2919.43,1302.03c-4.3,12.94,52.36,16.63,78.57,16.63,50.65,0,10.57-30.39-25.23-30.39-19.17,0-48.68,2.85-53.35,13.76Z"/>
    <path class="cls-6" d="M2216.68,486.32c24.31,15.62,51.3,30.58,81,30.58,20.53,0,27.73-14.34,27.73-23.09,0-42.1-137.67-56.23-139.07-31.8-.44,7.6,24.4,20.49,30.35,24.31Z"/>
    <path class="cls-6" d="M1331.85,249.73c12.25,1.85,70.81,7.43,70.81-13.68,0-9.76-32.91-35.67-74.64-35.67-28.29,0-46.6,41.73,3.82,49.35Z"/>
    <path class="cls-3" d="M717.16,1673.84c0-33.26,41.87-50.27,80.29-50.27,63.22,0,92.76,40.7,107.96,85.48,15.6-13.79,36.56-24.66,60.94-24.66,39.78,0,20.67,29.27,94.45,35.66,176.98,15.32,207.5,30.01,390.18,30.01s-300.9-.27,389.54-.27c30.34,0,62.06-2.8,92.92-2.8,78.89,0,125.91,10.1,126.71,25.18.56,10.65-16.85,9.87-16.85,11.19,0,8.05,668.29,56.98-364.98,56.98-425.05,0-1618.15-102.7-1092.64-126.89-258.41-23.79-103.9-53.87-23.87-53.87,52.06,0,105.55,8.15,155.35,14.26Z"/>
    <path class="cls-14" d="M2524.41,1801.2s11.79-27.31,83.52-30.95c49.23-2.5,63.27,15.88,63.27,15.88,8-19.92,36.61-27.25,66.24-27.25,18.56,0,35.81,4.08,46.58,14.93,29.97-15.1,47.35-45.78,84.22-45.78,30.03,0,45.09,14.87,45.09,31.57,26.3-3.18,47.74-9.44,73.12-11.01,62.57-3.86,32.69,25.22,32.69,25.22,106.06,13.5,308.6,10.51,305.66,24.88,3.92,21.85-410.14,39.37-617.4,39.37-5.96,0-340.72.56-340.72-18.05,0-9.91,141.12-8.52,157.73-18.81Z"/>
    <path class="cls-11" d="M4056.42,1504.9c-1.71-13.69,362.54-178.79,349.61-121.12-29.91,133.5-358.2,142.05-349.61,121.12Z"/>
    <path class="cls-12" d="M3267.55,1887.43c125.5-4.33,237.56-51.91,336.17-116.79,4.48,8.65,17.25.36,22.41,8.65,7.69,12.37,5.16,39.48,18.78,39.48,31.63,0,92.3-65.94,151.65-65.94,50.41,0,58.06,35.11,58.06,35.11.04,0,.07,0,.11,0,95.61-7.69,194.52-20.46,291.69-20.46,62.3,0,123.89,5.25,183.43,20.46-336.17,108.14-712.67,86.51-1062.29,99.49Z"/>
    <path class="cls-15" d="M2358.21,1775.54c111.27,0,166.23-42.79,16.13-36.12-98.79,4.38-141.07,7.53-142.46,16.05-2.72,16.8,84.17,20.07,126.32,20.07Z"/>
    <path class="cls-21" d="M2985.17,2163.2c27.41-29.1,57.42-73.22,99.01-73.22,35.92,0,51.15,37.22,79.91,37.22,2.58,0,66.4-21.89,102.89-21.89,1.21,0,23.89,1.05,41.17,1.05,48.72,0,97.44-4.7,146.23-4.7,0,0,404.98,57.33,1137.62,57.33,942.91,0-424.31,41.71-690.81,41.71-330.34,0-2393.05-39.37-1047.75-39.37,44.02,0,87.95.57,131.73,1.87Z"/>
    <path class="cls-9" d="M655.98,2205.48c39.45,1.04,78.9,2.01,118.37,2.93,772.26,17.88,1548.99,12.82,2320.5,30.69,2841.18,65.79-120.82,61.02-2210.19,12.64-589.44-13.65-777.47-16.26-777.01-34.6.08-3.17,117.33-22.23,398.78-15.71,50.46,1.17,100.61,2.76,149.55,4.05Z"/>
    <path class="cls-13" d="M3716.03,657.33c-2.39,1.62-5.24,2.38-7.98,3.28-60.11,19.79-26.23,64.85,13.73,64.85,34.56,0,72.39-28.87,72.39-65.41,0-26.49-22.37-25.46-40.66-28.56-28.97-4.91-24.53,17.02-37.48,25.83Z"/>
    <path class="cls-6" d="M3832.31,282.8c-13.63,16.45-33.34,34.56-33.34,65.32,0,8.75,5.76,8.83,16.89,8.83,51.87,0,118.75-42.35,118.75-87.05,0-17.75-12.42-40.32-31.64-40.32-24.84,0-54.45,33.66-70.66,53.22Z"/>
    <path class="cls-8" d="M401.74,2422.48c181.62-15.18,1622.28-62.66,1691.04-62.66,224.08,0,448.53-6.03,672.21-6.03,278.65,0,556.11,9.36,830.18,51.39,54.11,7.38-105.17,12.98-157.76,25.95,35.11,4.21,70.29,7.9,105.5,11.24,38.36,3.65,76.75,6.89,115.16,9.87,40.79,3.16,81.6,6.02,122.43,8.67,42.42,2.75,84.85,5.28,127.29,7.64,43.24,2.41,86.49,4.65,129.74,6.78,43.26,2.13,86.53,4.15,129.8,6.09,42.48,1.91,84.97,3.76,127.46,5.57,40.9,1.75,81.81,3.48,122.71,5.23,38.52,1.65,77.04,3.31,115.56,5.05,35.34,1.59,70.68,3.25,106.01,5.04,31.36,1.59,62.71,3.29,94.05,5.2,26.58,1.63,53.15,3.4,79.7,5.54,21.01,1.69,42.01,3.57,62.94,6.04,24.62,2.91,56.91-.39,73.15,22.65.91,1.3,1.77,2.72,1.92,4.3.74,8.23-12.41,6.19-17.07,6.19-389.49-.06-780.89,20.71-1170.59,20.71-967.55,0-658.84-47.22-550.43-76.94-335.39-18.77-675.79-42.07-1013.95-42.07-274.95,0-524.79,42.62-1170.21,42.62-532.25,0-1213.57-76.39-932-76.39,72.32,0,145.23,5.59,218.48,5.59,28.85,0,57.76-.87,86.7-3.29Z"/>
    <path class="cls-29" d="M672.33,1321.96c22.46,32.52,69.51,38.49,105.3,29.79,8.26-2.01,8.47-7.4,3.78-14.42-40.77-61.03-121.66-63.53-133.95-49.58-11.57,13.14,15.22,23.23,24.86,34.21Z"/>
    <path class="cls-6" d="M428.01,1248.65c11.54-3.39,11.07-15.35,7.8-26.49-7.01-23.87-38.04-39.39-60.29-32.85-25,7.34-17.41,31.13-11.09,36.2,2.31,1.85,5.63,2.76,8.33,4.04,35.47,16.77,36.24,24.69,55.24,19.1Z"/>
    <path class="cls-6" d="M3606.62,964.37c-.1.07-.29.07-.62,0-1.25-.25-2.25-.55-3.55-.27-6.27,1.35-17.37,15.96,5.95,15.96,42.77,0,60.85-38.97,32.43-38.97-8.59,0-17.57,1.86-24.52,7.16-3.76,2.86-6.74,6.7-8.67,11.01-.82,1.83-1.02,5.11-1.02,5.11Z"/>
    <path class="cls-6" d="M4425.46,1763.43c0,9.34,66.65,3.43,79.16-6.86,7.86-6.46,3.81-12.63-4.66-13.53-6.56-.69-13.15.56-19.64,1.31-8.57.98-17.1,2.44-25.5,4.42-6.04,1.42-29.36,5.48-29.36,14.66Z"/>
    <path class="cls-6" d="M4646.58,1682.69c1.57,7.67,18.35,5.35,23.56,5.31,11.05-.08,22.2-.92,32.82-4.14,6.87-2.08,20.29-8.59,12.07-16.94-5.53-5.62-16.33-5.99-23.66-5.99-17.33,0-48.15,5.34-44.79,21.75Z"/>
    <path class="cls-10" d="M1628.54,1961.22c42-1.24,83.83-1.6,125.57-1.6,58.85,0,117.5.72,176.19.72,540.35,0-77.68-47.65-103.67-47.65-134.55,0-269.61,49.39-215.27,49.39,5.41,0,11.21-.68,17.18-.86Z"/>
    <path class="cls-18" d="M701.13,1205.08c11.49,9.45,26.14,15.32,41.1,15.32,16.77,0,23.72-9.17,23.72-19.09,0-14.72-33.26-46.03-76.42-46.03-5.8,0-11.97-.48-17.57,1.32-5.52,1.77-11.25,7.93-7.68,14.13,1.56,2.71,4.98,3.53,7.9,4.63,13.33,5,18.26,20.95,28.95,29.73Z"/>
    <path class="cls-6" d="M1021.02,1356.48c13.21,11.46,40.62,16.27,40.61-1.77,0-8.25-22.24-29.62-42.22-30.71-5-.27-13.31,2.54-16.4,6.66-6.55,8.71,11.97,20.56,18.02,25.82Z"/>
    <path class="cls-6" d="M2789.14,1545.31c12.25,10.27,75.34,11.09,105.26,10.18,5.79-.18,19.64-1.54,17.93-10.43-2.58-13.44-71.9-15.57-114.51-7.46-3.8.72-13.07,4.03-8.68,7.71Z"/>
    <path class="cls-6" d="M3022.44,1522.86c34.31,0,33.11-24.4-4.15-24.4-44.6,0-62.87,24.4,4.15,24.4Z"/>
    <path class="cls-6" d="M4469.82,1437.3c-2.02,20.71,21.77,25.64,43.88,25.64,84.52,0,81.43-58.89,25.02-58.89-20.24,0-66.2,5.62-68.9,33.26Z"/>
    <path class="cls-6" d="M4682.44,1431.8c-1.05,3.05-1.54,5.86-1.54,8.46,0,16.6,19.92,24.02,38.16,24.02,24.7,0,36.13-12.51,36.13-27.5,0-12.1-8.96-30.35-33.84-30.35-16.65,0-33.06,8.45-38.92,25.38Z"/>
    <path class="cls-6" d="M4773.95,1347.9c-.62,4.48-2.46,10.15,5.16,14.9,13.21,8.22,45.13,4.12,45.13-15.76,0-7.98-4.57-20.01-20.38-20.01-8.29,0-33.9-3.26-31.25,12.17.72,4.19,1.97,4.08,1.33,8.71Z"/>
    <path class="cls-28" d="M4763.12,612.82c-2.83-.68-5.6-1-8.27-1-17.64,0-31.3,14.01-31.3,31.45,0,21.6,14.71,22.82,36.74,22.82,45.44,0,102.47-25.09,102.47-59.47,0-15.11-19.63-24.87-36.05-24.87-22.65,0-47.99,14.14-63.58,31.07Z"/>
    <path class="cls-13" d="M4496.61,119.53c-309.45,209.03,149.44,113.49,149.44-61.29,0-5.64-4.7-17.06-17.81-11.61-.09.04-90.02,44.79-131.63,72.9Z"/>
    <path class="cls-6" d="M4774.24,123.57c-2.84.99-33.63,13.84-45.46,20.95-5.04,3.03-11.65,7.34-11.65,13.96,0,10.16,23.63,11.45,38.93,11.45,34.49,0,58.36-22.32,58.36-33.1,0-6.6-5.51-11.69-10.98-14.46-9.11-4.62-19.64-2.13-29.2,1.2Z"/>
    <path class="cls-6" d="M89.73,1095.86c18.11-.6,37.18-6.25,34.37-24.07-4.7-29.79-36.2-54.24-65.58-54.24-16.41,0-39.5,8.85-39.5,25.43,0,32.8,38.29,53.95,70.71,52.87Z"/>
    <path class="cls-6" d="M62.2,822.65c16.07,4.39,33.28,2.04,35.75-12.68,2.4-14.3-15.24-26.05-32.59-28.97-12.48-2.1-27.38-.05-31.46,11.28-4.78,13.27,11.11,25.68,28.3,30.38Z"/>
    <path class="cls-34" d="M1391.07,1501.15c22.68,0,45.75.39,68.33-2.14,3.58-.4,16.18-.52,13.26-5.92-3.05-5.62-65.47-16.72-84.18-20.19-115.7-21.5-134.57-23.27-194.41-39.56-10.57-2.88-5.89,7.3-1.78,11.26,35.29,33.98,146.21,56.55,198.79,56.55Z"/>
    <g>
      <path class="cls-6" d="M3316.96,380.94c-51.89,34.1-124.92,76.58-134.77,128.79-2.95,15.67,7.36,40.04,24.84,45.32,32.12,9.71,81.64-9.72,81.64-9.72-25.61,51.55-13.66,67.99,10.36,81.44,0,0-96.47,85.15-89.82,108.01,13.51,58.57,389.27-158.81,373.35-213.04-1.22-4.14-6.49-30.19-51.97-19.65-2.07.48,24.78-9.2,25.55-37.49.56-20.77-23.04-39.54-42.82-43.27-12.39-2.34-20.84-2.14-20.84-2.14,0,0,30.09-16.34,37.4-55.13,4.18-22.17.15-37.4-37.64-44.52-63.59-11.99-121.12,25.81-175.28,61.4Z"/>
      <path class="cls-24" d="M3582.56,521.74c-1.22-4.14-6.49-30.19-51.97-19.65-2.07.48,24.78-9.2,25.55-37.49.56-20.77-23.04-39.54-42.82-43.27-12.39-2.34-20.84-2.14-20.84-2.14,0,0,30.09-16.34,37.4-55.13,1.1-5.84,1.6-11.18,1.1-16.03-9.07,3.14-18.1,6.21-26.99,8.3-.04,0-.08.01-.11.01-.2,0-.29-.17-.29-.47,0-1.48,2.07-6.14,2.07-9.47,0-3.61-2.14-3.65-5.69-3.65-19.12,0-36.75,15.6-45.29,33.74-4.91-5.61-11.24-8.01-17.7-8.01-41.09,0-70.9,57.52-114.98,57.52-22.17,0-57.34,26.84-57.34,57.37,0,7.02,1.9,14.1,6.25,20.85-37.09,3.71-59.75,32.49-59.97,51.8,32.07,7.18,77.73-10.73,77.73-10.73-.18.37-.32.7-.5,1.07,8.58-4.61,16.24-8.92,21.96-11.89-11.48,15.02-30.92,42.48-35.27,63.34,2.08,13.55,11.2,21.58,23.77,28.69,1.17.07,2.35.13,3.55.13,48.84,0-7.04,4.82-91.64,111.31,27.33,46.6,387.63-163.1,372.03-216.23Z"/>
    </g>
    <g>
      <path class="cls-6" d="M4359.79,586.81c-82.42,59.08-141.59,55.96-260.7,130.87-27.01,13.51-34,29.06-33.65,33.11,1.04,12.12,18.91,12.89,39.16,11.27,58.43-4.68-57.93,5.9-54.55,45.19,4.91,57.16-148.06,110.97-137.35,150.02,11.41,41.6,782.63-234.18,778.06-287.43-1.65-19.2-61.41-21.74-95.22-19.03,43.15-26.51,166.33-79.9,162.74-121.69-1.35-15.74-28.15-24.74-56.49-22.47-2.67.21-5.36.53-8.04.95,20.59-18.26,34.97-42.53,33.09-64.48-4.17-48.48-89.68-61.73-144.27-57.36-79.01,6.32-90.94,41.61-93.23,44.08-.76.82,9.19-33.99-59.73-24.68-55.28,7.46-133.43,49.19-128.61,105.3,2.01,23.35,9.73,22.26,44.69,19.46-22.56,10.24-70.18,17.59-68.13,41.51.51,5.88,4.27,9.4,24.94,7.74,56.93-4.56,18.77-1.14,19.6,8.47.24,2.74,4.16,3.06,11.71,2.46,7.79-.62,16.83-2.57,25.98-3.31Z"/>
      <path class="cls-17" d="M4758.29,529.12c-1.35-15.74-28.15-24.74-56.49-22.47-2.67.21-5.36.53-8.04.95,20.59-18.26,34.97-42.53,33.09-64.48-.5-5.77-2.17-11.02-4.78-15.82-17.45,3.47-36.65,12.61-37.85,29.44-7.05-10.58-12.17-18.04-27.45-18.04-10.23,0-18.95,4.75-22.89,15.59-12.07-10.22-26.91-18.91-43.02-18.91-55.02,0-49.04,67.9-105.05,67.9-12.44,0-53.65,11.96-53.65,44.45,0,24.26,18.86,35.34,43.05,35.34,28.14,0,42.02-3.31,48.26-6.07-1.57,2.73-2.96,7.18-2.96,14.13,0,33.34-43.69,6.6-68.36,55.94-6.19-8.26-14.54-11.51-23.23-11.51-12,0-24.66,6.19-33.25,13.96-53.1,48.04-114.2,22.79-114.2,58.94-7.62-6.19-16.7-8.66-26.11-8.66-19.83,0-62.87,13.89-62.87,47.92,0,5.21,1,10.6,3.02,16-85.65,0-92.64,109.71-101.92,54.03-17.84,5.71-25.31,21.78-25.31,38.82,0,14.35,8.45,34.96,8.45,34.96-11.2,0-25.13-8.26-25.13-20.62,0-7.33-67.71,13.79-116.26,90.07,128.65-12.62,759.58-242.96,755.44-291.14-1.65-19.2-61.41-21.74-95.22-19.03,43.15-26.51,166.33-79.9,162.74-121.69Z"/>
    </g>
    <path class="cls-5" d="M5009.11,2718.16c-79.55-3.23-179.57-4.96-302.55-4.96-513.01,0,64.85,54.58-738.5,54.58-495.42,0-989.61-44.5-1485.1-44.5-145.58,0-291.28,3.84-437.15,13.78-.03,0-.06,0-.1,0-1,0-1.35-1.14-1.35-2.95,0-3.93,1.62-11.06,1.62-16.63,0-4.5-1.06-7.99-4.87-7.99-.19,0-.39,0-.59.03-174.37,14.99-350.58,34.78-525.68,34.78-645.99,0-295.17-83.5-295.17-138.62,0-12.91-164.81-74.8-368.59-74.8-247.25,0-498.89,75.39-738.32,130.46,26.32,34.3,152.39,74.89-112.76,76.68v145.93c226.91,25.68,457.67,22.02,683.16,45.85-63.76,58.17-282.44,127.19-96.37,127.19,0,0,908.18-120.57,1383.76-120.57,288.68,0,576.32,28.54,862.18,110.4-27.74,81.34-285.14,93.65,59.23,93.65,3.46,0,1506.77-171.36,2117.14-297.03v-125.28Z"/>
    <g>
      <path class="cls-6" d="M3194.34,1186.68c89.03-12,236.81-24.66,259.97-63.44.11-.19.22-.32.22-.5,0-2.99-19.02-10.04-19.02-21.27,0-29.06,40.09-61.59,85.02-64.34,20.62-1.26,36.92,19.81,49.61,19.81,74.07,0,173.88-99.23,229.67-99.23,8.84,0,11.12,5.92,11.12,14.56,0,26.94-53.61,45.76-24.29,45.76,20.13,0,60.73-34.02,110-34.02,30.6,0,60.55,18.15,60.55,47.06,0,101.54-537.6,194.88-713.72,194.88-47.16,0-151.84,0-141.76-16.2,5.23-9.63,53.79-1.79,53.79-1.79-.75-8.22,11.21-17.56,38.85-21.28Z"/>
      <path class="cls-25" d="M3957.18,1031.07c0-13.21-6.29-24.13-16-32.14-44.93,1.41-50.13,62.75-119.27,62.75-24.28,0-32.93-7.88-45.36-7.88-20.75,0-43.53,17.44-47.33,42.11-8.7-21.75-30.14-40.45-59.56-40.45-86.06,0-104.31,54.28-104.31,54.28-3.46,0-22.66-16.07-24.38-16.07-15.2,0-25.24,14.43-25.24,30.01,0,54.58-264.7,58.44-349.6,101.06,27.4,1.21,57.47,1.22,77.34,1.22,176.12,0,713.72-93.34,713.72-194.88Z"/>
      <path class="cls-33" d="M3731.33,1051.21c1.46,34.23,11.2-5.78,36.18-17.77-5.38-3.94-37.81-20.29-36.18,17.77Z"/>
    </g>
    <g>
      <path class="cls-6" d="M2949.31,1575.99c108.1-13.9,232.04,20.71,322.72-73.54,8.11-8.43,15.97-12,23.64-12,16.81,0,32.68,17.16,48.07,37.95,8.26-23.9,40.04-38.22,61.08-38.22,12.15,0,24.48,3.87,37.53,12.27,38.05-57.12,100.19-108.71,174.68-108.71,37.64,0,40.45,43.83,40.47,43.83,63.37,0,124.57-69.29,180.67-69.29,6.44,0,7.53,5.54,7.53,11.86,0,3.26-.29,6.73-.29,9.75,0,5.21.95,5.01.95,10.54,0,41.47-38.1,36.96,13.68,36.96,44.79,0,118.09,9.77,118.09,52.77,0,50.51-226.56,51.21-130.13,51.21,101.73,0-127.2,61.12-460.73,61.12-175.07,0-351.53-13.35-518.63-22.19,26.89-4.33,54.02-.9,80.68-4.33Z"/>
      <path class="cls-26" d="M3615.17,1552.36c-62.29,0-34.8-6.39-34.8-22.87,0-4.72-.87-4.39-14.96-4.39-45.43,0-92.58,13.02-133.51,36.21,7.47,2.99,16.43,1.49,23.91,7.47-31.99,3.28-65.82,8.47-99.21,8.47-49.05,0-87.04-15.88-87.04-15.88-14.23,0-28.45,16.25-43.84,17.86-62.61,6.54-125.41,4.58-187.26,10.75,114.77,6.57,232.09,12.51,348.81,12.51,333.54,0,562.46-61.12,460.73-61.12-96.43,0,130.13-.7,130.13-51.21,0-2.16-.23-4.21-.59-6.2-70.93,10.06-228,32.35-228,32.35,0,24-111.96,36.05-134.36,36.05Z"/>
    </g>
    <g>
      <path class="cls-6" d="M1714.45,307.78c15.69,29.13,76.94,102.34,224.82,116.18,30.27,2.83,56.75,5.02,84.45-7.86,8.94-4.16,14.13-21.24,10.99-30.15,3.89,11.04,47.66,23.08,56.99,24.92,49.3,9.71,92.68,1.01,89.17-.75,0,0-116.54-52.89-148.93-177.96-7.69-29.67-48.93-43.47-73.53-43.47-42.83,0-50.44,41.88-91.88,41.88-51.15,0-70.66-37.83-113.24-44.56-37.63-5.94-87.4,14.37-41.09,54.8-25.4-14.99-53.04-27.16-91.89-33.88-53.49-9.26-79.72-8.41-83.67,5.23-8.11,28.01,55.75,68.32,87.83,81.97,49.62,21.12,89.96,13.65,89.96,13.65Z"/>
      <path class="cls-4" d="M2163.42,406.39c-95.99-23.16-121.77-74.7-121.77-74.7-17.93-2.24-14.01,41.46-36.6,29.88,9.15-47.25-12.14-60.7-19.42-45.57-6.03,12.52-8.87,13.77-17.37,15.13-7.04,1.12-7.84-14.01-10.65-28.57-7.01-36.44-31.08-34.12-39.28-34.12-3.34,0-6.67,1.48-9.21,1.48,0,0-12.49-22.45-39.44-26.19-20.21-2.8-12.93,20.73-37.02,17.37-10.21-1.43-34.19-12.57-39.78-16.06-11.2-7-25.39-28.73-38.6-28.73-8.29,0-15.71,10.09-15.71,18.25,0,37.58,57.16,24.3-24.76,24.3-18.53,0-35.58-12.3-35.86-12.3-3.94,0-17.5,4.41-17.5,9.98,0,21.38-10.95-17.45-56.19-17.45-13.71,0-34.16,5.67-40.5,18.03,19.21,15.86,44.17,29.98,60.7,37.02,49.62,21.12,89.96,13.65,89.96,13.65,15.69,29.13,76.95,102.34,224.82,116.18,30.27,2.83,56.75,5.02,84.45-7.86,8.94-4.16,14.13-21.24,10.99-30.15,3.89,11.04,47.66,23.08,56.99,24.92,37.21,7.33,71.03,4.17,83.88,1.43-3.16-2.8-7.18-4.71-12.16-5.91Z"/>
    </g>
    <path class="cls-2" d="M3140.26,767.56c-5.4,2.91-12.16,8.18-12.16,14.91,0,4.39,4.33,9.55,11.55,9.55,8.36,0,27.76-8.92,27.76-18.43,0-4.01-3.71-7.14-7.17-8.39-6.55-2.37-13.85-.92-19.85,2.29-.04.02-.08.04-.12.06Z"/>
    <g>
      <path class="cls-20" d="M5009.11,770.4c-11.29,3.37-23.01,5.32-35.28,5.32-8.69,0,.89-14.76-9.83-14.76-33.77,0-61.91,9.77-84.42,29.3-33.19-43.19-79.97-60.44-129.66-60.44-60.98,0-151.22,38.32-151.22,38.32,0-35.85-37.2-65.78-79.33-65.78s-82.63,39.5-82.63,39.5c0,0-10.9-5.36-29.4-6.71-35.37-2.57-48.36,29.73-48.36,29.73-16.2,0-52.11-4.83-69.22-4.83-42.57,0-74.79,14.93-77.06,35.37-4.43,39.87,45.81,48.27,81.55,53.42-99.77,8.24-221.61,48.52-221.61,133.7,0,54.55,25.66,73.08,78.02,73.08,36.36,0,73.38-11.47,109.83-11.47-90.05,63.48-205.45,83.94-298.3,136.72-35.48,20.17-73.22,35.9-110.81,51.63-26.57,11.12-53.11,21.56-79.94,31.94-7.62,2.95-24.08,9.36-21.81,14.7,4.36,2.63,28.05-8.35,26.98,2.64-.34,3.53-4.54,5.47-5.61,8.85-.6,1.9.83,4.95,4.75,4.83,132.07-3.89,180.48-29.76,278.83-52.11,38.25-8.69,74.4-16.75,76.46-18.54-172.25,149.44,297.08,11.04,382.72-34.18,0,29.67,12.05,46.63,49.75,46.63,43.08,0,114.73-32.28,114.73-32.28,30,7.37,131.22,42.48,222.62,40.15,36.39-.93,73.55-15.01,108.27-38.18v-436.57Z"/>
      <path class="cls-1" d="M4882.87,887.16c0,20.93-1.31-7.21-45.56-7.21-110.5,0-102.06,115.4-102.06,115.4,0,0-2.66-7.69-12.28-8.96-14.19-1.87-14.94,20.17-12.17-36.36,3.8-77.59-70.05-88.04-98.58-100.72-20.84-9.26-28.83-58.62-64.61-58.62s-71.26,48.43-71.26,60.61c0,33.21,21.32,11.17-38.08,11.17-45.84,0-108.36,26.91-108.36,83.91,0,19,7.81,37.4,26.83,46.36-13.94,10.46-22.28,24.92-22.28,41.42,0,43.84-92.05,89.82-198.39,134.35-3.72-1.62-8.27-1.12-12.21-1.12-113.5,0-287.74,93.13-344.79,127.98,36.23-1.18,66.12-4.04,92.51-8.03,0,0,0,0,.01,0,.73-.11,1.43-.23,2.16-.35,2.85-.44,5.66-.89,8.44-1.36,1.5-.25,2.98-.51,4.46-.77,2.23-.39,4.44-.79,6.63-1.2,1.29-.24,2.59-.47,3.86-.72,3.11-.6,6.17-1.21,9.2-1.84,1.36-.28,2.7-.57,4.05-.86,2.05-.44,4.08-.88,6.1-1.33,1.3-.29,2.6-.58,3.89-.87,2.93-.67,5.83-1.35,8.72-2.04,1.22-.29,2.43-.59,3.65-.89,2-.49,3.99-.98,5.97-1.48,1.31-.33,2.62-.66,3.92-.99,2.37-.61,4.73-1.22,7.09-1.84,1.6-.42,3.2-.84,4.8-1.27,1.94-.52,3.87-1.03,5.81-1.55,1.54-.42,3.08-.83,4.62-1.25,1.48-.4,2.97-.81,4.46-1.22,8.12-2.22,16.3-4.49,24.69-6.79.25-.07.49-.13.74-.2,3.43-.94,6.9-1.88,10.41-2.83.57-.15,1.16-.31,1.74-.46,2.9-.78,5.84-1.56,8.81-2.34.82-.22,1.64-.43,2.46-.65,3.49-.91,7.03-1.82,10.64-2.73.53-.13,1.09-.27,1.62-.4,3.11-.78,6.28-1.56,9.49-2.33.99-.24,1.97-.48,2.97-.71,3.79-.91,7.63-1.81,11.57-2.7,38.25-8.69,74.4-16.75,76.46-18.54-2.45,2.13-4.74,4.18-6.94,6.2-.69.63-1.33,1.24-2,1.86-1.48,1.39-2.92,2.75-4.28,4.08-.68.66-1.34,1.32-1.98,1.96-1.32,1.32-2.57,2.61-3.76,3.88-.5.53-1.03,1.08-1.51,1.6-1.6,1.73-3.1,3.42-4.46,5.05-.21.25-.39.49-.59.74-1.13,1.37-2.18,2.71-3.14,4-.4.53-.75,1.05-1.12,1.56-.71,1-1.37,1.97-1.98,2.93-.34.53-.67,1.05-.98,1.57-.57.96-1.08,1.89-1.55,2.8-.22.42-.46.85-.66,1.26-.59,1.25-1.1,2.46-1.49,3.61-.12.35-.18.68-.29,1.02-.24.81-.45,1.61-.6,2.38-.08.45-.13.88-.18,1.31-.07.63-.11,1.25-.11,1.84,0,.42,0,.85.03,1.26.05.59.16,1.16.28,1.72.08.35.12.71.22,1.05.25.81.58,1.57,1,2.3.2.35.46.67.69,1.01.28.4.57.81.9,1.19.31.35.65.68,1,1.01.34.32.71.63,1.09.93.41.32.82.64,1.27.94.41.27.86.51,1.3.76,1.01.57,2.11,1.1,3.3,1.58.38.15.72.32,1.12.46.71.26,1.48.48,2.24.71.47.14.94.29,1.43.42.81.22,1.65.42,2.52.6.48.1.97.2,1.47.3.95.18,1.9.36,2.91.51.3.04.62.08.92.12,3.69.51,7.75.83,12.15.97.39.01.78.03,1.18.04,1.41.03,2.85.05,4.33.05.34,0,.68,0,1.03,0,6.8-.04,14.26-.45,22.3-1.17.15-.01.3-.03.44-.04,2.04-.19,4.11-.39,6.21-.62h0c105.8-11.39,297.29-72.62,348.99-99.92,0,29.67,12.05,46.63,49.75,46.63,43.08,0,114.73-32.28,114.73-32.28,30,7.37,131.22,42.48,222.62,40.15,36.39-.93,73.55-15.01,108.27-38.18v-407.45c-53.83,11.95-126.24,45.91-126.24,87.63Z"/>
      <path class="cls-19" d="M4513.58,861.91c-18.34-3.68-67.81,18.39-72.69,42.68-10.49,52.23-30.51,23.34-38.82,64.73,12.02-10.08,29.84-13.97,45.98-10.73,16.73,3.36,8.33,10.43,14.43-19.96,4.92-24.5,8.52-59.24,51.11-76.73Z"/>
      <path class="cls-16" d="M4329.84,1070.43c-2.51-.23-5.03-.35-7.57-.35-40.22,0-68.8,27.8-68.8,59.93,0,10.06,3.03,19.94,9.88,27.82,8.22-37.35,35.86-65.74,66.49-87.4Z"/>
      <path class="cls-32" d="M4954.36,888.98c.95-.29,1.77-.38,2.54-.38,11.83,0-15.33-6.69-30.19-6.69-77.51,0-83.16,69.58-88.89,98.21,34.36-34.36,69.96-77.04,116.54-91.14Z"/>
    </g>
    <g>
      <path class="cls-6" d="M925.86,1119.29c-1.33-10.18-4.47-20.48-4.47-30.1,0-22.05,32.12-53.23,74.58-53.23,55.83,0,30.33,35.16,30.33-33.53,0-49.62,35.01-80.85,63.37-80.85,62.27,0,112.98,54.15,118.75,139.54,9.91-8.44,21.5-12.46,33.34-12.46,33.42,0,69.98,34.02,69.98,76.99,0,19.63-6.7,13.57,12.57,13.57,56.39,0,96.81,51.37,126.31,98.76,18.14-17.88,41.71-26.01,65.58-26.01,40.46,0,73.45,26.39,107.04,47.77,112.63,71.67,232.18,125.17,357.38,164.25,153.7,47.98,484.42,70.12,472.31,89.18-16.82,26.49-403.44-9.51-466.24-22.01-98.5-16.31-194.09-46.15-291.35-68.94-110.31-25.85-222.18-36.92-334.94-36.92-147.04,0-446.76-95.88-428.15-124.04,6.05-17.41,31.87-9.31,46.74-13.96-4.25-1.95-460.88-200.13-313.27-200.13,35.11,0,70.49,26.61,107.19,30.26-6.15-6.73-10.85-17.26-10.85-25.9,0-15.89,19.45-17.85,33.94-17.85,50.53,0,93.31,49.6,129.87,85.63Z"/>
      <path class="cls-30" d="M1980.6,1423.97c-119.7-37.37-234.24-87.96-342.5-154.96-31.82-12-63.44-20.99-92.75-20.99s-58.68,9.79-81.9,36.14c-8.09-25.61-31.57-37.44-55.35-37.44-41.04,0-44.01,27.14-44.01,5.83,0-11.08,2.62-22.94,2.62-33.75,0-35.52-59.02-49.08-82.06-49.08-36.99,0-25.95,18.97-25.95-24.08,0-28.77-16.93-43.22-36.33-43.22-12.29,0-24.78,5.83-32.34,15.9,0-88.26-43.42-121.3-87.96-119.06-48.66,2.45-69.91,45.48-69.98,45.66-.07.17-13.09,16.94-17.28,35.33-.02.44-.09.72-.2.86-.04.18-.09.36-.13.54-.04.21-.16,0-.34-.45-1.72-.47-7.68-6.35-27.97-6.35-36.5,0-60.31,8.17-62.11,33.98.68,3.48,1.35,6.98,1.8,10.46-36.56-36.04-79.34-85.63-129.87-85.63-14.49,0-33.94,1.96-33.94,17.85,0,8.64,4.7,19.17,10.85,25.9-36.7-3.65-72.09-30.26-107.19-30.26-147.61,0,309.02,198.18,313.27,200.13-14.87,4.65-40.69-3.45-46.74,13.96-18.6,28.16,281.11,124.04,428.15,124.04,112.75,0,224.63,11.07,334.94,36.92,97.26,22.79,192.85,52.63,291.35,68.94,62.8,12.51,449.42,48.51,466.24,22.01,12.11-19.07-318.61-41.2-472.31-89.18Z"/>
    </g>
    <g>
      <path class="cls-6" d="M581.47,1066.71c-12.7-29.13-41.09-2.24-41.09-2.24,0,0,10.46-52.29-26.46-53.49-6.67-.22-14.63,4.43-21.39,4.43s-1.25-.38-1.25-21.79c0-28.93-13.88-73.67-64.23-73.67-18.99,0-32.24,4.26-41.53,9.54-2.66-2.65-6.03-4.36-9.83-4.36s-8.34,2.12-12.49,5.44c-3.5-26.64-19.89-54.44-44.3-56.12-34.04-2.34-49.91,17.43-57.2,35.86-1.54-.75-3.31-1.25-5.52-1.25-3.08,0-6.49,1.4-9.5,3.23-4.22-5.63-9.87-8.11-17.82-9.88-5.28-1.18-11.37-1.82-17.63-1.82-21.54,0-40.47,8.21-45.12,27.78-18.68,78.52,84.11,131.98,163.98,131.98,34.03,0,26.47-6.37,26.47,2.26,0,25.48,107.58,38.27,141.24,44.55,226.57,42.32,125.77,56.15,83.67-40.43Z"/>
      <path class="cls-23" d="M454.09,1039.19c-9.86,0-20.15,9-26.51,18.55,0-45.75-10.46-87.64-58.75-87.64-11.62,0-23.41,3.96-33.13,13.69-6.95-34.77-33.51-48.87-48.09-48.87-18.6,0-30.04,20.07-41.56,35.42-11.33-28.32-29.68-50.91-60.31-50.91-5.96,0-11.91.99-17.54,2.83-.85,1.9-1.57,3.91-2.09,6.09-18.68,78.52,84.11,131.98,163.98,131.98,34.03,0,26.47-6.37,26.47,2.26,0,25.48,107.58,38.27,141.24,44.55,185.41,34.63,151.59,50.17,110.11,1.75-50.05-11.75-104.38-20.73-131.03-35.46-10.57-5.84-.29-34.24-22.79-34.24Z"/>
    </g>
    <path class="cls-35" d="M111,952.49c23.96,19.45,42.96,9.11,23.52-8.22-12.38-11.04-35.46-16.7-39.76-11.88-3.81,4.27,2.95,9.31,16.23,20.1Z"/>
    <path class="cls-18" d="M2590.37,1138.63c6.54,3.04,90.33,36.18,90.02,25.06-.41-14.97-30.33-22.01-41.65-26.82-13.11-5.57-26.31-11.17-40.19-14.39-19.86-4.57-30.02,6-8.18,16.14Z"/>
    <g>
      <path class="cls-6" d="M2170.23,1000.46c5.92,5.05,12.68,10.29,10.91,19.05-2.48,12.26-18.54,1.84-26.59-1.42-6.09-2.47-101.2-41.16-105.37-50.56-4.03-9.08,23.83-6.33,28.3-6.69,32.44-2.62-23.63-53.33-30.38-58.71,25.63,8.13,161.67,53.13,142.87,28.95,27.3,5.24,55.06,8.16,83.88,7.3,27.96-.84-2.94-20.99-11.48-25.38-21.63-11.1-79.48-29.08-116.88-21.43-15.34-9.75-33.93-18.81-56.4-26.08-76.03-24.62-68.89-16.23-72.41-27.33-12.75-40.19-70.41-126.31-215.58-151.23-59.33-10.19-128.87-6.08-182.15-15.22-8.7-1.49-35.83-40.81-70.23-46.72-18.21-3.13-49.12,7.64-52.3-4.63-53.92-208.12-142.86-223.94-308.24-252.33-40.06-6.88-36.57,8.71-27.44-24.78,29.13-106.78-85.48-86.85-102.82-97.26,0,0,41.67-124.56-107.61-153.42-24.28-4.69-81.83-14.02-97.66-16.74,0,0,4.54-40.53-39.97-75.82h-357.94c-19.25,10.06-30.19,17.71-30.2,17.7,0,0-4.15-8.72-15.22-17.7h-146.6c-78.19,35.57-124.73,107.61-124.73,107.61-35.24-6.05-102.4-4.08-137.97,29.68v334.55c17.53.13,30.37-1.4,30.37-1.34,2.68,38.97,44.31,26.8,52.27,24.6-30.4,51.71,8.83,207.3,156.83,232.71,75.2,12.91,162.73-42.03,162.73-42.03,0,0,697.45,206.18,541.24,17.63,775.51,218.16,478.67,23.69,478.67,23.69-141.02-110.8,278.86,65.31,435.82,114.77-12.45,10.12-49.74-2.34-49.74,17.81,0,4.27,15.09,13.01,17.9,15.12,90.45,67.81,253.22,164.76,388.97,185.37,18.21,2.76.11-23.8,27.03-23.8,75.64,0,190.34,64.9,284.43,67.75.77,0,1.22-1.73,1.22-3.54,0-3.15-6.19-6.89-8.24-8.44-73.76-55.87-266.63-94.3-350.43-110.95-18.7-3.72-5.61,13.49,1.17,19.27Z"/>
      <path class="cls-27" d="M2527.72,1100.58c0-3.15-6.19-6.89-8.24-8.44-73.76-55.87-266.63-94.3-350.42-110.95-18.7-3.72-5.61,13.48,1.17,19.27,5.92,5.05,12.68,10.29,10.91,19.05-2.48,12.26-18.54,1.84-26.59-1.42-6.09-2.47-101.2-41.16-105.37-50.56-.52-1.16-.5-2.13-.08-2.93-28.25-18.37-52.32-38.95-52.32-49.71,0-.17.02-.34.07-.5,1.8-6.75,2.66-13.24,2.66-19.45,0-68.02-186.13-151.9-239.54-151.9-18.45,0-34.25,6.57-34.25,23.57,0,65.9-318.29-146.36-322.77-146.36-13.77,0-13.07-38.35-59.33-38.35-15.89,0-32.56,5.74-46.01,16.49-14-50.38-40.77-114.21-93.79-114.21-21.83,0-42.6,12.68-54.12,35.77-.1.21-.27.3-.48.3-1.82,0-7.21-7.2-8.49-11.51-20.46-69.04-55.64-144.21-130.46-144.21-53.09,0-90.94,47.44-90.96,47.44-10.18,0-31.61-20.69-51.78-20.69-5.97,0-16.66,3.14-16.66,7.63,0,2.58,1.37,6.42,1.37,8.13,0,.54-.14.87-.5.87-.03,0-.07,0-.11,0-111.54-16.9-182.05-109.34-182.05-113.82,0-17.39,40.71,6.17,82.89,6.17,33.32,0,39.52-19.41,39.52-53.61,0-104.48-116.27-209.56-226.44-209.56-24.76,0-41.21,2.12-41.21,26.97,0,69.96,9.58,13.34-54.63,13.34-28.97,0-33.14,12.75-33.14,28.46,0,4.47.29,9.13.29,13.68,0,51.85-46.17-110.61-190.47-110.61-.43,0-.87.01-1.31.02-67.5,37.43-107.11,98.69-107.11,98.69-35.24-6.05-102.4-4.08-137.97,29.68v334.55c17.53.13,30.37-1.4,30.37-1.34,2.68,38.97,44.31,26.8,52.27,24.6-30.4,51.71,8.83,207.3,156.83,232.71,75.2,12.91,162.73-42.03,162.73-42.03,0,0,697.45,206.18,541.24,17.63,775.51,218.16,478.67,23.69,478.67,23.69-141.02-110.8,278.86,65.31,435.82,114.77-12.45,10.12-49.74-2.34-49.74,17.81,0,4.27,15.09,13.01,17.9,15.12,90.45,67.81,253.22,164.76,388.97,185.37,18.21,2.76.11-23.8,27.02-23.8,75.64,0,190.34,64.9,284.43,67.75.77,0,1.22-1.73,1.22-3.54Z"/>
      <path class="cls-6" d="M553.56,257.73c27.31,17.56,44.69,71.08,64.77,71.08,7.56,0,18.87-10.25,18.87-22.78,0-29.67-54.17-60.67-84.36-60.67-2.07,0-3.97.81-3.97,3.77,0,.55.06,1.17.2,1.87.44,2.2,4.48,4.48,4.48,6.72Z"/>
      <path class="cls-6" d="M1240.08,594.64c.68-2.05,1.7-2.65,2.73-2.65,25.4,0,47.15,68.98,47.57,68.98,5.6,0,14.52-19.38,14.52-36.73,0-28.09-17.63-43.07-41.53-43.07-9.96,0-19.09,3.86-23.3,13.47Z"/>
      <path class="cls-6" d="M878.52,448.22c8.64-8.64,21.06-12.85,32.95-12.85,29.41,0,43.6,25.22,43.6,52.93,0,15.32-2.18-.22,24.73-.22,57.02,0,79.35,102,79.35,2.61,0-55.75-58.54-78.5-100.26-78.5-2.15,0-4.29.06-6.4.18-.14,0-.29.01-.44.01-5.71,0-18.22-5.49-29.87-5.49-10.99,0-44.78,10.52-44.78,33.4,0,2.47.36,5.11,1.13,7.94Z"/>
    </g>
    <path class="cls-22" d="M1546.37,841.17c28.74,15.5,55.56,44.44,88.86,44.44,13.63,0,27.14-3.34,27.14-16.91,0-28.81-115.89-49.73-120.38-49.73-10.37,0-13.76,1.48-13.76,7.09,0,1.74.52,3.48,1.7,4.66,4.48,4.48,10.86,7.45,16.43,10.46Z"/>
  </g>
</svg>