<?xml version="1.0" encoding="UTF-8"?>
<svg id="Layer_1" xmlns="http://www.w3.org/2000/svg" viewBox="0 0 2880 1800">
  <defs>
    <style>
      .cls-1 {
        fill: #020630;
      }

      .cls-2 {
        fill: #f09fb7;
      }

      .cls-3 {
        fill: #f2b640;
      }

      .cls-4 {
        fill: #010311;
      }

      .cls-5 {
        fill: #3c1e86;
      }

      .cls-6 {
        fill: #f5f7ff;
      }

      .cls-7 {
        fill: none;
      }

      .cls-8 {
        fill: #211361;
      }

      .cls-9 {
        fill: #0b0a45;
      }

      .cls-10 {
        fill: #7ebce3;
      }
    </style>
  </defs>
  <rect class="cls-9" width="2880" height="1800"/>
  <path class="cls-8" d="M2880,0v1246.17c-43.12-15.38-85.28-33.46-126.13-54.14-72.99-36.95-144.28-84.64-185.83-155.11-55.06-93.38-46.92-212.13-1.04-311.73,1.73-3.73,3.5-7.45,5.34-11.13,7.29-14.71,15.41-28.94,24.28-42.56,20.48-31.45,44.85-61.16,57.11-96.64,29.34-84.95-17.15-175.2-31.8-263.87-18.22-110.35,17.23-227.99,91.93-310.99h166.14Z"/>
  <path class="cls-8" d="M1603.63,1800H0v-795.57c54.01-8.29,108.34-13.54,162.71-9.75,82.07,5.73,165.62,34.39,221.64,94.65,50.38,54.21,74.17,128.5,122.21,184.79,72.44,84.9,188.65,116.89,298.98,133.77,171.38,26.21,346.31,26.74,516.38,60.44,93.73,18.57,193.63,53.19,243.54,134.67,26.99,44.06,35.84,96.84,38.84,148.43.93,16.16,1.32,32.56-.67,48.57Z"/>
  <path class="cls-8" d="M1624.34,0c-9.33,19.57-19.59,38.76-30.12,57.66-39.26,70.42-87.14,142.14-160.92,174.65-100.66,44.36-215.96,3.34-325.77-3.29-25.51-1.54-52.03-.97-75.27,9.67-36.12,16.56-57.7,54.36-70.46,92-12.76,37.63-19.25,77.61-37.08,113.12-50.46,100.45-184.65,138.06-291.8,104.08-107.15-33.97-188.34-123.83-242.87-222.12-7.21-13.01-14.65-26.85-27.39-34.51-12.31-7.38-27.53-7.71-41.84-6.55-80.34,6.55-154.44,52.8-235.04,53.17-29.78.14-59.02-6.95-85.78-19.59V0h1624.34Z"/>
  <path class="cls-5" d="M2880,47.59v1017.67c-18.92,3.79-37.98,6.48-57.3,6.84-47.03.87-95.05-13-131.32-42.94-36.27-29.95-59.46-76.69-56.49-123.63,3.07-48.48,32.15-91.29,63.96-127.99,31.82-36.7,67.89-70.78,90.12-113.97,35.96-69.87,30.65-153.78,14.07-230.59-16.59-76.82-43.59-151.94-48.54-230.37-1.25-19.88-.92-40.56,7.35-58.68,7.61-16.64,21.27-29.69,35.31-41.42,25.48-21.29,53.33-39.73,82.84-54.92Z"/>
  <path class="cls-5" d="M1454.55,1800H0v-523.75c15.97,10.94,30.45,23.91,42.74,39.05,30.47,37.53,46.25,86.31,81.39,119.5,28.41,26.85,66.55,40.63,104.2,51.14,175.8,49.09,361.72,41.44,543.24,60.49,179.02,18.79,354.41,63.73,525.8,118.75,47.49,15.25,96.27,32.18,132.87,66.07,18.95,17.55,33.78,46.79,24.31,68.75Z"/>
  <path class="cls-5" d="M825.12,0c-18.16,40.71-21,89.25-19.62,134.77,1.98,64.98,6.23,140.34-42.47,183.41-39.45,34.88-101.92,32.9-148,7.4-46.08-25.5-78.55-69.86-105.18-115.3-9.32-15.91-18.65-32.72-33.86-43.16-18.84-12.92-43.33-13.75-66.11-12-40.34,3.11-80.16,12.92-117.33,28.9-37.07,15.94-72.33,38.23-112.26,44.12C106.5,239.04,35.91,188.59,0,122.13V0h825.12Z"/>
  <path class="cls-5" d="M1533.87,0c-22.19,51.48-61.57,95.38-112.96,116.97-44.49,18.69-94.22,20.04-142.41,17.77-33.28-1.57-67.05-4.87-97.93-17.38-30.87-12.5-58.88-35.42-70.76-66.54-6.23-16.32-7.64-33.6-5.63-50.82h429.69Z"/>
  <path class="cls-1" d="M1572.25,379.19c-122.79,43.47-225.05,130.63-342.85,186.21-139.02,65.59-296.91,85.93-432.16,158.96-37.28,20.13-73.54,45.19-95.85,81.21-14.74,23.8-22.61,51.17-28.73,78.49-12.08,53.95-17.41,112.88,7.09,162.43,31.18,63.07,102.37,95.16,170.37,113.23,164.61,43.73,341.52,34.4,501.5,92.85,109.75,40.1,205.8,110.12,311.07,160.82,105.28,50.69,229.86,81.44,338.2,37.7,42.46-17.14,79.89-44.81,114.23-75.12,114.7-101.24,202.9-250.47,179.04-401.59-12.21-77.34-51.91-145.93-86.08-215.15-36.42-73.79-46.03-146.91-70.98-223.63-35.38-108.79-214.16-164.69-314.12-179.41-83.83-12.35-170.73-5.33-250.74,22.99Z"/>
  <path class="cls-4" d="M1597.29,590.11c-71.71,25.39-131.44,76.29-200.24,108.75-81.19,38.31-173.41,50.19-252.4,92.84-21.77,11.76-42.95,26.4-55.98,47.43-8.61,13.9-13.2,29.89-16.78,45.84-7.05,31.51-10.17,65.93,4.14,94.87,18.21,36.84,59.79,55.58,99.5,66.13,96.14,25.54,199.47,20.09,292.9,54.23,64.1,23.42,120.2,64.32,181.68,93.93,61.49,29.61,134.25,47.57,197.53,22.02,24.8-10.01,46.66-26.17,66.71-43.87,66.99-59.13,118.5-146.29,104.57-234.55-7.13-45.17-30.32-85.23-50.27-125.66-21.27-43.1-26.88-85.8-41.46-130.61-20.66-63.54-125.08-96.18-183.46-104.78-48.96-7.21-99.71-3.11-146.45,13.43Z"/>
  <path class="cls-6" d="M1620.19,743.11c-36.33,12.86-66.59,38.65-101.45,55.1-41.13,19.41-87.85,25.43-127.87,47.04-11.03,5.96-21.76,13.37-28.36,24.03-4.36,7.04-6.69,15.14-8.5,23.23-3.57,15.96-5.15,33.4,2.1,48.06,9.23,18.66,30.29,28.16,50.41,33.5,48.71,12.94,101.06,10.18,148.39,27.48,32.47,11.87,60.89,32.59,92.04,47.59,31.15,15,68.01,24.1,100.07,11.16,12.56-5.07,23.64-13.26,33.8-22.23,33.94-29.96,60.04-74.11,52.98-118.83-3.61-22.89-15.36-43.18-25.47-63.66-10.78-21.83-13.62-43.47-21-66.17-10.47-32.19-63.37-48.73-92.95-53.09-24.8-3.65-50.52-1.58-74.19,6.8Z"/>
  <circle class="cls-2" cx="2749" cy="894" r="40"/>
  <circle class="cls-2" cx="2761.5" cy="775.5" r="8.5"/>
  <circle class="cls-2" cx="1287" cy="1693" r="15"/>
  <circle class="cls-2" cx="691" cy="290" r="24"/>
  <ellipse class="cls-3" cx="2693.5" cy="1583.5" rx="12.5" ry="20.5"/>
  <circle class="cls-3" cx="927.5" cy="1080.5" r="13.5"/>
  <circle class="cls-3" cx="286.5" cy="641.5" r="37.5"/>
  <circle class="cls-3" cx="367" cy="902" r="12"/>
  <circle class="cls-3" cx="2270.5" cy="312.5" r="11.5"/>
  <circle class="cls-3" cx="2332" cy="1331" r="8"/>
  <circle class="cls-3" cx="630" cy="1421" r="8"/>
  <circle class="cls-10" cx="746.5" cy="1216.5" r="16.5"/>
  <circle class="cls-10" cx="1159" cy="452" r="11"/>
  <circle class="cls-10" cx="1338" cy="90" r="9"/>
  <circle class="cls-10" cx="962.5" cy="109.5" r="12.5"/>
  <circle class="cls-10" cx="869" cy="324" r="11"/>
  <circle class="cls-10" cx="228" cy="170" r="8"/>
  <circle class="cls-10" cx="2565.5" cy="302.5" r="10.5"/>
  <circle class="cls-10" cx="2804" cy="373" r="11"/>
  <circle class="cls-10" cx="2687" cy="215" r="8"/>
  <circle class="cls-10" cx="892.5" cy="1663.5" r="21.5"/>
  <circle class="cls-10" cx="449" cy="1667" r="7"/>
  <circle class="cls-10" cx="230" cy="1196" r="19"/>
  <circle class="cls-10" cx="446" cy="1046" r="10"/>
  <circle class="cls-10" cx="244" cy="947" r="8"/>
  <circle class="cls-3" cx="715.5" cy="668.5" r="12.5"/>
  <circle class="cls-3" cx="1482" cy="280" r="4"/>
  <circle class="cls-3" cx="1421.5" cy="310.5" r="2.5"/>
  <circle class="cls-3" cx="1406.5" cy="429.5" r="3.5"/>
  <circle class="cls-3" cx="2076" cy="148" r="3"/>
  <circle class="cls-3" cx="1973.5" cy="131.5" r="3.5"/>
  <circle class="cls-3" cx="2032" cy="277" r="5"/>
  <circle class="cls-3" cx="2420" cy="175" r="6"/>
  <circle class="cls-3" cx="2384.5" cy="689.5" r="8.5"/>
  <circle class="cls-3" cx="2349.5" cy="608.5" r="2.5"/>
  <circle class="cls-3" cx="2365.5" cy="845.5" r="4.5"/>
  <circle class="cls-3" cx="2519.5" cy="1048.5" r="3.5"/>
  <circle class="cls-3" cx="2514" cy="1158" r="7"/>
  <circle class="cls-2" cx="2626" cy="593" r="4"/>
  <circle class="cls-2" cx="2553" cy="652" r="12"/>
  <circle class="cls-2" cx="2571.5" cy="720.5" r="6.5"/>
  <circle class="cls-2" cx="2376" cy="1189" r="6"/>
  <circle class="cls-2" cx="2153" cy="1734" r="16"/>
  <circle class="cls-2" cx="2001" cy="1649" r="6"/>
  <circle class="cls-2" cx="2201" cy="1510" r="18"/>
  <rect class="cls-7" width="2880" height="1800"/>
</svg>