<?xml version="1.0" encoding="UTF-8"?>
<svg id="Calque_1" xmlns="http://www.w3.org/2000/svg" xmlns:xlink="http://www.w3.org/1999/xlink" viewBox="0 0 363.12 359.71">
  <defs>
    <style>
      .cls-1 {
        clip-path: url(#clippath-4);
      }

      .cls-2 {
        fill: #ff5587;
      }

      .cls-2, .cls-3, .cls-4, .cls-5, .cls-6, .cls-7, .cls-8, .cls-9, .cls-10, .cls-11 {
        fill-rule: evenodd;
      }

      .cls-3 {
        fill: #ff6b96;
      }

      .cls-4 {
        fill: #f6be24;
      }

      .cls-5 {
        fill: #fff0f5;
      }

      .cls-6 {
        fill: #ffb7cc;
      }

      .cls-7 {
        fill: #ff719b;
      }

      .cls-8 {
        fill: #ffe586;
      }

      .cls-12 {
        clip-path: url(#clippath-3);
      }

      .cls-13, .cls-14 {
        clip-rule: evenodd;
        fill: none;
      }

      .cls-10 {
        fill: #ffcedd;
      }

      .cls-15 {
        clip-path: url(#clippath-2);
      }

      .cls-14 {
        clip-path: url(#clippath-1);
      }

      .cls-16 {
        clip-path: url(#clippath);
      }

      .cls-11 {
        fill: #ff9dba;
      }
    </style>
    <clipPath id="clippath">
      <path class="cls-13" d="M324.32,146.6c-.26-4.18,19.44-50.98-10.22-76.42-29.66-25.44-84.1-28.45-117.47,8.85-33.36,37.3-14.92,100.25-93.66,160.89,0,0-24.69,28.18-44.09,36.58-19.4,8.4-29.46,11.59-39.68,12.45-9.81.83-27.8,13.03-14.48,28.38,2.68,2.18,8.61,7.37,18.06,6.26-.74,1.67-.19,27.06,15.2,30.03,15.38,2.97,19.09-7.97,20.94-11.49,1.85-3.52,22.51-38.31,34.18-42.95,1.01.61,59,9.25,84.48,6.76,22.71-2.22,89.28-8.05,121.89-69.44,7.83-14.74,26.23-66.94,24.83-89.89h0Z"/>
    </clipPath>
    <clipPath id="clippath-1">
      <path class="cls-13" d="M295.41,248.94s27.21-49.73,30.36-99.7c0,0-6.37-16.91-7.8-23.52-2.7-12.53-9.21-30.54-20.15-39.09-7.07-5.52-34.47-14.55-53.16,6.35-18.68,20.91-10.72,42.86-10.03,45.51,2.45,9.31,21.02,27.68,20.01,44.55-1.2,19.99-2.67,31.84-2.67,31.84,0,0,14.35,50.04,43.43,34.06h0Z"/>
    </clipPath>
    <clipPath id="clippath-2">
      <path class="cls-14" d="M324.32,146.6c-.26-4.18,19.44-50.98-10.22-76.42-29.66-25.44-84.1-28.45-117.47,8.85-33.36,37.3-14.92,100.25-93.66,160.89,0,0-24.69,28.18-44.09,36.58-19.4,8.4-29.46,11.59-39.68,12.45-9.81.83-27.8,13.03-14.48,28.38,2.68,2.18,8.61,7.37,18.06,6.26-.74,1.67-.19,27.06,15.2,30.03,15.38,2.97,19.09-7.97,20.94-11.49,1.85-3.52,22.51-38.31,34.18-42.95,1.01.61,59,9.25,84.48,6.76,22.71-2.22,89.28-8.05,121.89-69.44,7.83-14.74,26.23-66.94,24.83-89.89h0Z"/>
    </clipPath>
    <clipPath id="clippath-3">
      <path class="cls-13" d="M324.32,146.6c-.26-4.18,19.44-50.98-10.22-76.42-29.66-25.44-84.1-28.45-117.47,8.85-33.36,37.3-14.92,100.25-93.66,160.89,0,0-24.69,28.18-44.09,36.58-19.4,8.4-29.46,11.59-39.68,12.45-9.81.83-27.8,13.03-14.48,28.38,2.68,2.18,8.61,7.37,18.06,6.26-.74,1.67-.19,27.06,15.2,30.03,15.38,2.97,19.09-7.97,20.94-11.49,1.85-3.52,22.51-38.31,34.18-42.95,1.01.61,59,9.25,84.48,6.76,22.71-2.22,89.28-8.05,121.89-69.44,7.83-14.74,26.23-66.94,24.83-89.89h0Z"/>
    </clipPath>
    <clipPath id="clippath-4">
      <path class="cls-13" d="M313.49,115.21c.31-4.41,4.9-24.5,20.84-21.72,15.94,2.78,30.16,10.42,27.38,12.83-2.78,2.41-28.05,21.59-34.56,23.41-2.81.79-14.99,4.33-13.66-14.52h0Z"/>
    </clipPath>
  </defs>
  <path class="cls-11" d="M324.32,146.6c-.26-4.18,19.44-50.98-10.22-76.42-29.66-25.44-84.1-28.45-117.47,8.85-33.36,37.3-14.92,100.25-93.66,160.89,0,0-24.69,28.18-44.09,36.58-19.4,8.4-29.46,11.59-39.68,12.45-9.81.83-27.8,13.03-14.48,28.38,2.68,2.18,8.61,7.37,18.06,6.26-.74,1.67-.19,27.06,15.2,30.03,15.38,2.97,19.09-7.97,20.94-11.49,1.85-3.52,22.51-38.31,34.18-42.95,1.01.61,59,9.25,84.48,6.76,22.71-2.22,89.28-8.05,121.89-69.44,7.83-14.74,26.23-66.94,24.83-89.89h0Z"/>
  <g class="cls-16">
    <path class="cls-2" d="M101.35,234.05s54.45,1.54,75.3-19.5c20.85-21.04,28.19-31.47,30.31-49.43,0,0,3.36,7.33,1.26,16.97-2.1,9.64-10.26,37.07-28.79,53.5-18.53,16.43-26.55,18.1-58.41,25.05-31.86,6.95-50.78,17.38-58.89,18.15-8.11.77-27.22,12.16-26.64,4.63.58-7.53,62.22-48.75,65.86-49.38h0Z"/>
    <path class="cls-7" d="M22.8,323.59c1.6-1.16,24.93-10.19,36.8-19.21,11.86-9.02,9.78-7.63,9.78-7.63,0,0-43.74-8.9-46.96-10.13,0,0,9.51-2.35,14.46-3.09,4.07-.61,23.11-6.91,25.59-8.14,2.47-1.24,46.17-12.73,62.04-17.28,18.84-5.41,32.52-12.15,43.95-19.41,11.43-7.26,30.09-27.48,34.92-44.62,4.83-17.14,4.85-25.05,4.11-28.39,0,0,6.98,22.27-4.88,47.1-11.86,24.84-28.98,51.77-64.5,63.35-35.53,11.58-43.63,16.02-45.18,22.59-1.54,6.56-22.4,49.43-30.51,55.8-8.11,6.37-35.33,7.14-37.65.77-2.32-6.37-10.69-25.39-1.96-31.71h0Z"/>
    <path class="cls-6" d="M54.05,288.58s94.15-3.72,118.6-10.67c20.16-5.73,68.7-22.1,79.36-63.11,0,0,17.06,46.38,44.63,33.4,0,0-38.47,53.43-106.06,60.61-64.48,6.85-121.98-18.85-136.52-20.24h0Z"/>
    <path class="cls-10" d="M295.41,248.94s27.21-49.73,30.36-99.7c0,0-6.37-16.91-7.8-23.52-2.7-12.53-9.21-30.54-20.15-39.09-7.07-5.52-34.47-14.55-53.16,6.35-18.68,20.91-10.72,42.86-10.03,45.51,2.45,9.31,21.02,27.68,20.01,44.55-1.2,19.99-2.67,31.84-2.67,31.84,0,0,14.35,50.04,43.43,34.06h0Z"/>
  </g>
  <g class="cls-15">
    <path class="cls-5" d="M271.64,67.57c26.81,0,47.58,21.04,48.57,46.91,1.21,31.44-20.8,51.25-47.6,51.25s-49.53-25.36-49.53-51.25,21.76-46.91,48.57-46.91h0Z"/>
  </g>
  <g class="cls-12">
    <path class="cls-9" d="M275.84,100.37c9.16,0,16.59,7.43,16.59,16.59s-7.43,16.59-16.59,16.59-16.59-7.43-16.59-16.59,7.43-16.59,16.59-16.59h0Z"/>
  </g>
  <path class="cls-3" d="M194.21,136.44s-18.53,43.37-68.21,50.6c-3.17.24-37.9,6.29-58.96-2.02-3.71.89-20.76,10.68-12.6,25.65,8.16,14.98,37.95,24.69,57.53,24.47,19.57-.22,55.14-6.6,73.55-26.99,18.11-20.05,23.28-38.29,21.35-45.97-1.62-6.46-6.79-20.06-12.66-25.75h0Z"/>
  <path class="cls-7" d="M175.04,123.8s-17.92-19.89-28.17-37.44c-10.26-17.55-23.58-44.47-25.98-50.85-3.14-8.36-12.51-13.44-18.53-3.09-6.02,10.35-9.11,28.58-9.11,34.14.93,1.69,55.31,51.19,81.8,57.23h0Z"/>
  <path class="cls-11" d="M194.41,136.66c-.56-1.23-25.72-17.59-30.18-18.63-3.49-.81-39.84,20.44-73.39,12.47-33.55-7.97-63.95-25.02-72.84-16.13-8.9,8.9-2.12,37.24,12.97,50.23,15.94,13.72,48.51,31.71,77.24,28.74,31.95-3.3,65.33-17.24,86.2-56.69h0Z"/>
  <path class="cls-6" d="M164.23,118.03s-65.07-39.52-90.79-71.95C47.72,13.64,39.61-7.91,25.48,2.75c-14.13,10.66-11.47,52.13-10.88,55.84.59,3.71,4.94,38.01,35.51,58.92,1.38.94,30.78,15.12,50.95,16.7,20.17,1.58,53.02-10.29,63.17-16.18h0Z"/>
  <path class="cls-8" d="M313.49,115.21c.31-4.41,4.9-24.5,20.84-21.72,15.94,2.78,30.16,10.42,27.38,12.83-2.78,2.41-28.05,21.59-34.56,23.41-2.81.79-14.99,4.33-13.66-14.52h0Z"/>
  <g class="cls-1">
    <path class="cls-4" d="M312.67,121.15c.43-1.19,6.48-11.38,24.62-13.36,18.14-1.97,23.61-2.51,25.74-1.75,2.13.76-30.98,22.85-33.71,24.45-2.73,1.59-9.79,3.34-12.53,1.21-2.73-2.13-5.36-7.14-4.12-10.56h0Z"/>
  </g>
</svg>