<?xml version="1.0" encoding="UTF-8"?>
<svg id="Layer_1" xmlns="http://www.w3.org/2000/svg" xmlns:xlink="http://www.w3.org/1999/xlink" viewBox="0 0 4846.58 2847.39">
  <defs>
    <style>
      .cls-1 {
        fill: #0a6168;
      }

      .cls-2 {
        fill: #e37704;
      }

      .cls-3 {
        fill: #010a24;
      }

      .cls-4 {
        fill: #fdf753;
      }

      .cls-5 {
        fill: url(#linear-gradient-2);
      }

      .cls-6 {
        fill: #0d242c;
      }

      .cls-7 {
        fill: #438164;
      }

      .cls-8 {
        fill: #5c5964;
      }

      .cls-9 {
        fill: #7cabbe;
      }

      .cls-10 {
        fill: #0ba7b7;
      }

      .cls-11 {
        fill: #f1c30c;
      }

      .cls-12 {
        fill: #71486c;
      }

      .cls-13 {
        fill: #7a7b7d;
      }

      .cls-14 {
        fill: #be2c01;
      }

      .cls-15 {
        fill: #042d5d;
      }

      .cls-16 {
        fill: #fbca79;
      }

      .cls-17 {
        fill: #3c3d47;
      }

      .cls-18 {
        fill: #7cd8e9;
      }

      .cls-19 {
        fill: #c18d03;
      }

      .cls-20 {
        fill: #fefefe;
      }

      .cls-21 {
        fill: #e46303;
      }

      .cls-22 {
        fill: #fcd90d;
      }

      .cls-23 {
        fill: url(#linear-gradient);
      }

      .cls-24 {
        fill: #030202;
      }
    </style>
    <linearGradient id="linear-gradient" x1="-61.39" y1="2450.09" x2="84.85" y2="2383.9" gradientTransform="translate(2379.5 9946.46) scale(3.9 -3.9)" gradientUnits="userSpaceOnUse">
      <stop offset="0" stop-color="#023c3f"/>
      <stop offset="1" stop-color="#15685b"/>
    </linearGradient>
    <linearGradient id="linear-gradient-2" x1="178.6" y1="1860.34" x2="-21.44" y2="2388.27" gradientTransform="translate(2379.5 9946.46) scale(3.9 -3.9)" gradientUnits="userSpaceOnUse">
      <stop offset="0" stop-color="#f59305"/>
      <stop offset="1" stop-color="#f8d20d"/>
    </linearGradient>
  </defs>
  <path class="cls-15" d="M110.19,1474.62c-21.32-.52-42.14-2.88-62.77-8.49-15.14-4.11-30.56-9.61-38.75-23.89-.44-6.78-.91-10.42,3.54-16.28,18.57-24.41,71.13-27.94,99.58-30.31-1.45,26.43-2.47,52.49-1.6,78.96Z"/>
  <path class="cls-2" d="M2963.45,540.39c32.57-.02,65.3-.72,97.84.42.76,20.65,1.72,41.29,2.87,61.92-43.62.1-87.89,1.74-131.44.1,9.91-2.44,21.02-2.13,31.21-2.67l-.48-59.77Z"/>
  <path class="cls-24" d="M2771.88,412.99l21.05.63c17,2.95,43.86,5.53,57.4,16.41,11.82,2.16,36.06,1.33,45.26,6.63l-.05,105.27c-15.86-1.46-32.02-.49-47.93-.1-.46-34.24.48-69.16-2.54-103.27l-2.33.06c-18.69-3.29-39.3-5.63-57.11-12.16-8.85-3.25-9.74-5.55-13.75-13.49Z"/>
  <path class="cls-21" d="M2666.6,598.67c4.18-13.62,8.29-30.12,17.72-41.17,6.42-7.52,14.68-13.2,24.29-15.69,24-6.22,54.24.31,78.92,1.1,20.04.46,40.07.1,60.08-1.08,15.91-.39,32.07-1.36,47.93.1,22.67,1.65,45.26-.28,67.91-1.55l.48,59.77c-10.19.53-21.3.23-31.21,2.67-47.73,2.45-96.46.8-144.34.96-35.8.12-73.56,2.58-109.15-.09-7.06-.53-8.03.32-12.62-5.04Z"/>
  <path class="cls-1" d="M4187.24,2311.7c65.79-5.97,225.4-65.54,291.12-94.79,38.36-17.08,75.2-37.62,114.61-52.3-2.61,16.44-89.13,82.64-106.3,95.13-72.16,52.37-147.63,87.52-229.69,121.08-22.24,9.09-46.67,21.06-70.24,25.45,5.23-27.89,2.69-66.14.51-94.57Z"/>
  <path class="cls-15" d="M2267.99,2755.98c49.92-104.92,95.31-212.25,146.12-316.65,30.73,15.93,59.15,21.69,92.81,27.9l-134.11,287.18c-15.5,9.67-78.49,8.93-97.29,4.04-2.56-.66-5.07-1.48-7.53-2.47Z"/>
  <path class="cls-19" d="M2028.56,1241.35c-.62-11.35-.9-22.7-.82-34.06,1.21-93.39,31.54-202.24,100.16-268.6,74.28-71.84,166.1-86.86,265.21-85.54-.55.35-1.08.71-1.64,1.05-23.8,14.57-53.2,19.4-77.74,33.76-103.02,60.28-162.14,161.73-190.89,274.74-6.56,26.71-12.05,53.63-16.49,80.76-22.06.11-57.05,4.86-77.8-2.12Z"/>
  <path class="cls-10" d="M2920.89,205.39c29.58,1.17,76.15,2.58,98.43,25.48,5.79,5.95,8.48,13.11,8.13,21.4-.61,14.67-7.17,28.47-9.3,42.89-4.2,13.92-5.68,30.86-13.14,43.12-4.62,2.37-7.8,3.01-12.85,3.64-16.72,10.06-23.05,18.72-27.77,38.08-.4,1.67-.78,3.35-1.14,5.03l-40.05.75c-25.3,6.83-116.02,1.65-148.32,1.56-4.16-24.67-9.39-43.44-21.44-65.46-3.3-8.57-6.66-17.12-10.06-25.65.89-16.71-9.79-36.72-11.5-53.93-.73-7.35.3-14.04,5.51-19.55,25.01-26.44,147.3-17.37,183.51-17.35Z"/>
  <path class="cls-18" d="M2920.89,205.39c29.58,1.17,76.15,2.58,98.43,25.48,5.79,5.95,8.48,13.11,8.13,21.4-.61,14.67-7.17,28.47-9.3,42.89-4.2,13.92-5.68,30.86-13.14,43.12-4.62,2.37-7.8,3.01-12.85,3.64-16.72,10.06-23.05,18.72-27.77,38.08-.4,1.67-.78,3.35-1.14,5.03l-40.05.75-1.9-1.42c-6.16-12.19-.23-152.2-.39-178.96Z"/>
  <path class="cls-21" d="M0,492.64l30.85.02c12.79,11.69,42.51,85.13,52.04,105.16,56.24,120.52,113.45,240.57,171.63,360.16,21.09,42.51,41.86,85.31,63.43,127.57,10.22,20.02,28.03,45.08,33.36,66.34-36.73,8.37-105.83,30.13-129.97,59.61l-8.99,5.09c-15.67-60.79-34.84-120.3-51.93-180.66C109.28,854.13,55.81,673.04,0,492.64Z"/>
  <path class="cls-15" d="M315.93,74.84c7.59-3.56,17.45-9.35,25.94-9.18,33.43.66,67.4,5.37,100.69,8.74l167.23,17.13c171.87,16.49,343.66,33.86,515.35,52.13,522.43,52.21,1044.39,108.71,1565.88,169.49,17.23-12.3,30.68-17.81,52.37-16.93,3.4,8.53,6.76,17.08,10.06,25.65l1.88,16.85c-11.16-7.69-23.27-14.2-37.38-10.94-14.35,3.31-24.83,12.55-35.14,22.47-2-1.42-3.58-2.68-6.03-3.25-14.11-3.29-31.16-3.27-45.69-4.71-29.75-2.91-59.45-6.25-89.11-10.04-149.27-17.26-298.67-33.38-448.19-48.36L762.79,141.39l-303.57-32.1c-43.46-4.56-97.6-5.06-138.69-15.52-4.88-6.88-4.12-10.63-4.6-18.92Z"/>
  <path class="cls-23" d="M2682.79,350.26c10.31-9.92,20.8-19.16,35.14-22.47,14.1-3.25,26.22,3.25,37.38,10.94,6.88,15.28,6.56,25.26,3.67,41.17,6.53,4.68,10.14,8.33,11.61,16.45.98,5.38,1.04,11.18,1.28,16.63,4.01,7.93,4.9,10.24,13.75,13.49,17.81,6.54,38.42,8.87,57.11,12.16-34.54-1.56-84.83,21.46-119.55,31.42-104.03,29.85-207.21,62.21-311.8,90.1-130.59,34.83-262.2,64.49-393.42,96.69l-2.53-1.99c.73-11.59,92.92-141.99,107.48-164.93,176.85-38.8,354.74-77.34,533.71-105.31,5.44.55,12.72,0,17.8-2.04,6.19-2.49,6.03-4.28,8.52-10.11-.44-7.38-.21-14.81-.17-22.21Z"/>
  <path class="cls-24" d="M2682.79,350.26c10.31-9.92,20.8-19.16,35.14-22.47,14.1-3.25,26.22,3.25,37.38,10.94,6.88,15.28,6.56,25.26,3.67,41.17-3.91,4.75-8.26,9.52-13.03,13.44-6.4,5.26-14.92,9.24-23.36,8.18-16.4-2.06-29.54-17.21-39.63-29.06-.44-7.38-.21-14.81-.17-22.21Z"/>
  <path class="cls-7" d="M207.8,127.06c35.3-19.31,70.85-37.03,108.13-52.22.47,8.29-.28,12.05,4.6,18.92,41.09,10.47,95.23,10.96,138.69,15.52l303.57,32.1,1330.99,142.51c149.52,14.97,298.92,31.09,448.19,48.36,29.65,3.79,59.35,7.13,89.11,10.04,14.52,1.44,31.57,1.42,45.69,4.71,2.45.57,4.03,1.83,6.03,3.25-.04,7.39-.27,14.83.17,22.21-2.49,5.83-2.33,7.62-8.52,10.11-5.08,2.04-12.36,2.59-17.8,2.04-35.74-7.35-73.31-9.69-109.62-13.63-71.93-7.73-143.92-14.97-215.95-21.72l-540.63-56.09L207.8,127.06Z"/>
  <path class="cls-2" d="M233.66,1683.44c82.22,52.94,167.46,66.97,263.02,46.22,19.45-4.22,42.08-9.31,60.19-17.57l20.28-6.6-21.8,45.62-81.41,182.27c-13.66,30.32-25.94,63.8-43.25,92.09-5.75,9.39-14.22,21.26-24.83,25.12-36.51,13.28-207.53-5.19-263.83,2.04-4.52-3.48-10.04-7.66-12.42-13.05-2.64-5.97-1.26-12.2.17-18.33,9.36-40.14,24.43-80.54,36.85-119.95,23.15-72.37,45.49-144.99,67.03-217.86Z"/>
  <path class="cls-14" d="M233.66,1683.44c82.22,52.94,167.46,66.97,263.02,46.22,19.45-4.22,42.08-9.31,60.19-17.57l20.28-6.6-21.8,45.62c-54.8,18.74-109.8,32.91-167.39,39.8-35.45,35.08-68.31,72.65-103.16,108.32-47.83,48.93-102.31,98.29-142.77,153.41-4.52-3.48-10.04-7.66-12.42-13.05-2.64-5.97-1.26-12.2.17-18.33,9.36-40.14,24.43-80.54,36.85-119.95,23.15-72.37,45.49-144.99,67.03-217.86Z"/>
  <path class="cls-7" d="M3942.32,116.45c155.47-28.11,310.01-61.06,465.55-88.58,56.7-10.03,132.72-28.46,189.38-27.86,70.83.75,160.78,21.18,219.08,61.93,9.09,6.36,28.06,19.28,30.24,30.56l-734.43,124.65c-45.89,7.85-91.67,16.37-137.33,25.55-32.23,6.22-68.95,15.46-101.77,15.07,14.32-12.12,67.78-113.77,73.95-135.56l-4.68-5.75Z"/>
  <path class="cls-7" d="M974.85,755.39c52.06-10.92,103.4-26.05,155.28-37.99,144.29-32.27,288.33-65.62,432.12-100.05,186.14-44.82,372.53-91.75,560.68-127.42-14.56,22.94-106.75,153.34-107.48,164.93l2.53,1.99c-281.75,61.38-562.07,129.71-843.49,192.66-66.33-31.84-132.87-63.22-199.64-94.12Z"/>
  <path class="cls-7" d="M3704.31,476.44c59.86,8.64,119.02,24.25,178.5,35.34l558.47,107.74c100.72,19.15,201.75,36.21,302.36,56.16,25.72,5.1,61.42,7.32,84.92,17.61-17.25,15.43-173.93,83.89-200.7,91.15-335.72-62.45-672.54-118.02-1007.83-183.24,28.35-24.64,65.64-90.41,84.3-124.76Z"/>
  <path class="cls-2" d="M30.85,492.66l209.3,1.02c25.88,35.8,44.62,79.72,64.93,119.08l106.32,204.89,144.83,278.74c22.2,43.03,48.44,86.11,66.93,130.81-12.5-5.16-27.82-20.7-39.13-29.03-67.06-49.42-152.4-58.47-232.73-46.29-5.33-21.25-23.15-46.32-33.36-66.34-21.56-42.26-42.34-85.06-63.43-127.57-58.17-119.59-115.38-239.65-171.63-360.16-9.53-20.02-39.25-93.47-52.04-105.16Z"/>
  <path class="cls-1" d="M3018.15,295.16c79.95-13.02,158.71-31,238.2-46.33l377.38-72.03c102.68-21.04,205.54-41.15,308.59-60.35l4.68,5.75c-6.17,21.79-59.63,123.44-73.95,135.56-25.76,10.81-64.19,12.11-92.1,16.56l-186.45,30.17-496.01,80.77c31.1,6.52,63.44,8.42,95.05,11.66,44.33,4.29,88.55,9.56,132.65,15.81,126.73,18.03,251.91,43.11,378.12,63.71-18.65,34.35-55.94,100.12-84.3,124.76-67.21-11.37-134.58-27.84-201.04-43.08-67.08-15.39-134.58-29.99-201.07-47.73-68.76-18.34-137.23-38.04-205.8-57.13-22.6-6.29-52.14-19.92-75.14-20.05-13.58,1.65-27.7,4.17-41.38,3.45-9.19-5.31-33.44-4.48-45.26-6.63-13.54-10.88-40.4-13.46-57.4-16.41l-21.05-.63c-.25-5.46-.31-11.25-1.28-16.63-1.47-8.12-5.08-11.77-11.61-16.45,2.88-15.91,3.2-25.9-3.67-41.17l-1.88-16.85c12.04,22.03,17.28,40.79,21.44,65.46,32.3.09,123.02,5.26,148.32-1.56l40.05-.75c.36-1.68.74-3.36,1.14-5.03,4.72-19.37,11.05-28.02,27.77-38.08,5.05-.62,8.24-1.26,12.85-3.64,7.46-12.25,8.94-29.19,13.14-43.12Z"/>
  <path class="cls-6" d="M2792.93,413.62c47.73.03,118.59,4.29,163.88.13-1.34,8.07-.6,11.69-6.74,17.34l-13.1,2.12c-13.58,1.65-27.7,4.17-41.38,3.45-9.19-5.31-33.44-4.48-45.26-6.63-13.54-10.88-40.4-13.46-57.4-16.41Z"/>
  <path class="cls-24" d="M2992.16,341.91c14.34-.01,27.5-.46,38.5,10.46.77.76,1.5,1.55,2.19,2.38.69.84,1.33,1.7,1.92,2.61.59.9,1.14,1.83,1.64,2.79.49.96.94,1.94,1.33,2.95.39,1.01.73,2.03,1.01,3.08.28,1.04.51,2.1.67,3.16s.28,2.14.34,3.22c.05,1.08.05,2.16,0,3.24-.61,11.86-6.72,22.67-15.97,29.96-7.8,6.14-17.65,8.85-27.48,7.24-8.61-1.42-14.49-5.85-21.03-11.26-4.35-5.23-8.09-11.15-12-16.71.36-1.68.74-3.36,1.14-5.03,4.72-19.37,11.05-28.02,27.77-38.08Z"/>
  <path class="cls-12" d="M3901.46,2752c.58.19,1.17.39,1.76.56,16.35,4.77,37.54,2.64,54.52,2.54,67.28-.4,131.32-2.29,191.69-36.8,38.79-22.17,83.71-65.72,100.45-107.74,6.48-16.24,8.82-34.7,20.64-48.24,12.33-14.11,31.45-19.31,49.52-14.81,1.85.47,3.67,1.03,5.46,1.69,1.79.66,3.55,1.41,5.27,2.26,1.72.84,3.38,1.77,5,2.79,1.61,1.02,3.16,2.12,4.64,3.3,1.51,1.18,2.95,2.44,4.33,3.77,1.35,1.33,2.64,2.73,3.86,4.2,1.22,1.47,2.37,2.99,3.43,4.58,1.07,1.59,2.04,3.23,2.93,4.92,8.04,15.54,6.75,32.91,1.21,48.99-26.22,76.33-100.49,148.33-172.84,182.68-38.05,18.06-85.38,36.44-127.65,39.11-47.77,3.02-97.01.44-144.9.24l-263.61-.3-1223.38.09c-65.44-.09-422.04,6.22-454.82-5.95-11.87-4.41-22.59-15.72-27.11-27.45-3.94-10.22-2.57-21.19,2.12-30.93,5.1-10.6,14.26-19.37,25.44-23.32,23.44-8.27,259.03-5.97,298.57-2.2,2.46.99,4.97,1.81,7.53,2.47,18.8,4.89,81.79,5.63,97.29-4.04,39.72,1.76,80.03-.27,119.81-.46l229.05-.29,858.04.37c23.58-.01,230.32,3.6,238.32-1.93,14.67,6.82,61.19,7.57,77.27,3.49,2.65-.68,4.33-1.72,6.17-3.59Z"/>
  <path class="cls-11" d="M2666.6,598.67c4.6,5.36,5.56,4.51,12.62,5.04,35.6,2.67,73.35.21,109.15.09,47.87-.17,96.61,1.48,144.34-.96,43.55,1.64,87.82,0,131.44-.1,21.23,1.49,42.52,3.2,63.8,3.46,26.96.32,56.74-3,83.03,2.79,87.72,15.8,152.36,50.43,203.89,124.8,16.28,23.48,31.25,48.32,43.2,74.29,9.55,20.78,17.29,43.72,29.47,63.06,14.15,9.82,27.08,21.97,38.35,35-86.95-6.1-548.42-1.6-592.35-29.39-6.8-.69-12.92-.44-19.72.18-62.35,9.84-379.94-3.97-429.28-24.02,10.02-1.86,21.12-4.64,30.05-9.74,13.8-7.87,24.03-23.11,30.21-37.42,21.07-48.81,27-131.58,43.24-187.86l-.3-2.03c.66-1.78,1.65-4.77,2.73-6.27,9.08-12.61,54.28,2.82,70.65-3.73,4.27-1.71,3.77-3.22,5.48-7.19Z"/>
  <path class="cls-22" d="M3129.97,643.13c52.65-2.93,114.62,4.67,158.31,37-.63-.11-1.26-.2-1.88-.32-27.73-5.4-55.19-29.24-83.92-26.83l-4.3,3.58c3.01,3.53,5.37,4.41,9.48,6.2,19.36,8.43,52.44,33.78,60.78,52.89,1.38,3.17,2.24,6.56,2.99,9.93-40.59-51.38-79.18-67.11-141.45-82.45Z"/>
  <path class="cls-4" d="M2666.6,598.67c4.6,5.36,5.56,4.51,12.62,5.04,35.6,2.67,73.35.21,109.15.09,47.87-.17,96.61,1.48,144.34-.96,43.55,1.64,87.82,0,131.44-.1,21.23,1.49,42.52,3.2,63.8,3.46,26.96.32,56.74-3,83.03,2.79-21.24,7.05-43.82,2.05-65.8,3.67-138.38,10.19-279.69,6.83-418.52,6.52-45.04-.1-94.59-8.53-138.93-3.31.66-1.78,1.65-4.77,2.73-6.27,9.08-12.61,54.28,2.82,70.65-3.73,4.27-1.71,3.77-3.22,5.48-7.19Z"/>
  <path class="cls-19" d="M2588.04,617.9c.68.76,1.39,1.5,2.05,2.28,12.06,14.14,23.7,61.42,32.7,81.61,58.16,130.38,161.32,154.92,291.03,175.14-62.35,9.84-379.94-3.97-429.28-24.02,10.02-1.86,21.12-4.64,30.05-9.74,13.8-7.87,24.03-23.11,30.21-37.42,21.07-48.81,27-131.58,43.24-187.86Z"/>
  <path class="cls-4" d="M3271.42,725.57c-.75-3.37-1.61-6.76-2.99-9.93-8.34-19.11-41.42-44.46-60.78-52.89-4.11-1.79-6.47-2.67-9.48-6.2l4.3-3.58c28.73-2.42,56.19,21.43,83.92,26.83.62.12,1.25.22,1.88.32,82.98,36.49,113.97,103.42,144.99,183.05l3.22,8.31c16.61,2.1,34.33.25,51.06-.35,14.15,9.82,27.08,21.97,38.35,35-86.95-6.1-548.42-1.6-592.35-29.39,80.27.07,160.54-.53,240.81-1.81,52.42-.97,108.39-5.74,160.46-.77-19.83-49.47-35.6-103-63.39-148.6Z"/>
  <path class="cls-22" d="M351.31,1151.88c80.32-12.18,165.66-3.13,232.73,46.29,11.3,8.33,26.62,23.86,39.13,29.03,4.02,7.32,7.09,14.44,14.22,19.2,62.9,71.93,79.81,158.78,76.35,251.16-2.35,24.62-8.34,48.16-15.65,71.74-19.63,35.89-42.63,85.03-78.34,107.7-13.11,10.56-27.12,21.57-42.59,28.48l-20.28,6.6c-18.11,8.26-40.75,13.35-60.19,17.57-95.57,20.76-180.81,6.73-263.02-46.22-67-48.6-109.82-128.68-123.47-208.82-.88-26.47.15-52.53,1.6-78.96,7.17-48.89,27.28-91.88,56.52-131.3,11.77-14.32,37.91-31.6,44.05-47.78l8.99-5.09c24.14-29.47,93.24-51.24,129.97-59.61Z"/>
  <path class="cls-8" d="M282.84,1380.59c22.96-28.31,50.1-49.7,87.53-53.35,34.29-3.35,70.5,7.37,96.76,29.81,26.53,22.68,45.37,58.52,48.02,93.42,2.47,32.42-7.22,67.81-28.89,92.46-19.8,22.51-50.19,36.45-79.78,39.65-10.77-.5-20.66-1.95-31.2-4.14l1.54-3.4c.67-13.63-19.17-39.25-26.46-51-27.93-45.03-41.21-96.51-68.04-141.33l.52-2.13Z"/>
  <path class="cls-11" d="M221.35,1211.49c10.49,39.02,38.93,139.73,61.49,169.1l-.52,2.13c26.83,44.82,40.11,96.3,68.04,141.33,7.29,11.75,27.13,37.37,26.46,51l-1.54,3.4c10.54,2.19,20.43,3.64,31.2,4.14,3.08,12.95,31.32,28.77,42.5,35.63,53.77,32.99,107.72,52.33,170.77,58.79-13.11,10.56-27.12,21.57-42.59,28.48l-20.28,6.6c-22.54-4.33-45.67-4.28-68.38-7.71-49.3-7.43-101.02-29.78-142.6-57.21-130.56-86.13-149.01-242.81-177.6-382.8,11.77-14.32,37.91-31.6,44.05-47.78l8.99-5.09Z"/>
  <path class="cls-17" d="M282.32,1382.72c26.83,44.82,40.11,96.3,68.04,141.33,7.29,11.75,27.13,37.37,26.46,51l-1.54,3.4c-9.48-3-19.17-5.96-28.1-10.37-34.79-17.16-62.14-50.68-74.12-87.37-11.5-35.24-7.5-65.56,9.27-97.99Z"/>
  <path class="cls-19" d="M168.3,1264.36c28.59,139.99,47.04,296.67,177.6,382.8,41.58,27.43,93.3,49.77,142.6,57.21,22.7,3.42,45.84,3.38,68.38,7.71-18.11,8.26-40.75,13.35-60.19,17.57-95.57,20.76-180.81,6.73-263.02-46.22-67-48.6-109.82-128.68-123.47-208.82-.88-26.47.15-52.53,1.6-78.96,7.17-48.89,27.28-91.88,56.52-131.3Z"/>
  <path class="cls-3" d="M3655.02,2440.32c35.76-.11,73.3-3.33,108.77.02,10.19,13.49,40.39,76.09,38.4,91.69l.86,5.74c-25.83,8.41-68.6-.52-96.15-1.76-16.52-32.32-33.81-64.22-51.87-95.69Z"/>
  <path class="cls-15" d="M3802.19,2532.03c2.77,2.23,4.88,3.85,6.83,6.89,10.97,17.2,90.73,192.66,92.6,207.24.47,3.65.43,2.53-.16,5.85-1.83,1.87-3.51,2.91-6.17,3.59-16.08,4.09-62.59,3.33-77.27-3.49,1.72-8.66-96.9-188.98-111.14-216.09,27.55,1.24,70.32,10.17,96.15,1.76l-.86-5.74Z"/>
  <path class="cls-5" d="M2393.11,853.15c30.47-1.19,61.06,1.5,91.43-.24,49.34,20.04,366.93,33.86,429.28,24.02,6.8-.62,12.92-.86,19.72-.18,43.93,27.79,505.4,23.29,592.35,29.39,32.21,35.46,105.41,122.48,141.78,144.63,98.81,29.21,199.02,64.5,291.55,110.02,287.45,141.39,551.13,382.47,704.34,664.48,5.7,10.49,21.58,35.99,20.1,47.34,28.1,12,49.01,27.65,60.84,56.78,6.63,16.28,5.54,34.08.62,50.67l-4.21,4.51c3.71,11.77-2.93,25.06-8.31,35.5-4.21,8.23-7.22,13.88-15.02,19.18-1.09,10.78-12.53,21.61-20.57,28.31-11.82,9.8-30.36,23.37-44.18,29.65-1.25,8.57-4.57,11.91-11.28,17.36l-2.5,3.91c-3.94,11.39-31.77,39.7-42.77,44.74-1.09.5-2.22.93-3.32,1.4-39.41,14.68-76.25,35.22-114.61,52.3-65.72,29.25-225.32,88.82-291.12,94.79,2.19,28.43,4.72,66.68-.51,94.57-4.37,3.47-6.6,4.28-12.14,4.87-106.96,56.29-289.79,23.72-410.8,29.2-35.47-3.35-73.01-.13-108.77-.02-22.19-3.47-49.65-.1-72.27.07-49.98.32-99.95.37-149.93.16l-590.21-.72c-104.39-.27-214.48,8.22-317.83-7.65-6.2,11.49-12.92,22.96-17.86,35.05-33.66-6.22-62.08-11.98-92.81-27.9l12.12-27.38c-9.36-10.34-55.13-19.5-71.05-25.97-135.39-55.05-251.75-144.93-322.23-274.55-26.87-41.28-48.01-87.58-70.3-131.5-22.81-44.94-46.89-89.32-67.87-135.16-24.23-16.37-403.34-96.08-458.11-108.36l-738.58-167.12c7.31-23.57,13.3-47.12,15.65-71.74,3.46-92.38-13.45-179.23-76.35-251.16,194.35-3.12,388.92-1.78,583.29-2.83,269.29-2.47,538.59-3.21,807.88-2.22,20.75,6.97,55.73,2.22,77.8,2.12,4.44-27.14,9.93-54.06,16.49-80.76,28.76-113.01,87.87-214.46,190.89-274.74,24.53-14.35,53.93-19.18,77.74-33.76.55-.34,1.09-.7,1.64-1.05Z"/>
  <path class="cls-1" d="M2350.78,1548.31c13,17.14,21,39.64,30.76,58.86,31.58,62.13,63.53,134.96,108.81,188.66-46.1-2.33-92.97-.89-139.16-.92-.03-82.01-3.61-164.68-.42-246.6Z"/>
  <path class="cls-10" d="M2350.78,1548.31c48.64,1.63,97.34.53,145.99-.07-.93,51.06-1.39,102.12-1.39,153.18.06,29.02,3.62,62.43-1.12,90.94-1.19,1.14-2.48,2.68-3.91,3.47-45.28-53.7-77.24-126.53-108.81-188.66-9.76-19.21-17.77-41.71-30.76-58.86Z"/>
  <path class="cls-14" d="M2194.29,1083.1c50.71.84,101.43,1.08,152.15.71l-.28,157.26c-50.89-.53-101.78-.68-152.68-.45l.81-157.52Z"/>
  <path class="cls-16" d="M4717.57,2039.25c-8.55-4.53-197.97,2.3-227.98,2.26-222.44.61-444.77-3.74-667-13.04-75.47-2.83-154.07,1.56-229.06-6.45-.1,0-.19-.07-.28-.11l5.34,2.84,2.83-5.65c50.16-4.09,101.21-2.49,151.51-3.12l273.44-3.87c94.26-1.37,188.49-3.43,282.69-6.18,144.08-5.38,287.88-14.5,431.84-21.36,3.71,11.77-2.93,25.06-8.31,35.5-4.21,8.23-7.22,13.88-15.02,19.18Z"/>
  <path class="cls-2" d="M713.73,1497.56c66.38,8.31,133.93,26.09,199.49,39.87,157.11,33.04,313.35,70.17,470.23,104.37,256.99,54.83,513.31,112.63,768.95,173.41l199.1,45.63c31.88,7.25,64.85,12.84,96.26,21.79l-.29,2.31c-1.86,22.28,96.37,193.61,110.36,229.38l-389.05.28c-44.34,2.45-91.84,3.57-135.85-3.16-26.87-41.28-48.01-87.58-70.3-131.5-22.81-44.94-46.89-89.32-67.87-135.16-24.23-16.37-403.34-96.08-458.11-108.36l-738.58-167.12c7.31-23.57,13.3-47.12,15.65-71.74Z"/>
  <path class="cls-14" d="M1894.77,1844.78c19.39,3.33,36.27,13.6,51.14,26.16,43.47,36.74,192.14,235.67,222.88,243.66-44.34,2.45-91.84,3.57-135.85-3.16-26.87-41.28-48.01-87.58-70.3-131.5-22.81-44.94-46.89-89.32-67.87-135.16Z"/>
  <path class="cls-1" d="M2447.78,1882.62c178.47,38.81,357.95,72.27,538.41,100.39,180.47,28.12,361.61,50.85,543.43,68.18,217.07,19,436.04,25.93,653.83,32.4,124.49,3.7,248.7,9.95,373.26,10.7,13.58.08,88.78-2.71,96.12,2.91-1.25,8.57-4.57,11.91-11.28,17.36l-2.5,3.91c-3.94,11.39-31.77,39.7-42.77,44.74-1.09.5-2.22.93-3.32,1.4-39.41,14.68-76.25,35.22-114.61,52.3-65.72,29.25-225.32,88.82-291.12,94.79,2.19,28.43,4.72,66.68-.51,94.57-4.37,3.47-6.6,4.28-12.14,4.87-106.96,56.29-289.79,23.72-410.8,29.2-35.47-3.35-73.01-.13-108.77-.02-22.19-3.47-49.65-.1-72.27.07-49.98.32-99.95.37-149.93.16l-590.21-.72c-104.39-.27-214.48,8.22-317.83-7.65-6.2,11.49-12.92,22.96-17.86,35.05-33.66-6.22-62.08-11.98-92.81-27.9l12.12-27.38c-9.36-10.34-55.13-19.5-71.05-25.97-135.39-55.05-251.75-144.93-322.23-274.55,44,6.73,91.51,5.61,135.85,3.16l389.05-.28c-13.99-35.78-112.22-207.1-110.36-229.38l.29-2.31Z"/>
  <path class="cls-3" d="M2426.23,2411.95c2-.7,3.88-2,5.99-2.09,6.71-.28,83.87,18.65,92.55,22.32-6.2,11.49-12.92,22.96-17.86,35.05-33.66-6.22-62.08-11.98-92.81-27.9l12.12-27.38Z"/>
  <path class="cls-10" d="M2166.12,2121.89c132.35.8,264.71.78,397.06-.07,29.13,74.47,68.67,147.33,103.12,219.65-23.4-1.51-46.91-3.25-70.16-6.31-154.22-20.3-332.31-85.63-430.01-213.27Z"/>
  <path class="cls-21" d="M2447.78,1882.62c178.47,38.81,357.95,72.27,538.41,100.39,180.47,28.12,361.61,50.85,543.43,68.18,217.07,19,436.04,25.93,653.83,32.4,124.49,3.7,248.7,9.95,373.26,10.7,13.58.08,88.78-2.71,96.12,2.91-1.25,8.57-4.57,11.91-11.28,17.36-24.27-6.72-115.16-1.79-146.77-1.76l-400.54.55-1529.16.15c-18.96-37.13-98.6-209.36-117.6-228.57l.29-2.31Z"/>
  <path class="cls-10" d="M4639.05,2118.47c-3.94,11.39-31.77,39.7-42.77,44.74-1.09.5-2.22.93-3.32,1.4-39.41,14.68-76.25,35.22-114.61,52.3-65.72,29.25-225.32,88.82-291.12,94.79,2.19,28.43,4.72,66.68-.51,94.57-4.37,3.47-6.6,4.28-12.14,4.87l-.86-2.88c-12.92-5.4-43.9-1.08-59.12-.84-51.32.81-222.36,7.24-262.94-3.22-14.67-13.66-3.47-45.76-10.34-63.89-.2-.5-.43-.99-.62-1.49-14.56,5.3-267.98,1.51-307.99,1.51l-859.53,1.51c-32.12-74.4-68.66-147.35-103.63-220.45l1546.27-.15,366.2-.38c41.72-.03,120.27,5.16,157.03-2.4Z"/>
  <path class="cls-13" d="M3839.65,2145.9l222.09-.16c40.27-.03,81.52-1.69,121.68,1.39,9.87,16.03,8.35,139.91,3.82,164.58,2.19,28.43,4.72,66.68-.51,94.57-4.37,3.47-6.6,4.28-12.14,4.87l-.86-2.88c-12.92-5.4-43.9-1.08-59.12-.84-51.32.81-222.36,7.24-262.94-3.22-14.67-13.66-3.47-45.76-10.34-63.89-.2-.5-.43-.99-.62-1.49.74-1.71,1.17-2.52,1.68-4.23,4.92-17.33,3.94-176.59-2.73-188.69Z"/>
  <path class="cls-17" d="M3873.05,2177.27c89.79.86,190.9,6.83,279.72,1.19,5.11,13.69,5.07,193.2.94,201.77-.51,1.03-1.09,2-1.64,3-30.71-.07-254.75,2.21-261.58-4.57-1.48-1.48-2.03-2.36-3.16-4,29.77-7.63,77.62-2.72,108.95-2.58,1.8-3.09,3.04-5.24,3.82-8.78,4.14-18.44,3.75-159.23-3.79-170.88-40.09-1.18-80.18-1.46-120.27-.86,9.87,17.78,6.83,121.28,5.85,147.44-12.92-40.2,11.16-130.68-8.86-161.72Z"/>
  <path class="cls-15" d="M3667.67,1050.76c98.81,29.21,199.02,64.5,291.55,110.02,287.45,141.39,551.13,382.47,704.34,664.48,5.7,10.49,21.58,35.99,20.1,47.34-.78.1-1.6.24-2.38.3-34.07,2.68-70.01.14-104.31.01l-205.07-.26-673.44.27-631.76-.16-198.35.12c-32.97.02-67.96,2.35-100.75-.63-30.51-2.77-61.47-18.54-84.32-38.44-4.45-3.87-8.71-7.95-12.76-12.24-4.05-4.29-7.88-8.77-11.48-13.44-3.61-4.67-6.98-9.51-10.11-14.51-3.13-5.01-6-10.15-8.62-15.44-23.07-46.95-39.51-99.74-59.49-148.4-50.63-123.32-101.36-247.54-148.7-372.12-2.22-5.85-4.3-12.19-4.4-18.51-.1-6.19,2.42-13.65,7.02-17.95,21.15-19.75,116.63-36.23,150.9-44.34,206.77-48.93,417.32-89.66,629.15-108.49,150.5-13.39,301.91-15.17,452.88-17.6Z"/>
  <path class="cls-9" d="M3516.84,1295.57c34.81,60.56,78.27,118.54,117.28,176.54,47.87,71.17,93.26,143.85,140.83,215.08,23.45,35.07,46.75,70.11,69.42,105.7,5.35,8.4,14.24,18.57,17.87,27.66l-165.15.44c-29.97.03-62.34,2.38-91.98-1.78-23.36-3.28-42.19-14.72-56-33.78-10.39-14.33-15.06-30.06-17.43-47.44-3.96-29.06-3.13-59.81-4-89.15l-4.85-123.48-4.64-140.24c-1.07-28.64-5.95-61.39-1.35-89.55Z"/>
  <path class="cls-9" d="M2996.81,1820.96c-57.16-.47-212.81,12.92-253.96-24.82-14.06-12.9-24.91-29.72-33.11-46.83-12.38-25.83-19.86-54.77-29.27-81.84-26.31-75.66-81.4-220.86-84.27-297.56-1.3-34.58,6.56-67.18,30.67-92.98,22.21-23.77,49.55-36.68,81.98-37.54,81.38-2.16,163.81,2.85,245.39,2.61l144.08-.53c28.41-.1,59.07-2.08,87.23,1.72,13.23,1.79,25.4,9.1,34.81,18.35,10.38,10.2,16.58,19.57,19.65,34.01,8.75,41.07,4.39,89.42,5.1,131.71l3.93,285.04c-63.95-96.24-126-193.7-186.13-292.38-25.37-40.85-76.43-140.69-106.65-168.32-74.88-.67-149.77-.68-224.65-.02-18.1,10.38-36.01,23.19-41.85,44.56-6.79,24.82,11.8,50.55,24.32,70.78l185.89,298.27c32.26,51.78,62.7,105.25,96.85,155.77Z"/>
  <path class="cls-18" d="M2731.6,1251.59c74.88-.66,149.76-.66,224.65.02,30.22,27.63,81.28,127.47,106.65,168.32,60.13,98.68,122.17,196.13,186.13,292.38.75,30.88-.54,58.68-22.96,82.29-19.53,20.56-45.64,26.62-73.04,27.04-52.01.78-104.2-.32-156.22-.66-34.15-50.52-64.59-103.99-96.85-155.77l-185.89-298.27c-12.51-20.23-31.1-45.96-24.32-70.78,5.84-21.37,23.75-34.18,41.85-44.56Z"/>
  <path class="cls-18" d="M3516.84,1295.57c5.02-11.83,10.24-22.88,19.6-31.98,33.74-32.83,130.3-20.64,176.81-20.14,28.72,0,57.76-.91,86.44.36,29.11-.28,61.03-2.85,89.6,3.08,80.15,16.67,175.57,94.83,232.82,150.89,80,78.4,150.05,176.36,189.54,281.61,8.7,23.2,17.83,48.72,17.76,73.76-.08,21.63-8.04,39.41-23.38,54.48-6.01,5.88-12.41,10.06-20.1,13.35-71.57,3.03-144.23.13-215.96.09-68.88-.05-138.96,2.79-207.72-.52-3.63-9.09-12.53-19.26-17.87-27.66-22.67-35.59-45.97-70.63-69.42-105.7-47.57-71.22-92.95-143.91-140.83-215.08-39.01-58.01-82.47-115.98-117.28-176.54Z"/>
  <path class="cls-20" d="M3713.25,1243.45c28.72,0,57.76-.91,86.44.36,3.75.53,7.41,1.28,10.97,2.52,141.5,49.74,308.37,222.62,370.14,357.58,16.27,35.46,52.76,125.15,54.48,161.02.31,5.95-1.8,11.68-3.82,17.17.47-2.51.78-4.99.62-7.54-1.44-25.96-38.05-79.53-52.21-103.62-59.71-101.41-142.67-201.15-234.65-275.15-33.01-26.57-69.58-49.84-104.9-73.22-32.43-21.44-101.35-55.47-125.58-77.72-.51-.46-1.01-.95-1.48-1.42Z"/>
</svg>